%TF.GenerationSoftware,KiCad,Pcbnew,7.0.2-6a45011f42~172~ubuntu22.04.1*%
%TF.CreationDate,2023-07-12T14:03:09-05:00*%
%TF.ProjectId,Encoder,456e636f-6465-4722-9e6b-696361645f70,rev?*%
%TF.SameCoordinates,Original*%
%TF.FileFunction,Copper,L2,Bot*%
%TF.FilePolarity,Positive*%
%FSLAX46Y46*%
G04 Gerber Fmt 4.6, Leading zero omitted, Abs format (unit mm)*
G04 Created by KiCad (PCBNEW 7.0.2-6a45011f42~172~ubuntu22.04.1) date 2023-07-12 14:03:09*
%MOMM*%
%LPD*%
G01*
G04 APERTURE LIST*
G04 Aperture macros list*
%AMRoundRect*
0 Rectangle with rounded corners*
0 $1 Rounding radius*
0 $2 $3 $4 $5 $6 $7 $8 $9 X,Y pos of 4 corners*
0 Add a 4 corners polygon primitive as box body*
4,1,4,$2,$3,$4,$5,$6,$7,$8,$9,$2,$3,0*
0 Add four circle primitives for the rounded corners*
1,1,$1+$1,$2,$3*
1,1,$1+$1,$4,$5*
1,1,$1+$1,$6,$7*
1,1,$1+$1,$8,$9*
0 Add four rect primitives between the rounded corners*
20,1,$1+$1,$2,$3,$4,$5,0*
20,1,$1+$1,$4,$5,$6,$7,0*
20,1,$1+$1,$6,$7,$8,$9,0*
20,1,$1+$1,$8,$9,$2,$3,0*%
G04 Aperture macros list end*
%TA.AperFunction,SMDPad,CuDef*%
%ADD10RoundRect,0.250001X0.624999X-0.462499X0.624999X0.462499X-0.624999X0.462499X-0.624999X-0.462499X0*%
%TD*%
%TA.AperFunction,ComponentPad*%
%ADD11R,1.500000X1.500000*%
%TD*%
%TA.AperFunction,ComponentPad*%
%ADD12C,1.500000*%
%TD*%
%TA.AperFunction,ComponentPad*%
%ADD13C,3.000000*%
%TD*%
%TA.AperFunction,SMDPad,CuDef*%
%ADD14RoundRect,0.250000X0.625000X-0.400000X0.625000X0.400000X-0.625000X0.400000X-0.625000X-0.400000X0*%
%TD*%
%TA.AperFunction,ViaPad*%
%ADD15C,0.800000*%
%TD*%
%TA.AperFunction,Conductor*%
%ADD16C,0.250000*%
%TD*%
G04 APERTURE END LIST*
D10*
%TO.P,D2,1,K*%
%TO.N,GND*%
X49600000Y-63775000D03*
%TO.P,D2,2,A*%
%TO.N,Net-(D2-A)*%
X49600000Y-60800000D03*
%TD*%
D11*
%TO.P,J1,1*%
%TO.N,MOSI*%
X65490000Y-53040000D03*
D12*
%TO.P,J1,2*%
%TO.N,GND*%
X64220000Y-50500000D03*
%TO.P,J1,3*%
%TO.N,MISO*%
X62950000Y-53040000D03*
%TO.P,J1,4*%
%TO.N,GND*%
X61680000Y-50500000D03*
%TO.P,J1,5*%
%TO.N,CLK*%
X60410000Y-53040000D03*
%TO.P,J1,6*%
%TO.N,GND*%
X59140000Y-50500000D03*
%TO.P,J1,7*%
%TO.N,CS*%
X57870000Y-53040000D03*
%TO.P,J1,8*%
%TO.N,+3.3V*%
X56600000Y-50500000D03*
D13*
%TO.P,J1,SH*%
%TO.N,GND*%
X68815000Y-62440000D03*
X53275000Y-62440000D03*
%TD*%
D10*
%TO.P,D1,1,K*%
%TO.N,GND*%
X72200000Y-63687500D03*
%TO.P,D1,2,A*%
%TO.N,Net-(D1-A)*%
X72200000Y-60712500D03*
%TD*%
D14*
%TO.P,R2,1*%
%TO.N,Net-(D2-A)*%
X49600000Y-57150000D03*
%TO.P,R2,2*%
%TO.N,Net-(U1-W{slash}PWM)*%
X49600000Y-54050000D03*
%TD*%
%TO.P,R1,1*%
%TO.N,Net-(D1-A)*%
X72200000Y-57150000D03*
%TO.P,R1,2*%
%TO.N,+3.3V*%
X72200000Y-54050000D03*
%TD*%
D15*
%TO.N,Net-(U1-W{slash}PWM)*%
X55400000Y-56400000D03*
%TD*%
D16*
%TO.N,+3.3V*%
X72200000Y-54050000D02*
X69725000Y-51575000D01*
X69725000Y-51575000D02*
X57675000Y-51575000D01*
X57675000Y-51575000D02*
X56600000Y-50500000D01*
%TO.N,GND*%
X50935000Y-62440000D02*
X53275000Y-62440000D01*
X72200000Y-63687500D02*
X70952500Y-62440000D01*
X49600000Y-63775000D02*
X50935000Y-62440000D01*
X70952500Y-62440000D02*
X68815000Y-62440000D01*
%TO.N,Net-(D1-A)*%
X72200000Y-57150000D02*
X72200000Y-60712500D01*
%TO.N,Net-(D2-A)*%
X49600000Y-60800000D02*
X49600000Y-57150000D01*
%TO.N,Net-(U1-W{slash}PWM)*%
X51950000Y-56400000D02*
X55400000Y-56400000D01*
X49600000Y-54050000D02*
X51950000Y-56400000D01*
%TD*%
%TA.AperFunction,Conductor*%
%TO.N,GND*%
G36*
X73942539Y-48020185D02*
G01*
X73988294Y-48072989D01*
X73999500Y-48124500D01*
X73999500Y-72875500D01*
X73979815Y-72942539D01*
X73927011Y-72988294D01*
X73875500Y-72999500D01*
X48124500Y-72999500D01*
X48057461Y-72979815D01*
X48011706Y-72927011D01*
X48000500Y-72875500D01*
X48000500Y-70999999D01*
X48394551Y-70999999D01*
X48414317Y-71251149D01*
X48473126Y-71496110D01*
X48521330Y-71612484D01*
X48569534Y-71728859D01*
X48701164Y-71943659D01*
X48864776Y-72135224D01*
X49056341Y-72298836D01*
X49271141Y-72430466D01*
X49503889Y-72526873D01*
X49748852Y-72585683D01*
X50000000Y-72605449D01*
X50251148Y-72585683D01*
X50496111Y-72526873D01*
X50728859Y-72430466D01*
X50943659Y-72298836D01*
X51135224Y-72135224D01*
X51298836Y-71943659D01*
X51430466Y-71728859D01*
X51526873Y-71496111D01*
X51585683Y-71251148D01*
X51605449Y-71000000D01*
X51605449Y-70999999D01*
X70394551Y-70999999D01*
X70414317Y-71251149D01*
X70473126Y-71496110D01*
X70521330Y-71612484D01*
X70569534Y-71728859D01*
X70701164Y-71943659D01*
X70864776Y-72135224D01*
X71056341Y-72298836D01*
X71271141Y-72430466D01*
X71503889Y-72526873D01*
X71748852Y-72585683D01*
X72000000Y-72605449D01*
X72251148Y-72585683D01*
X72496111Y-72526873D01*
X72728859Y-72430466D01*
X72943659Y-72298836D01*
X73135224Y-72135224D01*
X73298836Y-71943659D01*
X73430466Y-71728859D01*
X73526873Y-71496111D01*
X73585683Y-71251148D01*
X73605449Y-71000000D01*
X73585683Y-70748852D01*
X73526873Y-70503889D01*
X73430466Y-70271141D01*
X73298836Y-70056341D01*
X73135224Y-69864776D01*
X72943659Y-69701164D01*
X72728859Y-69569534D01*
X72612485Y-69521330D01*
X72496110Y-69473126D01*
X72251149Y-69414317D01*
X72000000Y-69394551D01*
X71748850Y-69414317D01*
X71503889Y-69473126D01*
X71271139Y-69569535D01*
X71056342Y-69701163D01*
X70864776Y-69864776D01*
X70701163Y-70056342D01*
X70569535Y-70271139D01*
X70473126Y-70503889D01*
X70414317Y-70748850D01*
X70394551Y-70999999D01*
X51605449Y-70999999D01*
X51585683Y-70748852D01*
X51526873Y-70503889D01*
X51430466Y-70271141D01*
X51298836Y-70056341D01*
X51135224Y-69864776D01*
X50943659Y-69701164D01*
X50728859Y-69569534D01*
X50612485Y-69521330D01*
X50496110Y-69473126D01*
X50251149Y-69414317D01*
X50000000Y-69394551D01*
X49748850Y-69414317D01*
X49503889Y-69473126D01*
X49271139Y-69569535D01*
X49056342Y-69701163D01*
X48864776Y-69864776D01*
X48701163Y-70056342D01*
X48569535Y-70271139D01*
X48473126Y-70503889D01*
X48414317Y-70748850D01*
X48394551Y-70999999D01*
X48000500Y-70999999D01*
X48000500Y-64449455D01*
X48020185Y-64382416D01*
X48072989Y-64336661D01*
X48142147Y-64326717D01*
X48205703Y-64355742D01*
X48242206Y-64410451D01*
X48290642Y-64556621D01*
X48382683Y-64705844D01*
X48506655Y-64829816D01*
X48655878Y-64921857D01*
X48822304Y-64977006D01*
X48921891Y-64987180D01*
X48928169Y-64987500D01*
X49350000Y-64987500D01*
X49350000Y-64025000D01*
X49850000Y-64025000D01*
X49850000Y-64987500D01*
X50271831Y-64987500D01*
X50278108Y-64987180D01*
X50377695Y-64977006D01*
X50544121Y-64921857D01*
X50693344Y-64829816D01*
X50817316Y-64705844D01*
X50909357Y-64556621D01*
X50964506Y-64390195D01*
X50974680Y-64290608D01*
X50975000Y-64284330D01*
X50975000Y-64025000D01*
X49850000Y-64025000D01*
X49350000Y-64025000D01*
X49350000Y-62562500D01*
X49850000Y-62562500D01*
X49850000Y-63525000D01*
X50975000Y-63525000D01*
X50975000Y-63265669D01*
X50974680Y-63259391D01*
X50964506Y-63159804D01*
X50909357Y-62993378D01*
X50817316Y-62844155D01*
X50693344Y-62720183D01*
X50544121Y-62628142D01*
X50377695Y-62572993D01*
X50278108Y-62562819D01*
X50271831Y-62562500D01*
X49850000Y-62562500D01*
X49350000Y-62562500D01*
X48928169Y-62562500D01*
X48921891Y-62562819D01*
X48822304Y-62572993D01*
X48655878Y-62628142D01*
X48506655Y-62720183D01*
X48382683Y-62844155D01*
X48290642Y-62993378D01*
X48242206Y-63139548D01*
X48202433Y-63196993D01*
X48137917Y-63223816D01*
X48069141Y-63211501D01*
X48017942Y-63163958D01*
X48000500Y-63100544D01*
X48000500Y-61476045D01*
X48020185Y-61409006D01*
X48072989Y-61363251D01*
X48142147Y-61353307D01*
X48205703Y-61382332D01*
X48242206Y-61437041D01*
X48290186Y-61581836D01*
X48382288Y-61731155D01*
X48506344Y-61855211D01*
X48655663Y-61947313D01*
X48822202Y-62002499D01*
X48921859Y-62012680D01*
X48921860Y-62012680D01*
X48924992Y-62013000D01*
X48928141Y-62013000D01*
X50271859Y-62013000D01*
X50275008Y-62013000D01*
X50377797Y-62002499D01*
X50544334Y-61947314D01*
X50596725Y-61914999D01*
X50693655Y-61855211D01*
X50817711Y-61731155D01*
X50909813Y-61581836D01*
X50957157Y-61438964D01*
X50964999Y-61415297D01*
X50975500Y-61312508D01*
X50975500Y-60287492D01*
X50964999Y-60184703D01*
X50957793Y-60162958D01*
X50909813Y-60018163D01*
X50817711Y-59868844D01*
X50693655Y-59744788D01*
X50544336Y-59652686D01*
X50377797Y-59597500D01*
X50336897Y-59593322D01*
X50272205Y-59566925D01*
X50232054Y-59509744D01*
X50225500Y-59469964D01*
X50225500Y-58417534D01*
X50245185Y-58350495D01*
X50297989Y-58304740D01*
X50336897Y-58294176D01*
X50377797Y-58289999D01*
X50544334Y-58234814D01*
X50693656Y-58142712D01*
X50817712Y-58018656D01*
X50909814Y-57869334D01*
X50964999Y-57702797D01*
X50975500Y-57600009D01*
X50975499Y-56699992D01*
X50966558Y-56612468D01*
X50979328Y-56543778D01*
X51027208Y-56492894D01*
X51094998Y-56475973D01*
X51161174Y-56498389D01*
X51177597Y-56512188D01*
X51449196Y-56783787D01*
X51462096Y-56799888D01*
X51513223Y-56847900D01*
X51516020Y-56850611D01*
X51535529Y-56870120D01*
X51538709Y-56872587D01*
X51547571Y-56880155D01*
X51579418Y-56910062D01*
X51596972Y-56919712D01*
X51613236Y-56930396D01*
X51624972Y-56939499D01*
X51629064Y-56942673D01*
X51653909Y-56953424D01*
X51669152Y-56960021D01*
X51679631Y-56965154D01*
X51717908Y-56986197D01*
X51737306Y-56991177D01*
X51755708Y-56997477D01*
X51774104Y-57005438D01*
X51817261Y-57012273D01*
X51828664Y-57014634D01*
X51870981Y-57025500D01*
X51891016Y-57025500D01*
X51910413Y-57027026D01*
X51930196Y-57030160D01*
X51973674Y-57026050D01*
X51985344Y-57025500D01*
X54696253Y-57025500D01*
X54763292Y-57045185D01*
X54788400Y-57066526D01*
X54794129Y-57072888D01*
X54947270Y-57184151D01*
X55120197Y-57261144D01*
X55190048Y-57275991D01*
X55251528Y-57309183D01*
X55285305Y-57370345D01*
X55280653Y-57440060D01*
X55239049Y-57496193D01*
X55173702Y-57520921D01*
X55173318Y-57520950D01*
X55056194Y-57529522D01*
X54788225Y-57589215D01*
X54531803Y-57687288D01*
X54292391Y-57821653D01*
X54075094Y-57989443D01*
X53884545Y-58187083D01*
X53724802Y-58410364D01*
X53599272Y-58654521D01*
X53510629Y-58914352D01*
X53460763Y-59184325D01*
X53450737Y-59458678D01*
X53480763Y-59731569D01*
X53515816Y-59865646D01*
X53550204Y-59997182D01*
X53657577Y-60249852D01*
X53667736Y-60266498D01*
X53685855Y-60333978D01*
X53664617Y-60400541D01*
X53610763Y-60445055D01*
X53553043Y-60454777D01*
X53275000Y-60434890D01*
X52989642Y-60455300D01*
X52710097Y-60516111D01*
X52442047Y-60616088D01*
X52190954Y-60753195D01*
X52048437Y-60859882D01*
X52048436Y-60859882D01*
X52911891Y-61723338D01*
X52773052Y-61810577D01*
X52645577Y-61938052D01*
X52558338Y-62076891D01*
X51694883Y-61213436D01*
X51694882Y-61213437D01*
X51588195Y-61355954D01*
X51451088Y-61607047D01*
X51351111Y-61875097D01*
X51290300Y-62154642D01*
X51269890Y-62439999D01*
X51290300Y-62725357D01*
X51351111Y-63004902D01*
X51451088Y-63272952D01*
X51588193Y-63524042D01*
X51694883Y-63666562D01*
X52558338Y-62803107D01*
X52645577Y-62941948D01*
X52773052Y-63069423D01*
X52911890Y-63156660D01*
X52048436Y-64020115D01*
X52190958Y-64126806D01*
X52442047Y-64263911D01*
X52710097Y-64363888D01*
X52989642Y-64424699D01*
X53274999Y-64445109D01*
X53560357Y-64424699D01*
X53839902Y-64363888D01*
X54107952Y-64263911D01*
X54359041Y-64126806D01*
X54501562Y-64020115D01*
X53638108Y-63156661D01*
X53776948Y-63069423D01*
X53904423Y-62941948D01*
X53991661Y-62803108D01*
X54855115Y-63666562D01*
X54961806Y-63524041D01*
X55098911Y-63272952D01*
X55198888Y-63004902D01*
X55259699Y-62725357D01*
X55280109Y-62440000D01*
X55259699Y-62154642D01*
X55198888Y-61875097D01*
X55098911Y-61607047D01*
X55007131Y-61438964D01*
X54992279Y-61370691D01*
X55016696Y-61305226D01*
X55072630Y-61263355D01*
X55134017Y-61256859D01*
X55167284Y-61261754D01*
X55192729Y-61265500D01*
X55192731Y-61265500D01*
X55396285Y-61265500D01*
X55398547Y-61265500D01*
X55603805Y-61250477D01*
X55871775Y-61190784D01*
X56128198Y-61092711D01*
X56367609Y-60958347D01*
X56584904Y-60790557D01*
X56775454Y-60592916D01*
X56935196Y-60369637D01*
X57060727Y-60125479D01*
X57149370Y-59865646D01*
X57171694Y-59744788D01*
X57199236Y-59595674D01*
X57204242Y-59458678D01*
X64880737Y-59458678D01*
X64910763Y-59731569D01*
X64945816Y-59865646D01*
X64980204Y-59997182D01*
X65066389Y-60199992D01*
X65087577Y-60249852D01*
X65206707Y-60445055D01*
X65230595Y-60484196D01*
X65406209Y-60695218D01*
X65610677Y-60878423D01*
X65839641Y-61029904D01*
X66088221Y-61146433D01*
X66351119Y-61225527D01*
X66622731Y-61265500D01*
X66622734Y-61265500D01*
X66826285Y-61265500D01*
X66828547Y-61265500D01*
X66965186Y-61255499D01*
X67033484Y-61270237D01*
X67082971Y-61319560D01*
X67097937Y-61387808D01*
X67083070Y-61438595D01*
X66991088Y-61607046D01*
X66891111Y-61875097D01*
X66830300Y-62154642D01*
X66809890Y-62439999D01*
X66830300Y-62725357D01*
X66891111Y-63004902D01*
X66991088Y-63272952D01*
X67128193Y-63524042D01*
X67234883Y-63666562D01*
X68098338Y-62803107D01*
X68185577Y-62941948D01*
X68313052Y-63069423D01*
X68451891Y-63156661D01*
X67588436Y-64020115D01*
X67730958Y-64126806D01*
X67982047Y-64263911D01*
X68250097Y-64363888D01*
X68529642Y-64424699D01*
X68815000Y-64445109D01*
X69100357Y-64424699D01*
X69379902Y-64363888D01*
X69647952Y-64263911D01*
X69899041Y-64126806D01*
X70041562Y-64020115D01*
X69958947Y-63937500D01*
X70825000Y-63937500D01*
X70825000Y-64196830D01*
X70825319Y-64203108D01*
X70835493Y-64302695D01*
X70890642Y-64469121D01*
X70982683Y-64618344D01*
X71106655Y-64742316D01*
X71255878Y-64834357D01*
X71422304Y-64889506D01*
X71521891Y-64899680D01*
X71528169Y-64900000D01*
X71950000Y-64900000D01*
X71950000Y-63937500D01*
X72450000Y-63937500D01*
X72450000Y-64900000D01*
X72871831Y-64900000D01*
X72878108Y-64899680D01*
X72977695Y-64889506D01*
X73144121Y-64834357D01*
X73293344Y-64742316D01*
X73417316Y-64618344D01*
X73509357Y-64469121D01*
X73564506Y-64302695D01*
X73574680Y-64203108D01*
X73575000Y-64196830D01*
X73575000Y-63937500D01*
X72450000Y-63937500D01*
X71950000Y-63937500D01*
X70825000Y-63937500D01*
X69958947Y-63937500D01*
X69178108Y-63156661D01*
X69316948Y-63069423D01*
X69444423Y-62941948D01*
X69531661Y-62803108D01*
X70395115Y-63666562D01*
X70501806Y-63524041D01*
X70592168Y-63358556D01*
X70641573Y-63309151D01*
X70709846Y-63294299D01*
X70775310Y-63318716D01*
X70817182Y-63374649D01*
X70825000Y-63417983D01*
X70825000Y-63437500D01*
X71950000Y-63437500D01*
X71950000Y-62475000D01*
X72450000Y-62475000D01*
X72450000Y-63437500D01*
X73575000Y-63437500D01*
X73575000Y-63178169D01*
X73574680Y-63171891D01*
X73564506Y-63072304D01*
X73509357Y-62905878D01*
X73417316Y-62756655D01*
X73293344Y-62632683D01*
X73144121Y-62540642D01*
X72977695Y-62485493D01*
X72878108Y-62475319D01*
X72871831Y-62475000D01*
X72450000Y-62475000D01*
X71950000Y-62475000D01*
X71528169Y-62475000D01*
X71521891Y-62475319D01*
X71422304Y-62485493D01*
X71255878Y-62540642D01*
X71106657Y-62632681D01*
X71018275Y-62721064D01*
X70956951Y-62754548D01*
X70887260Y-62749564D01*
X70831327Y-62707692D01*
X70806910Y-62642227D01*
X70806910Y-62624535D01*
X70820109Y-62439999D01*
X70799699Y-62154642D01*
X70738888Y-61875097D01*
X70638911Y-61607047D01*
X70501806Y-61355958D01*
X70403778Y-61225008D01*
X70824500Y-61225008D01*
X70824818Y-61228121D01*
X70824819Y-61228140D01*
X70835000Y-61327797D01*
X70890186Y-61494336D01*
X70982288Y-61643655D01*
X71106344Y-61767711D01*
X71255663Y-61859813D01*
X71422202Y-61914999D01*
X71521859Y-61925180D01*
X71521860Y-61925180D01*
X71524992Y-61925500D01*
X71528141Y-61925500D01*
X72871859Y-61925500D01*
X72875008Y-61925500D01*
X72977797Y-61914999D01*
X73144334Y-61859814D01*
X73293655Y-61767711D01*
X73417711Y-61643655D01*
X73509814Y-61494334D01*
X73564999Y-61327797D01*
X73575500Y-61225008D01*
X73575500Y-60199992D01*
X73564999Y-60097203D01*
X73509814Y-59930666D01*
X73509813Y-59930665D01*
X73509813Y-59930663D01*
X73417711Y-59781344D01*
X73293655Y-59657288D01*
X73144336Y-59565186D01*
X72977797Y-59510000D01*
X72936897Y-59505822D01*
X72872205Y-59479425D01*
X72832054Y-59422244D01*
X72825500Y-59382464D01*
X72825500Y-58417534D01*
X72845185Y-58350495D01*
X72897989Y-58304740D01*
X72936897Y-58294176D01*
X72977797Y-58289999D01*
X73144334Y-58234814D01*
X73293656Y-58142712D01*
X73417712Y-58018656D01*
X73509814Y-57869334D01*
X73564999Y-57702797D01*
X73575500Y-57600009D01*
X73575499Y-56699992D01*
X73564999Y-56597203D01*
X73509814Y-56430666D01*
X73417712Y-56281344D01*
X73417711Y-56281342D01*
X73293657Y-56157288D01*
X73144334Y-56065186D01*
X72977797Y-56010000D01*
X72878141Y-55999819D01*
X72878122Y-55999818D01*
X72875009Y-55999500D01*
X72871860Y-55999500D01*
X71528140Y-55999500D01*
X71528120Y-55999500D01*
X71524992Y-55999501D01*
X71521860Y-55999820D01*
X71521858Y-55999821D01*
X71422203Y-56010000D01*
X71255665Y-56065186D01*
X71106342Y-56157288D01*
X70982288Y-56281342D01*
X70890186Y-56430665D01*
X70835000Y-56597202D01*
X70824819Y-56696858D01*
X70824817Y-56696878D01*
X70824500Y-56699991D01*
X70824500Y-56703138D01*
X70824500Y-56703139D01*
X70824500Y-57596858D01*
X70824500Y-57596877D01*
X70824501Y-57600008D01*
X70824820Y-57603140D01*
X70824821Y-57603141D01*
X70835000Y-57702796D01*
X70890186Y-57869334D01*
X70982288Y-58018657D01*
X71106342Y-58142711D01*
X71106344Y-58142712D01*
X71255666Y-58234814D01*
X71367016Y-58271712D01*
X71422202Y-58289999D01*
X71435566Y-58291364D01*
X71463101Y-58294177D01*
X71527793Y-58320572D01*
X71567945Y-58377753D01*
X71574500Y-58417535D01*
X71574500Y-59382464D01*
X71554815Y-59449503D01*
X71502011Y-59495258D01*
X71463103Y-59505822D01*
X71422202Y-59510000D01*
X71255663Y-59565186D01*
X71106344Y-59657288D01*
X70982288Y-59781344D01*
X70890186Y-59930663D01*
X70835000Y-60097202D01*
X70824819Y-60196859D01*
X70824817Y-60196879D01*
X70824500Y-60199992D01*
X70824500Y-61225008D01*
X70403778Y-61225008D01*
X70395115Y-61213436D01*
X69531660Y-62076890D01*
X69444423Y-61938052D01*
X69316948Y-61810577D01*
X69178108Y-61723338D01*
X70041562Y-60859883D01*
X69899042Y-60753193D01*
X69647952Y-60616088D01*
X69379902Y-60516111D01*
X69100357Y-60455300D01*
X68814999Y-60434890D01*
X68533148Y-60455049D01*
X68464875Y-60440197D01*
X68415470Y-60390792D01*
X68400618Y-60322519D01*
X68414024Y-60274667D01*
X68458907Y-60187368D01*
X68490727Y-60125479D01*
X68579370Y-59865646D01*
X68601694Y-59744788D01*
X68629236Y-59595674D01*
X68639262Y-59321321D01*
X68624189Y-59184325D01*
X68609236Y-59048429D01*
X68539796Y-58782818D01*
X68432423Y-58530148D01*
X68289405Y-58295804D01*
X68113791Y-58084782D01*
X67909323Y-57901577D01*
X67680359Y-57750096D01*
X67431779Y-57633567D01*
X67168881Y-57554473D01*
X66897269Y-57514500D01*
X66691453Y-57514500D01*
X66689204Y-57514664D01*
X66689193Y-57514665D01*
X66486194Y-57529522D01*
X66218225Y-57589215D01*
X65961803Y-57687288D01*
X65722391Y-57821653D01*
X65505094Y-57989443D01*
X65314545Y-58187083D01*
X65154802Y-58410364D01*
X65029272Y-58654521D01*
X64940629Y-58914352D01*
X64890763Y-59184325D01*
X64880737Y-59458678D01*
X57204242Y-59458678D01*
X57209262Y-59321321D01*
X57194189Y-59184325D01*
X57179236Y-59048429D01*
X57109796Y-58782818D01*
X57002423Y-58530148D01*
X56859405Y-58295804D01*
X56683791Y-58084782D01*
X56479323Y-57901577D01*
X56250359Y-57750096D01*
X56001779Y-57633567D01*
X55738881Y-57554473D01*
X55738880Y-57554472D01*
X55738874Y-57554471D01*
X55571321Y-57529812D01*
X55507862Y-57500576D01*
X55470283Y-57441673D01*
X55470516Y-57371804D01*
X55508485Y-57313151D01*
X55563591Y-57285845D01*
X55679803Y-57261144D01*
X55852730Y-57184151D01*
X56005871Y-57072888D01*
X56132533Y-56932216D01*
X56227179Y-56768284D01*
X56285674Y-56588256D01*
X56305460Y-56400000D01*
X56285674Y-56211744D01*
X56227179Y-56031716D01*
X56227179Y-56031715D01*
X56132533Y-55867783D01*
X56005870Y-55727110D01*
X55852730Y-55615848D01*
X55679802Y-55538855D01*
X55494648Y-55499500D01*
X55494646Y-55499500D01*
X55305354Y-55499500D01*
X55305352Y-55499500D01*
X55120197Y-55538855D01*
X54947272Y-55615847D01*
X54845176Y-55690024D01*
X54794129Y-55727112D01*
X54788401Y-55733472D01*
X54728916Y-55770121D01*
X54696253Y-55774500D01*
X52260452Y-55774500D01*
X52193413Y-55754815D01*
X52172771Y-55738181D01*
X51011818Y-54577228D01*
X50978333Y-54515905D01*
X50975499Y-54489556D01*
X50975499Y-53599992D01*
X50964999Y-53497203D01*
X50909814Y-53330666D01*
X50817712Y-53181344D01*
X50817711Y-53181342D01*
X50693657Y-53057288D01*
X50544334Y-52965186D01*
X50377797Y-52910000D01*
X50278141Y-52899819D01*
X50278122Y-52899818D01*
X50275009Y-52899500D01*
X50271860Y-52899500D01*
X48928140Y-52899500D01*
X48928120Y-52899500D01*
X48924992Y-52899501D01*
X48921860Y-52899820D01*
X48921858Y-52899821D01*
X48822203Y-52910000D01*
X48655665Y-52965186D01*
X48506342Y-53057288D01*
X48382288Y-53181342D01*
X48290186Y-53330665D01*
X48242206Y-53475459D01*
X48202433Y-53532904D01*
X48137917Y-53559727D01*
X48069141Y-53547412D01*
X48017942Y-53499869D01*
X48000500Y-53436455D01*
X48000500Y-50000000D01*
X48394551Y-50000000D01*
X48414317Y-50251149D01*
X48473126Y-50496110D01*
X48488824Y-50534008D01*
X48569534Y-50728859D01*
X48701164Y-50943659D01*
X48864776Y-51135224D01*
X49056341Y-51298836D01*
X49271141Y-51430466D01*
X49503889Y-51526873D01*
X49748852Y-51585683D01*
X50000000Y-51605449D01*
X50251148Y-51585683D01*
X50496111Y-51526873D01*
X50728859Y-51430466D01*
X50943659Y-51298836D01*
X51135224Y-51135224D01*
X51298836Y-50943659D01*
X51430466Y-50728859D01*
X51525262Y-50500000D01*
X55344722Y-50500000D01*
X55363792Y-50717974D01*
X55420425Y-50929331D01*
X55448157Y-50988802D01*
X55512898Y-51127639D01*
X55638402Y-51306877D01*
X55793123Y-51461598D01*
X55972361Y-51587102D01*
X56170670Y-51679575D01*
X56382023Y-51736207D01*
X56600000Y-51755277D01*
X56817977Y-51736207D01*
X56854221Y-51726495D01*
X56924071Y-51728156D01*
X56973998Y-51758588D01*
X57094311Y-51878901D01*
X57127796Y-51940224D01*
X57122812Y-52009916D01*
X57080940Y-52065849D01*
X57077757Y-52068154D01*
X57063124Y-52078400D01*
X56908402Y-52233122D01*
X56782898Y-52412361D01*
X56690425Y-52610668D01*
X56633792Y-52822025D01*
X56614722Y-53040000D01*
X56633792Y-53257974D01*
X56690425Y-53469331D01*
X56740261Y-53576205D01*
X56782898Y-53667639D01*
X56908402Y-53846877D01*
X57063123Y-54001598D01*
X57242361Y-54127102D01*
X57440670Y-54219575D01*
X57652023Y-54276207D01*
X57870000Y-54295277D01*
X58087977Y-54276207D01*
X58299330Y-54219575D01*
X58497639Y-54127102D01*
X58676877Y-54001598D01*
X58831598Y-53846877D01*
X58957102Y-53667639D01*
X59027617Y-53516417D01*
X59073790Y-53463978D01*
X59140984Y-53444826D01*
X59207865Y-53465042D01*
X59252382Y-53516417D01*
X59322898Y-53667639D01*
X59448402Y-53846877D01*
X59603123Y-54001598D01*
X59782361Y-54127102D01*
X59980670Y-54219575D01*
X60192023Y-54276207D01*
X60337341Y-54288920D01*
X60409999Y-54295277D01*
X60409999Y-54295276D01*
X60410000Y-54295277D01*
X60627977Y-54276207D01*
X60839330Y-54219575D01*
X61037639Y-54127102D01*
X61216877Y-54001598D01*
X61371598Y-53846877D01*
X61497102Y-53667639D01*
X61567617Y-53516417D01*
X61613790Y-53463978D01*
X61680984Y-53444826D01*
X61747865Y-53465042D01*
X61792382Y-53516417D01*
X61862898Y-53667639D01*
X61988402Y-53846877D01*
X62143123Y-54001598D01*
X62322361Y-54127102D01*
X62520670Y-54219575D01*
X62732023Y-54276207D01*
X62950000Y-54295277D01*
X63167977Y-54276207D01*
X63379330Y-54219575D01*
X63577639Y-54127102D01*
X63756877Y-54001598D01*
X63911598Y-53846877D01*
X64013928Y-53700734D01*
X64068502Y-53657112D01*
X64138000Y-53649918D01*
X64200355Y-53681441D01*
X64235769Y-53741670D01*
X64239500Y-53771858D01*
X64239500Y-53834559D01*
X64239500Y-53834577D01*
X64239501Y-53837872D01*
X64245909Y-53897483D01*
X64296204Y-54032331D01*
X64382454Y-54147546D01*
X64497669Y-54233796D01*
X64632517Y-54284091D01*
X64692127Y-54290500D01*
X66287872Y-54290499D01*
X66347483Y-54284091D01*
X66482331Y-54233796D01*
X66597546Y-54147546D01*
X66683796Y-54032331D01*
X66734091Y-53897483D01*
X66740500Y-53837873D01*
X66740499Y-52324499D01*
X66760184Y-52257461D01*
X66812987Y-52211706D01*
X66864499Y-52200500D01*
X69414548Y-52200500D01*
X69481587Y-52220185D01*
X69502229Y-52236819D01*
X70788181Y-53522771D01*
X70821666Y-53584094D01*
X70824500Y-53610452D01*
X70824500Y-54496858D01*
X70824500Y-54496877D01*
X70824501Y-54500008D01*
X70824820Y-54503140D01*
X70824821Y-54503141D01*
X70835000Y-54602796D01*
X70890186Y-54769334D01*
X70982288Y-54918657D01*
X71106342Y-55042711D01*
X71106344Y-55042712D01*
X71255666Y-55134814D01*
X71367016Y-55171712D01*
X71422202Y-55189999D01*
X71521858Y-55200180D01*
X71521859Y-55200180D01*
X71524991Y-55200500D01*
X72875008Y-55200499D01*
X72977797Y-55189999D01*
X73144334Y-55134814D01*
X73293656Y-55042712D01*
X73417712Y-54918656D01*
X73509814Y-54769334D01*
X73564999Y-54602797D01*
X73575500Y-54500009D01*
X73575499Y-53599992D01*
X73564999Y-53497203D01*
X73509814Y-53330666D01*
X73417712Y-53181344D01*
X73417711Y-53181342D01*
X73293657Y-53057288D01*
X73144334Y-52965186D01*
X72977797Y-52910000D01*
X72878141Y-52899819D01*
X72878122Y-52899818D01*
X72875009Y-52899500D01*
X72871860Y-52899500D01*
X71985452Y-52899500D01*
X71918413Y-52879815D01*
X71897771Y-52863181D01*
X70225802Y-51191211D01*
X70212906Y-51175113D01*
X70161775Y-51127098D01*
X70158978Y-51124387D01*
X70142227Y-51107636D01*
X70139471Y-51104880D01*
X70136290Y-51102412D01*
X70127422Y-51094837D01*
X70095582Y-51064938D01*
X70078024Y-51055285D01*
X70061764Y-51044604D01*
X70045936Y-51032327D01*
X70005851Y-51014980D01*
X69995361Y-51009841D01*
X69957091Y-50988802D01*
X69937691Y-50983821D01*
X69919284Y-50977519D01*
X69900897Y-50969562D01*
X69857758Y-50962729D01*
X69846324Y-50960361D01*
X69804019Y-50949500D01*
X69783984Y-50949500D01*
X69764586Y-50947973D01*
X69757162Y-50946797D01*
X69744805Y-50944840D01*
X69744804Y-50944840D01*
X69711751Y-50947964D01*
X69701325Y-50948950D01*
X69689656Y-50949500D01*
X65555252Y-50949500D01*
X65488213Y-50929815D01*
X65442458Y-50877011D01*
X65432514Y-50807853D01*
X65435477Y-50793406D01*
X65455712Y-50717886D01*
X65474775Y-50500000D01*
X65455712Y-50282113D01*
X65399102Y-50070840D01*
X65366068Y-50000000D01*
X70394551Y-50000000D01*
X70414317Y-50251149D01*
X70473126Y-50496110D01*
X70488824Y-50534008D01*
X70569534Y-50728859D01*
X70701164Y-50943659D01*
X70864776Y-51135224D01*
X71056341Y-51298836D01*
X71271141Y-51430466D01*
X71503889Y-51526873D01*
X71748852Y-51585683D01*
X72000000Y-51605449D01*
X72251148Y-51585683D01*
X72496111Y-51526873D01*
X72728859Y-51430466D01*
X72943659Y-51298836D01*
X73135224Y-51135224D01*
X73298836Y-50943659D01*
X73430466Y-50728859D01*
X73526873Y-50496111D01*
X73585683Y-50251148D01*
X73605449Y-50000000D01*
X73585683Y-49748852D01*
X73526873Y-49503889D01*
X73430466Y-49271141D01*
X73298836Y-49056341D01*
X73135224Y-48864776D01*
X72943659Y-48701164D01*
X72728859Y-48569534D01*
X72612484Y-48521330D01*
X72496110Y-48473126D01*
X72251149Y-48414317D01*
X72000000Y-48394551D01*
X71748850Y-48414317D01*
X71503889Y-48473126D01*
X71271139Y-48569535D01*
X71056342Y-48701163D01*
X70864776Y-48864776D01*
X70701163Y-49056342D01*
X70569535Y-49271139D01*
X70473126Y-49503889D01*
X70414317Y-49748850D01*
X70394551Y-50000000D01*
X65366068Y-50000000D01*
X65306667Y-49872615D01*
X65263123Y-49810428D01*
X64664449Y-50409101D01*
X64663673Y-50398735D01*
X64614113Y-50272459D01*
X64529535Y-50166401D01*
X64417453Y-50089984D01*
X64309698Y-50056746D01*
X64909572Y-49456874D01*
X64909571Y-49456873D01*
X64847386Y-49413331D01*
X64649161Y-49320898D01*
X64437886Y-49264287D01*
X64220000Y-49245224D01*
X64002113Y-49264287D01*
X63790840Y-49320897D01*
X63592611Y-49413333D01*
X63530428Y-49456874D01*
X63530427Y-49456875D01*
X64131767Y-50058215D01*
X64085862Y-50065135D01*
X63963643Y-50123993D01*
X63864202Y-50216260D01*
X63796375Y-50333740D01*
X63778500Y-50412053D01*
X63176875Y-49810427D01*
X63176874Y-49810428D01*
X63133333Y-49872611D01*
X63062382Y-50024767D01*
X63016209Y-50077206D01*
X62949016Y-50096358D01*
X62882135Y-50076142D01*
X62837618Y-50024767D01*
X62766667Y-49872615D01*
X62723123Y-49810428D01*
X62124449Y-50409101D01*
X62123673Y-50398735D01*
X62074113Y-50272459D01*
X61989535Y-50166401D01*
X61877453Y-50089984D01*
X61769700Y-50056747D01*
X62369572Y-49456875D01*
X62369571Y-49456873D01*
X62307386Y-49413331D01*
X62109161Y-49320898D01*
X61897886Y-49264287D01*
X61680000Y-49245224D01*
X61462113Y-49264287D01*
X61250840Y-49320897D01*
X61052611Y-49413333D01*
X60990428Y-49456874D01*
X60990427Y-49456875D01*
X61591768Y-50058215D01*
X61545862Y-50065135D01*
X61423643Y-50123993D01*
X61324202Y-50216260D01*
X61256375Y-50333740D01*
X61238500Y-50412053D01*
X60636875Y-49810427D01*
X60636874Y-49810428D01*
X60593333Y-49872611D01*
X60522382Y-50024767D01*
X60476209Y-50077206D01*
X60409016Y-50096358D01*
X60342135Y-50076142D01*
X60297618Y-50024767D01*
X60226667Y-49872615D01*
X60183123Y-49810428D01*
X59584449Y-50409101D01*
X59583673Y-50398735D01*
X59534113Y-50272459D01*
X59449535Y-50166401D01*
X59337453Y-50089984D01*
X59229699Y-50056746D01*
X59829572Y-49456874D01*
X59829571Y-49456873D01*
X59767386Y-49413331D01*
X59569161Y-49320898D01*
X59357886Y-49264287D01*
X59140000Y-49245224D01*
X58922113Y-49264287D01*
X58710840Y-49320897D01*
X58512611Y-49413333D01*
X58450428Y-49456874D01*
X58450427Y-49456875D01*
X59051769Y-50058215D01*
X59005862Y-50065135D01*
X58883643Y-50123993D01*
X58784202Y-50216260D01*
X58716375Y-50333740D01*
X58698500Y-50412053D01*
X58096875Y-49810427D01*
X58096874Y-49810428D01*
X58053333Y-49872612D01*
X57982658Y-50024175D01*
X57936485Y-50076614D01*
X57869292Y-50095766D01*
X57802411Y-50075550D01*
X57757894Y-50024175D01*
X57746621Y-50000000D01*
X57687102Y-49872362D01*
X57561598Y-49693123D01*
X57406877Y-49538402D01*
X57227639Y-49412898D01*
X57136205Y-49370261D01*
X57029331Y-49320425D01*
X56817974Y-49263792D01*
X56600000Y-49244722D01*
X56382025Y-49263792D01*
X56170668Y-49320425D01*
X55972361Y-49412898D01*
X55793122Y-49538402D01*
X55638402Y-49693122D01*
X55512898Y-49872361D01*
X55420425Y-50070668D01*
X55363792Y-50282025D01*
X55344722Y-50500000D01*
X51525262Y-50500000D01*
X51526873Y-50496111D01*
X51585683Y-50251148D01*
X51605449Y-50000000D01*
X51585683Y-49748852D01*
X51526873Y-49503889D01*
X51430466Y-49271141D01*
X51298836Y-49056341D01*
X51135224Y-48864776D01*
X50943659Y-48701164D01*
X50728859Y-48569534D01*
X50612485Y-48521330D01*
X50496110Y-48473126D01*
X50251149Y-48414317D01*
X50000000Y-48394551D01*
X49748850Y-48414317D01*
X49503889Y-48473126D01*
X49271139Y-48569535D01*
X49056342Y-48701163D01*
X48864776Y-48864776D01*
X48701163Y-49056342D01*
X48569535Y-49271139D01*
X48473126Y-49503889D01*
X48414317Y-49748850D01*
X48394551Y-50000000D01*
X48000500Y-50000000D01*
X48000500Y-48124500D01*
X48020185Y-48057461D01*
X48072989Y-48011706D01*
X48124500Y-48000500D01*
X73875500Y-48000500D01*
X73942539Y-48020185D01*
G37*
%TD.AperFunction*%
%TD*%
M02*
