%TF.GenerationSoftware,KiCad,Pcbnew,7.0.2-6a45011f42~172~ubuntu22.04.1*%
%TF.CreationDate,2023-07-12T14:03:09-05:00*%
%TF.ProjectId,Encoder,456e636f-6465-4722-9e6b-696361645f70,rev?*%
%TF.SameCoordinates,Original*%
%TF.FileFunction,Legend,Bot*%
%TF.FilePolarity,Positive*%
%FSLAX46Y46*%
G04 Gerber Fmt 4.6, Leading zero omitted, Abs format (unit mm)*
G04 Created by KiCad (PCBNEW 7.0.2-6a45011f42~172~ubuntu22.04.1) date 2023-07-12 14:03:09*
%MOMM*%
%LPD*%
G01*
G04 APERTURE LIST*
%ADD10C,0.150000*%
%ADD11C,0.120000*%
G04 APERTURE END LIST*
D10*
%TO.C,D2*%
X50338094Y-59662619D02*
X50338094Y-58662619D01*
X50338094Y-58662619D02*
X50099999Y-58662619D01*
X50099999Y-58662619D02*
X49957142Y-58710238D01*
X49957142Y-58710238D02*
X49861904Y-58805476D01*
X49861904Y-58805476D02*
X49814285Y-58900714D01*
X49814285Y-58900714D02*
X49766666Y-59091190D01*
X49766666Y-59091190D02*
X49766666Y-59234047D01*
X49766666Y-59234047D02*
X49814285Y-59424523D01*
X49814285Y-59424523D02*
X49861904Y-59519761D01*
X49861904Y-59519761D02*
X49957142Y-59615000D01*
X49957142Y-59615000D02*
X50099999Y-59662619D01*
X50099999Y-59662619D02*
X50338094Y-59662619D01*
X49385713Y-58757857D02*
X49338094Y-58710238D01*
X49338094Y-58710238D02*
X49242856Y-58662619D01*
X49242856Y-58662619D02*
X49004761Y-58662619D01*
X49004761Y-58662619D02*
X48909523Y-58710238D01*
X48909523Y-58710238D02*
X48861904Y-58757857D01*
X48861904Y-58757857D02*
X48814285Y-58853095D01*
X48814285Y-58853095D02*
X48814285Y-58948333D01*
X48814285Y-58948333D02*
X48861904Y-59091190D01*
X48861904Y-59091190D02*
X49433332Y-59662619D01*
X49433332Y-59662619D02*
X48814285Y-59662619D01*
%TO.C,J1*%
X61533333Y-68062619D02*
X61533333Y-68776904D01*
X61533333Y-68776904D02*
X61580952Y-68919761D01*
X61580952Y-68919761D02*
X61676190Y-69015000D01*
X61676190Y-69015000D02*
X61819047Y-69062619D01*
X61819047Y-69062619D02*
X61914285Y-69062619D01*
X60533333Y-69062619D02*
X61104761Y-69062619D01*
X60819047Y-69062619D02*
X60819047Y-68062619D01*
X60819047Y-68062619D02*
X60914285Y-68205476D01*
X60914285Y-68205476D02*
X61009523Y-68300714D01*
X61009523Y-68300714D02*
X61104761Y-68348333D01*
%TO.C,D1*%
X72738094Y-59262619D02*
X72738094Y-58262619D01*
X72738094Y-58262619D02*
X72499999Y-58262619D01*
X72499999Y-58262619D02*
X72357142Y-58310238D01*
X72357142Y-58310238D02*
X72261904Y-58405476D01*
X72261904Y-58405476D02*
X72214285Y-58500714D01*
X72214285Y-58500714D02*
X72166666Y-58691190D01*
X72166666Y-58691190D02*
X72166666Y-58834047D01*
X72166666Y-58834047D02*
X72214285Y-59024523D01*
X72214285Y-59024523D02*
X72261904Y-59119761D01*
X72261904Y-59119761D02*
X72357142Y-59215000D01*
X72357142Y-59215000D02*
X72499999Y-59262619D01*
X72499999Y-59262619D02*
X72738094Y-59262619D01*
X71214285Y-59262619D02*
X71785713Y-59262619D01*
X71499999Y-59262619D02*
X71499999Y-58262619D01*
X71499999Y-58262619D02*
X71595237Y-58405476D01*
X71595237Y-58405476D02*
X71690475Y-58500714D01*
X71690475Y-58500714D02*
X71785713Y-58548333D01*
%TO.C,R2*%
X49766666Y-52862619D02*
X50099999Y-52386428D01*
X50338094Y-52862619D02*
X50338094Y-51862619D01*
X50338094Y-51862619D02*
X49957142Y-51862619D01*
X49957142Y-51862619D02*
X49861904Y-51910238D01*
X49861904Y-51910238D02*
X49814285Y-51957857D01*
X49814285Y-51957857D02*
X49766666Y-52053095D01*
X49766666Y-52053095D02*
X49766666Y-52195952D01*
X49766666Y-52195952D02*
X49814285Y-52291190D01*
X49814285Y-52291190D02*
X49861904Y-52338809D01*
X49861904Y-52338809D02*
X49957142Y-52386428D01*
X49957142Y-52386428D02*
X50338094Y-52386428D01*
X49385713Y-51957857D02*
X49338094Y-51910238D01*
X49338094Y-51910238D02*
X49242856Y-51862619D01*
X49242856Y-51862619D02*
X49004761Y-51862619D01*
X49004761Y-51862619D02*
X48909523Y-51910238D01*
X48909523Y-51910238D02*
X48861904Y-51957857D01*
X48861904Y-51957857D02*
X48814285Y-52053095D01*
X48814285Y-52053095D02*
X48814285Y-52148333D01*
X48814285Y-52148333D02*
X48861904Y-52291190D01*
X48861904Y-52291190D02*
X49433332Y-52862619D01*
X49433332Y-52862619D02*
X48814285Y-52862619D01*
%TO.C,R1*%
X72366666Y-52862619D02*
X72699999Y-52386428D01*
X72938094Y-52862619D02*
X72938094Y-51862619D01*
X72938094Y-51862619D02*
X72557142Y-51862619D01*
X72557142Y-51862619D02*
X72461904Y-51910238D01*
X72461904Y-51910238D02*
X72414285Y-51957857D01*
X72414285Y-51957857D02*
X72366666Y-52053095D01*
X72366666Y-52053095D02*
X72366666Y-52195952D01*
X72366666Y-52195952D02*
X72414285Y-52291190D01*
X72414285Y-52291190D02*
X72461904Y-52338809D01*
X72461904Y-52338809D02*
X72557142Y-52386428D01*
X72557142Y-52386428D02*
X72938094Y-52386428D01*
X71414285Y-52862619D02*
X71985713Y-52862619D01*
X71699999Y-52862619D02*
X71699999Y-51862619D01*
X71699999Y-51862619D02*
X71795237Y-52005476D01*
X71795237Y-52005476D02*
X71890475Y-52100714D01*
X71890475Y-52100714D02*
X71985713Y-52148333D01*
D11*
%TO.C,D2*%
X48465000Y-64747500D02*
X48465000Y-60687500D01*
X50735000Y-64747500D02*
X48465000Y-64747500D01*
X50735000Y-60687500D02*
X50735000Y-64747500D01*
%TO.C,J1*%
X69931000Y-53548000D02*
X69423000Y-53040000D01*
X69931000Y-52532000D02*
X69931000Y-53548000D01*
X69423000Y-53040000D02*
X69931000Y-52532000D01*
X69055000Y-64190000D02*
X69055000Y-67630000D01*
X69055000Y-48760000D02*
X69055000Y-60690000D01*
X53035000Y-67630000D02*
X69055000Y-67630000D01*
X53035000Y-64190000D02*
X53035000Y-67630000D01*
X53035000Y-48760000D02*
X69055000Y-48760000D01*
X53035000Y-48760000D02*
X53035000Y-60690000D01*
%TO.C,D1*%
X71065000Y-64660000D02*
X71065000Y-60600000D01*
X73335000Y-64660000D02*
X71065000Y-64660000D01*
X73335000Y-60600000D02*
X73335000Y-64660000D01*
%TO.C,R2*%
X48690000Y-56327064D02*
X48690000Y-54872936D01*
X50510000Y-56327064D02*
X50510000Y-54872936D01*
%TO.C,R1*%
X71290000Y-56327064D02*
X71290000Y-54872936D01*
X73110000Y-56327064D02*
X73110000Y-54872936D01*
%TD*%
M02*
