%TF.GenerationSoftware,KiCad,Pcbnew,7.0.2-6a45011f42~172~ubuntu22.04.1*%
%TF.CreationDate,2023-07-12T14:03:09-05:00*%
%TF.ProjectId,Encoder,456e636f-6465-4722-9e6b-696361645f70,rev?*%
%TF.SameCoordinates,Original*%
%TF.FileFunction,AssemblyDrawing,Bot*%
%FSLAX46Y46*%
G04 Gerber Fmt 4.6, Leading zero omitted, Abs format (unit mm)*
G04 Created by KiCad (PCBNEW 7.0.2-6a45011f42~172~ubuntu22.04.1) date 2023-07-12 14:03:09*
%MOMM*%
%LPD*%
G01*
G04 APERTURE LIST*
%ADD10C,0.150000*%
%ADD11C,0.120000*%
%ADD12C,0.100000*%
G04 APERTURE END LIST*
D10*
%TO.C,D2*%
X53242857Y-62750119D02*
X53719047Y-62750119D01*
X53719047Y-62750119D02*
X53719047Y-61750119D01*
X52909523Y-62226309D02*
X52576190Y-62226309D01*
X52433333Y-62750119D02*
X52909523Y-62750119D01*
X52909523Y-62750119D02*
X52909523Y-61750119D01*
X52909523Y-61750119D02*
X52433333Y-61750119D01*
X52004761Y-62750119D02*
X52004761Y-61750119D01*
X52004761Y-61750119D02*
X51766666Y-61750119D01*
X51766666Y-61750119D02*
X51623809Y-61797738D01*
X51623809Y-61797738D02*
X51528571Y-61892976D01*
X51528571Y-61892976D02*
X51480952Y-61988214D01*
X51480952Y-61988214D02*
X51433333Y-62178690D01*
X51433333Y-62178690D02*
X51433333Y-62321547D01*
X51433333Y-62321547D02*
X51480952Y-62512023D01*
X51480952Y-62512023D02*
X51528571Y-62607261D01*
X51528571Y-62607261D02*
X51623809Y-62702500D01*
X51623809Y-62702500D02*
X51766666Y-62750119D01*
X51766666Y-62750119D02*
X52004761Y-62750119D01*
D11*
X49970095Y-61697024D02*
X49170095Y-61697024D01*
X49170095Y-61697024D02*
X49170095Y-61887500D01*
X49170095Y-61887500D02*
X49208190Y-62001786D01*
X49208190Y-62001786D02*
X49284380Y-62077976D01*
X49284380Y-62077976D02*
X49360571Y-62116071D01*
X49360571Y-62116071D02*
X49512952Y-62154167D01*
X49512952Y-62154167D02*
X49627238Y-62154167D01*
X49627238Y-62154167D02*
X49779619Y-62116071D01*
X49779619Y-62116071D02*
X49855809Y-62077976D01*
X49855809Y-62077976D02*
X49932000Y-62001786D01*
X49932000Y-62001786D02*
X49970095Y-61887500D01*
X49970095Y-61887500D02*
X49970095Y-61697024D01*
X49246285Y-62458928D02*
X49208190Y-62497024D01*
X49208190Y-62497024D02*
X49170095Y-62573214D01*
X49170095Y-62573214D02*
X49170095Y-62763690D01*
X49170095Y-62763690D02*
X49208190Y-62839881D01*
X49208190Y-62839881D02*
X49246285Y-62877976D01*
X49246285Y-62877976D02*
X49322476Y-62916071D01*
X49322476Y-62916071D02*
X49398666Y-62916071D01*
X49398666Y-62916071D02*
X49512952Y-62877976D01*
X49512952Y-62877976D02*
X49970095Y-62420833D01*
X49970095Y-62420833D02*
X49970095Y-62916071D01*
D10*
%TO.C,J1*%
X65630238Y-66762619D02*
X65963571Y-66286428D01*
X66201666Y-66762619D02*
X66201666Y-65762619D01*
X66201666Y-65762619D02*
X65820714Y-65762619D01*
X65820714Y-65762619D02*
X65725476Y-65810238D01*
X65725476Y-65810238D02*
X65677857Y-65857857D01*
X65677857Y-65857857D02*
X65630238Y-65953095D01*
X65630238Y-65953095D02*
X65630238Y-66095952D01*
X65630238Y-66095952D02*
X65677857Y-66191190D01*
X65677857Y-66191190D02*
X65725476Y-66238809D01*
X65725476Y-66238809D02*
X65820714Y-66286428D01*
X65820714Y-66286428D02*
X66201666Y-66286428D01*
X64915952Y-65762619D02*
X64915952Y-66476904D01*
X64915952Y-66476904D02*
X64963571Y-66619761D01*
X64963571Y-66619761D02*
X65058809Y-66715000D01*
X65058809Y-66715000D02*
X65201666Y-66762619D01*
X65201666Y-66762619D02*
X65296904Y-66762619D01*
X64011190Y-66095952D02*
X64011190Y-66762619D01*
X64249285Y-65715000D02*
X64487380Y-66429285D01*
X64487380Y-66429285D02*
X63868333Y-66429285D01*
X63011190Y-65762619D02*
X63487380Y-65762619D01*
X63487380Y-65762619D02*
X63534999Y-66238809D01*
X63534999Y-66238809D02*
X63487380Y-66191190D01*
X63487380Y-66191190D02*
X63392142Y-66143571D01*
X63392142Y-66143571D02*
X63154047Y-66143571D01*
X63154047Y-66143571D02*
X63058809Y-66191190D01*
X63058809Y-66191190D02*
X63011190Y-66238809D01*
X63011190Y-66238809D02*
X62963571Y-66334047D01*
X62963571Y-66334047D02*
X62963571Y-66572142D01*
X62963571Y-66572142D02*
X63011190Y-66667380D01*
X63011190Y-66667380D02*
X63058809Y-66715000D01*
X63058809Y-66715000D02*
X63154047Y-66762619D01*
X63154047Y-66762619D02*
X63392142Y-66762619D01*
X63392142Y-66762619D02*
X63487380Y-66715000D01*
X63487380Y-66715000D02*
X63534999Y-66667380D01*
X62773095Y-66857857D02*
X62011190Y-66857857D01*
X61820713Y-66715000D02*
X61677856Y-66762619D01*
X61677856Y-66762619D02*
X61439761Y-66762619D01*
X61439761Y-66762619D02*
X61344523Y-66715000D01*
X61344523Y-66715000D02*
X61296904Y-66667380D01*
X61296904Y-66667380D02*
X61249285Y-66572142D01*
X61249285Y-66572142D02*
X61249285Y-66476904D01*
X61249285Y-66476904D02*
X61296904Y-66381666D01*
X61296904Y-66381666D02*
X61344523Y-66334047D01*
X61344523Y-66334047D02*
X61439761Y-66286428D01*
X61439761Y-66286428D02*
X61630237Y-66238809D01*
X61630237Y-66238809D02*
X61725475Y-66191190D01*
X61725475Y-66191190D02*
X61773094Y-66143571D01*
X61773094Y-66143571D02*
X61820713Y-66048333D01*
X61820713Y-66048333D02*
X61820713Y-65953095D01*
X61820713Y-65953095D02*
X61773094Y-65857857D01*
X61773094Y-65857857D02*
X61725475Y-65810238D01*
X61725475Y-65810238D02*
X61630237Y-65762619D01*
X61630237Y-65762619D02*
X61392142Y-65762619D01*
X61392142Y-65762619D02*
X61249285Y-65810238D01*
X60820713Y-66762619D02*
X60820713Y-65762619D01*
X60392142Y-66762619D02*
X60392142Y-66238809D01*
X60392142Y-66238809D02*
X60439761Y-66143571D01*
X60439761Y-66143571D02*
X60534999Y-66095952D01*
X60534999Y-66095952D02*
X60677856Y-66095952D01*
X60677856Y-66095952D02*
X60773094Y-66143571D01*
X60773094Y-66143571D02*
X60820713Y-66191190D01*
X59915951Y-66762619D02*
X59915951Y-66095952D01*
X59915951Y-65762619D02*
X59963570Y-65810238D01*
X59963570Y-65810238D02*
X59915951Y-65857857D01*
X59915951Y-65857857D02*
X59868332Y-65810238D01*
X59868332Y-65810238D02*
X59915951Y-65762619D01*
X59915951Y-65762619D02*
X59915951Y-65857857D01*
X59058809Y-66715000D02*
X59154047Y-66762619D01*
X59154047Y-66762619D02*
X59344523Y-66762619D01*
X59344523Y-66762619D02*
X59439761Y-66715000D01*
X59439761Y-66715000D02*
X59487380Y-66619761D01*
X59487380Y-66619761D02*
X59487380Y-66238809D01*
X59487380Y-66238809D02*
X59439761Y-66143571D01*
X59439761Y-66143571D02*
X59344523Y-66095952D01*
X59344523Y-66095952D02*
X59154047Y-66095952D01*
X59154047Y-66095952D02*
X59058809Y-66143571D01*
X59058809Y-66143571D02*
X59011190Y-66238809D01*
X59011190Y-66238809D02*
X59011190Y-66334047D01*
X59011190Y-66334047D02*
X59487380Y-66429285D01*
X58439761Y-66762619D02*
X58534999Y-66715000D01*
X58534999Y-66715000D02*
X58582618Y-66619761D01*
X58582618Y-66619761D02*
X58582618Y-65762619D01*
X57630237Y-66762619D02*
X57630237Y-65762619D01*
X57630237Y-66715000D02*
X57725475Y-66762619D01*
X57725475Y-66762619D02*
X57915951Y-66762619D01*
X57915951Y-66762619D02*
X58011189Y-66715000D01*
X58011189Y-66715000D02*
X58058808Y-66667380D01*
X58058808Y-66667380D02*
X58106427Y-66572142D01*
X58106427Y-66572142D02*
X58106427Y-66286428D01*
X58106427Y-66286428D02*
X58058808Y-66191190D01*
X58058808Y-66191190D02*
X58011189Y-66143571D01*
X58011189Y-66143571D02*
X57915951Y-66095952D01*
X57915951Y-66095952D02*
X57725475Y-66095952D01*
X57725475Y-66095952D02*
X57630237Y-66143571D01*
X56773094Y-66715000D02*
X56868332Y-66762619D01*
X56868332Y-66762619D02*
X57058808Y-66762619D01*
X57058808Y-66762619D02*
X57154046Y-66715000D01*
X57154046Y-66715000D02*
X57201665Y-66619761D01*
X57201665Y-66619761D02*
X57201665Y-66238809D01*
X57201665Y-66238809D02*
X57154046Y-66143571D01*
X57154046Y-66143571D02*
X57058808Y-66095952D01*
X57058808Y-66095952D02*
X56868332Y-66095952D01*
X56868332Y-66095952D02*
X56773094Y-66143571D01*
X56773094Y-66143571D02*
X56725475Y-66238809D01*
X56725475Y-66238809D02*
X56725475Y-66334047D01*
X56725475Y-66334047D02*
X57201665Y-66429285D01*
X55868332Y-66762619D02*
X55868332Y-65762619D01*
X55868332Y-66715000D02*
X55963570Y-66762619D01*
X55963570Y-66762619D02*
X56154046Y-66762619D01*
X56154046Y-66762619D02*
X56249284Y-66715000D01*
X56249284Y-66715000D02*
X56296903Y-66667380D01*
X56296903Y-66667380D02*
X56344522Y-66572142D01*
X56344522Y-66572142D02*
X56344522Y-66286428D01*
X56344522Y-66286428D02*
X56296903Y-66191190D01*
X56296903Y-66191190D02*
X56249284Y-66143571D01*
X56249284Y-66143571D02*
X56154046Y-66095952D01*
X56154046Y-66095952D02*
X55963570Y-66095952D01*
X55963570Y-66095952D02*
X55868332Y-66143571D01*
X61378333Y-58862619D02*
X61378333Y-59576904D01*
X61378333Y-59576904D02*
X61425952Y-59719761D01*
X61425952Y-59719761D02*
X61521190Y-59815000D01*
X61521190Y-59815000D02*
X61664047Y-59862619D01*
X61664047Y-59862619D02*
X61759285Y-59862619D01*
X60378333Y-59862619D02*
X60949761Y-59862619D01*
X60664047Y-59862619D02*
X60664047Y-58862619D01*
X60664047Y-58862619D02*
X60759285Y-59005476D01*
X60759285Y-59005476D02*
X60854523Y-59100714D01*
X60854523Y-59100714D02*
X60949761Y-59148333D01*
%TO.C,D1*%
X69662619Y-61628571D02*
X69186428Y-61295238D01*
X69662619Y-61057143D02*
X68662619Y-61057143D01*
X68662619Y-61057143D02*
X68662619Y-61438095D01*
X68662619Y-61438095D02*
X68710238Y-61533333D01*
X68710238Y-61533333D02*
X68757857Y-61580952D01*
X68757857Y-61580952D02*
X68853095Y-61628571D01*
X68853095Y-61628571D02*
X68995952Y-61628571D01*
X68995952Y-61628571D02*
X69091190Y-61580952D01*
X69091190Y-61580952D02*
X69138809Y-61533333D01*
X69138809Y-61533333D02*
X69186428Y-61438095D01*
X69186428Y-61438095D02*
X69186428Y-61057143D01*
X69615000Y-62438095D02*
X69662619Y-62342857D01*
X69662619Y-62342857D02*
X69662619Y-62152381D01*
X69662619Y-62152381D02*
X69615000Y-62057143D01*
X69615000Y-62057143D02*
X69519761Y-62009524D01*
X69519761Y-62009524D02*
X69138809Y-62009524D01*
X69138809Y-62009524D02*
X69043571Y-62057143D01*
X69043571Y-62057143D02*
X68995952Y-62152381D01*
X68995952Y-62152381D02*
X68995952Y-62342857D01*
X68995952Y-62342857D02*
X69043571Y-62438095D01*
X69043571Y-62438095D02*
X69138809Y-62485714D01*
X69138809Y-62485714D02*
X69234047Y-62485714D01*
X69234047Y-62485714D02*
X69329285Y-62009524D01*
X69662619Y-63342857D02*
X68662619Y-63342857D01*
X69615000Y-63342857D02*
X69662619Y-63247619D01*
X69662619Y-63247619D02*
X69662619Y-63057143D01*
X69662619Y-63057143D02*
X69615000Y-62961905D01*
X69615000Y-62961905D02*
X69567380Y-62914286D01*
X69567380Y-62914286D02*
X69472142Y-62866667D01*
X69472142Y-62866667D02*
X69186428Y-62866667D01*
X69186428Y-62866667D02*
X69091190Y-62914286D01*
X69091190Y-62914286D02*
X69043571Y-62961905D01*
X69043571Y-62961905D02*
X68995952Y-63057143D01*
X68995952Y-63057143D02*
X68995952Y-63247619D01*
X68995952Y-63247619D02*
X69043571Y-63342857D01*
D11*
X72570095Y-61609524D02*
X71770095Y-61609524D01*
X71770095Y-61609524D02*
X71770095Y-61800000D01*
X71770095Y-61800000D02*
X71808190Y-61914286D01*
X71808190Y-61914286D02*
X71884380Y-61990476D01*
X71884380Y-61990476D02*
X71960571Y-62028571D01*
X71960571Y-62028571D02*
X72112952Y-62066667D01*
X72112952Y-62066667D02*
X72227238Y-62066667D01*
X72227238Y-62066667D02*
X72379619Y-62028571D01*
X72379619Y-62028571D02*
X72455809Y-61990476D01*
X72455809Y-61990476D02*
X72532000Y-61914286D01*
X72532000Y-61914286D02*
X72570095Y-61800000D01*
X72570095Y-61800000D02*
X72570095Y-61609524D01*
X72570095Y-62828571D02*
X72570095Y-62371428D01*
X72570095Y-62600000D02*
X71770095Y-62600000D01*
X71770095Y-62600000D02*
X71884380Y-62523809D01*
X71884380Y-62523809D02*
X71960571Y-62447619D01*
X71960571Y-62447619D02*
X71998666Y-62371428D01*
D10*
%TO.C,R2*%
X47242619Y-55314285D02*
X47242619Y-55123809D01*
X47242619Y-55123809D02*
X47290238Y-55028571D01*
X47290238Y-55028571D02*
X47337857Y-54980952D01*
X47337857Y-54980952D02*
X47480714Y-54885714D01*
X47480714Y-54885714D02*
X47671190Y-54838095D01*
X47671190Y-54838095D02*
X48052142Y-54838095D01*
X48052142Y-54838095D02*
X48147380Y-54885714D01*
X48147380Y-54885714D02*
X48195000Y-54933333D01*
X48195000Y-54933333D02*
X48242619Y-55028571D01*
X48242619Y-55028571D02*
X48242619Y-55219047D01*
X48242619Y-55219047D02*
X48195000Y-55314285D01*
X48195000Y-55314285D02*
X48147380Y-55361904D01*
X48147380Y-55361904D02*
X48052142Y-55409523D01*
X48052142Y-55409523D02*
X47814047Y-55409523D01*
X47814047Y-55409523D02*
X47718809Y-55361904D01*
X47718809Y-55361904D02*
X47671190Y-55314285D01*
X47671190Y-55314285D02*
X47623571Y-55219047D01*
X47623571Y-55219047D02*
X47623571Y-55028571D01*
X47623571Y-55028571D02*
X47671190Y-54933333D01*
X47671190Y-54933333D02*
X47718809Y-54885714D01*
X47718809Y-54885714D02*
X47814047Y-54838095D01*
X47242619Y-56314285D02*
X47242619Y-55838095D01*
X47242619Y-55838095D02*
X47718809Y-55790476D01*
X47718809Y-55790476D02*
X47671190Y-55838095D01*
X47671190Y-55838095D02*
X47623571Y-55933333D01*
X47623571Y-55933333D02*
X47623571Y-56171428D01*
X47623571Y-56171428D02*
X47671190Y-56266666D01*
X47671190Y-56266666D02*
X47718809Y-56314285D01*
X47718809Y-56314285D02*
X47814047Y-56361904D01*
X47814047Y-56361904D02*
X48052142Y-56361904D01*
X48052142Y-56361904D02*
X48147380Y-56314285D01*
X48147380Y-56314285D02*
X48195000Y-56266666D01*
X48195000Y-56266666D02*
X48242619Y-56171428D01*
X48242619Y-56171428D02*
X48242619Y-55933333D01*
X48242619Y-55933333D02*
X48195000Y-55838095D01*
X48195000Y-55838095D02*
X48147380Y-55790476D01*
D11*
X46233332Y-55520095D02*
X46499999Y-55139142D01*
X46690475Y-55520095D02*
X46690475Y-54720095D01*
X46690475Y-54720095D02*
X46385713Y-54720095D01*
X46385713Y-54720095D02*
X46309523Y-54758190D01*
X46309523Y-54758190D02*
X46271428Y-54796285D01*
X46271428Y-54796285D02*
X46233332Y-54872476D01*
X46233332Y-54872476D02*
X46233332Y-54986761D01*
X46233332Y-54986761D02*
X46271428Y-55062952D01*
X46271428Y-55062952D02*
X46309523Y-55101047D01*
X46309523Y-55101047D02*
X46385713Y-55139142D01*
X46385713Y-55139142D02*
X46690475Y-55139142D01*
X45928571Y-54796285D02*
X45890475Y-54758190D01*
X45890475Y-54758190D02*
X45814285Y-54720095D01*
X45814285Y-54720095D02*
X45623809Y-54720095D01*
X45623809Y-54720095D02*
X45547618Y-54758190D01*
X45547618Y-54758190D02*
X45509523Y-54796285D01*
X45509523Y-54796285D02*
X45471428Y-54872476D01*
X45471428Y-54872476D02*
X45471428Y-54948666D01*
X45471428Y-54948666D02*
X45509523Y-55062952D01*
X45509523Y-55062952D02*
X45966666Y-55520095D01*
X45966666Y-55520095D02*
X45471428Y-55520095D01*
D10*
%TO.C,R1*%
X69842619Y-55314285D02*
X69842619Y-55123809D01*
X69842619Y-55123809D02*
X69890238Y-55028571D01*
X69890238Y-55028571D02*
X69937857Y-54980952D01*
X69937857Y-54980952D02*
X70080714Y-54885714D01*
X70080714Y-54885714D02*
X70271190Y-54838095D01*
X70271190Y-54838095D02*
X70652142Y-54838095D01*
X70652142Y-54838095D02*
X70747380Y-54885714D01*
X70747380Y-54885714D02*
X70795000Y-54933333D01*
X70795000Y-54933333D02*
X70842619Y-55028571D01*
X70842619Y-55028571D02*
X70842619Y-55219047D01*
X70842619Y-55219047D02*
X70795000Y-55314285D01*
X70795000Y-55314285D02*
X70747380Y-55361904D01*
X70747380Y-55361904D02*
X70652142Y-55409523D01*
X70652142Y-55409523D02*
X70414047Y-55409523D01*
X70414047Y-55409523D02*
X70318809Y-55361904D01*
X70318809Y-55361904D02*
X70271190Y-55314285D01*
X70271190Y-55314285D02*
X70223571Y-55219047D01*
X70223571Y-55219047D02*
X70223571Y-55028571D01*
X70223571Y-55028571D02*
X70271190Y-54933333D01*
X70271190Y-54933333D02*
X70318809Y-54885714D01*
X70318809Y-54885714D02*
X70414047Y-54838095D01*
X69842619Y-56314285D02*
X69842619Y-55838095D01*
X69842619Y-55838095D02*
X70318809Y-55790476D01*
X70318809Y-55790476D02*
X70271190Y-55838095D01*
X70271190Y-55838095D02*
X70223571Y-55933333D01*
X70223571Y-55933333D02*
X70223571Y-56171428D01*
X70223571Y-56171428D02*
X70271190Y-56266666D01*
X70271190Y-56266666D02*
X70318809Y-56314285D01*
X70318809Y-56314285D02*
X70414047Y-56361904D01*
X70414047Y-56361904D02*
X70652142Y-56361904D01*
X70652142Y-56361904D02*
X70747380Y-56314285D01*
X70747380Y-56314285D02*
X70795000Y-56266666D01*
X70795000Y-56266666D02*
X70842619Y-56171428D01*
X70842619Y-56171428D02*
X70842619Y-55933333D01*
X70842619Y-55933333D02*
X70795000Y-55838095D01*
X70795000Y-55838095D02*
X70747380Y-55790476D01*
D11*
X72570095Y-55466667D02*
X72189142Y-55200000D01*
X72570095Y-55009524D02*
X71770095Y-55009524D01*
X71770095Y-55009524D02*
X71770095Y-55314286D01*
X71770095Y-55314286D02*
X71808190Y-55390476D01*
X71808190Y-55390476D02*
X71846285Y-55428571D01*
X71846285Y-55428571D02*
X71922476Y-55466667D01*
X71922476Y-55466667D02*
X72036761Y-55466667D01*
X72036761Y-55466667D02*
X72112952Y-55428571D01*
X72112952Y-55428571D02*
X72151047Y-55390476D01*
X72151047Y-55390476D02*
X72189142Y-55314286D01*
X72189142Y-55314286D02*
X72189142Y-55009524D01*
X72570095Y-56228571D02*
X72570095Y-55771428D01*
X72570095Y-56000000D02*
X71770095Y-56000000D01*
X71770095Y-56000000D02*
X71884380Y-55923809D01*
X71884380Y-55923809D02*
X71960571Y-55847619D01*
X71960571Y-55847619D02*
X71998666Y-55771428D01*
D12*
%TO.C,D2*%
X48800000Y-63887500D02*
X48800000Y-60687500D01*
X50000000Y-63887500D02*
X48800000Y-63887500D01*
X50400000Y-63487500D02*
X50000000Y-63887500D01*
X48800000Y-60687500D02*
X50400000Y-60687500D01*
X50400000Y-60687500D02*
X50400000Y-63487500D01*
%TO.C,J1*%
X68945000Y-50200000D02*
X68945000Y-67520000D01*
X68945000Y-50200000D02*
X67615000Y-48870000D01*
X53145000Y-67520000D02*
X68945000Y-67520000D01*
X53145000Y-67520000D02*
X53145000Y-48870000D01*
X53145000Y-48870000D02*
X67615000Y-48870000D01*
%TO.C,D1*%
X71400000Y-63800000D02*
X71400000Y-60600000D01*
X72600000Y-63800000D02*
X71400000Y-63800000D01*
X73000000Y-63400000D02*
X72600000Y-63800000D01*
X71400000Y-60600000D02*
X73000000Y-60600000D01*
X73000000Y-60600000D02*
X73000000Y-63400000D01*
%TO.C,R2*%
X48800000Y-57200000D02*
X50400000Y-57200000D01*
X50400000Y-57200000D02*
X50400000Y-54000000D01*
X48800000Y-54000000D02*
X48800000Y-57200000D01*
X50400000Y-54000000D02*
X48800000Y-54000000D01*
%TO.C,R1*%
X71400000Y-57200000D02*
X73000000Y-57200000D01*
X73000000Y-57200000D02*
X73000000Y-54000000D01*
X71400000Y-54000000D02*
X71400000Y-57200000D01*
X73000000Y-54000000D02*
X71400000Y-54000000D01*
%TD*%
M02*
