%TF.GenerationSoftware,KiCad,Pcbnew,7.0.2-6a45011f42~172~ubuntu22.04.1*%
%TF.CreationDate,2023-07-12T14:03:09-05:00*%
%TF.ProjectId,Encoder,456e636f-6465-4722-9e6b-696361645f70,rev?*%
%TF.SameCoordinates,Original*%
%TF.FileFunction,Legend,Top*%
%TF.FilePolarity,Positive*%
%FSLAX46Y46*%
G04 Gerber Fmt 4.6, Leading zero omitted, Abs format (unit mm)*
G04 Created by KiCad (PCBNEW 7.0.2-6a45011f42~172~ubuntu22.04.1) date 2023-07-12 14:03:09*
%MOMM*%
%LPD*%
G01*
G04 APERTURE LIST*
%ADD10C,0.150000*%
%ADD11C,0.120000*%
G04 APERTURE END LIST*
D10*
%TO.C,C1*%
X56429880Y-66866666D02*
X56477500Y-66914285D01*
X56477500Y-66914285D02*
X56525119Y-67057142D01*
X56525119Y-67057142D02*
X56525119Y-67152380D01*
X56525119Y-67152380D02*
X56477500Y-67295237D01*
X56477500Y-67295237D02*
X56382261Y-67390475D01*
X56382261Y-67390475D02*
X56287023Y-67438094D01*
X56287023Y-67438094D02*
X56096547Y-67485713D01*
X56096547Y-67485713D02*
X55953690Y-67485713D01*
X55953690Y-67485713D02*
X55763214Y-67438094D01*
X55763214Y-67438094D02*
X55667976Y-67390475D01*
X55667976Y-67390475D02*
X55572738Y-67295237D01*
X55572738Y-67295237D02*
X55525119Y-67152380D01*
X55525119Y-67152380D02*
X55525119Y-67057142D01*
X55525119Y-67057142D02*
X55572738Y-66914285D01*
X55572738Y-66914285D02*
X55620357Y-66866666D01*
X56525119Y-65914285D02*
X56525119Y-66485713D01*
X56525119Y-66199999D02*
X55525119Y-66199999D01*
X55525119Y-66199999D02*
X55667976Y-66295237D01*
X55667976Y-66295237D02*
X55763214Y-66390475D01*
X55763214Y-66390475D02*
X55810833Y-66485713D01*
D11*
X56710000Y-63053733D02*
X56710000Y-63346267D01*
X55690000Y-63053733D02*
X55690000Y-63346267D01*
%TO.C,U1*%
X61000000Y-63110000D02*
X64600000Y-63110000D01*
X61000000Y-63110000D02*
X58800000Y-63110000D01*
X61000000Y-57890000D02*
X63200000Y-57890000D01*
X61000000Y-57890000D02*
X58800000Y-57890000D01*
%TD*%
M02*
