%TF.GenerationSoftware,KiCad,Pcbnew,7.0.2-6a45011f42~172~ubuntu22.04.1*%
%TF.CreationDate,2023-07-12T13:58:45-05:00*%
%TF.ProjectId,Encoder,456e636f-6465-4722-9e6b-696361645f70,rev?*%
%TF.SameCoordinates,Original*%
%TF.FileFunction,Drillmap*%
%TF.FilePolarity,Positive*%
%FSLAX45Y45*%
G04 Gerber Fmt 4.5, Leading zero omitted, Abs format (unit mm)*
G04 Created by KiCad (PCBNEW 7.0.2-6a45011f42~172~ubuntu22.04.1) date 2023-07-12 13:58:45*
%MOMM*%
%LPD*%
G01*
G04 APERTURE LIST*
%ADD10C,0.100000*%
%ADD11C,0.200000*%
%ADD12C,0.040000*%
%ADD13C,0.090000*%
%ADD14C,0.160000*%
G04 APERTURE END LIST*
D10*
X7360000Y-5000000D02*
G75*
G03*
X7360000Y-5000000I-160000J0D01*
G01*
X5160000Y-5000000D02*
G75*
G03*
X5160000Y-5000000I-160000J0D01*
G01*
X4800000Y-4800000D02*
X7400000Y-4800000D01*
X7400000Y-7300000D01*
X4800000Y-7300000D01*
X4800000Y-4800000D01*
X5160000Y-7100000D02*
G75*
G03*
X5160000Y-7100000I-160000J0D01*
G01*
X7360000Y-7100000D02*
G75*
G03*
X7360000Y-7100000I-160000J0D01*
G01*
D11*
D12*
X5520000Y-5620000D02*
X5560000Y-5660000D01*
X5560000Y-5620000D02*
X5520000Y-5660000D01*
D13*
X5705000Y-5050000D02*
G75*
G03*
X5705000Y-5050000I-45000J0D01*
G01*
X5832000Y-5304000D02*
G75*
G03*
X5832000Y-5304000I-45000J0D01*
G01*
X5959000Y-5050000D02*
G75*
G03*
X5959000Y-5050000I-45000J0D01*
G01*
X6086000Y-5304000D02*
G75*
G03*
X6086000Y-5304000I-45000J0D01*
G01*
X6213000Y-5050000D02*
G75*
G03*
X6213000Y-5050000I-45000J0D01*
G01*
X6340000Y-5304000D02*
G75*
G03*
X6340000Y-5304000I-45000J0D01*
G01*
X6467000Y-5050000D02*
G75*
G03*
X6467000Y-5050000I-45000J0D01*
G01*
X6594000Y-5304000D02*
G75*
G03*
X6594000Y-5304000I-45000J0D01*
G01*
D14*
X5327500Y-6164000D02*
X5327500Y-6324000D01*
X5247500Y-6244000D02*
X5407500Y-6244000D01*
X6881500Y-6164000D02*
X6881500Y-6324000D01*
X6801500Y-6244000D02*
X6961500Y-6244000D01*
D11*
X5042619Y-7617524D02*
X5042619Y-7417524D01*
X5042619Y-7417524D02*
X5090238Y-7417524D01*
X5090238Y-7417524D02*
X5118810Y-7427048D01*
X5118810Y-7427048D02*
X5137857Y-7446095D01*
X5137857Y-7446095D02*
X5147381Y-7465143D01*
X5147381Y-7465143D02*
X5156905Y-7503238D01*
X5156905Y-7503238D02*
X5156905Y-7531809D01*
X5156905Y-7531809D02*
X5147381Y-7569905D01*
X5147381Y-7569905D02*
X5137857Y-7588952D01*
X5137857Y-7588952D02*
X5118810Y-7608000D01*
X5118810Y-7608000D02*
X5090238Y-7617524D01*
X5090238Y-7617524D02*
X5042619Y-7617524D01*
X5242619Y-7617524D02*
X5242619Y-7484190D01*
X5242619Y-7522286D02*
X5252143Y-7503238D01*
X5252143Y-7503238D02*
X5261667Y-7493714D01*
X5261667Y-7493714D02*
X5280714Y-7484190D01*
X5280714Y-7484190D02*
X5299762Y-7484190D01*
X5366429Y-7617524D02*
X5366429Y-7484190D01*
X5366429Y-7417524D02*
X5356905Y-7427048D01*
X5356905Y-7427048D02*
X5366429Y-7436571D01*
X5366429Y-7436571D02*
X5375952Y-7427048D01*
X5375952Y-7427048D02*
X5366429Y-7417524D01*
X5366429Y-7417524D02*
X5366429Y-7436571D01*
X5490238Y-7617524D02*
X5471190Y-7608000D01*
X5471190Y-7608000D02*
X5461667Y-7588952D01*
X5461667Y-7588952D02*
X5461667Y-7417524D01*
X5595000Y-7617524D02*
X5575952Y-7608000D01*
X5575952Y-7608000D02*
X5566429Y-7588952D01*
X5566429Y-7588952D02*
X5566429Y-7417524D01*
X5823571Y-7617524D02*
X5823571Y-7417524D01*
X5823571Y-7417524D02*
X5890238Y-7560381D01*
X5890238Y-7560381D02*
X5956905Y-7417524D01*
X5956905Y-7417524D02*
X5956905Y-7617524D01*
X6137857Y-7617524D02*
X6137857Y-7512762D01*
X6137857Y-7512762D02*
X6128333Y-7493714D01*
X6128333Y-7493714D02*
X6109286Y-7484190D01*
X6109286Y-7484190D02*
X6071190Y-7484190D01*
X6071190Y-7484190D02*
X6052143Y-7493714D01*
X6137857Y-7608000D02*
X6118809Y-7617524D01*
X6118809Y-7617524D02*
X6071190Y-7617524D01*
X6071190Y-7617524D02*
X6052143Y-7608000D01*
X6052143Y-7608000D02*
X6042619Y-7588952D01*
X6042619Y-7588952D02*
X6042619Y-7569905D01*
X6042619Y-7569905D02*
X6052143Y-7550857D01*
X6052143Y-7550857D02*
X6071190Y-7541333D01*
X6071190Y-7541333D02*
X6118809Y-7541333D01*
X6118809Y-7541333D02*
X6137857Y-7531809D01*
X6233095Y-7484190D02*
X6233095Y-7684190D01*
X6233095Y-7493714D02*
X6252143Y-7484190D01*
X6252143Y-7484190D02*
X6290238Y-7484190D01*
X6290238Y-7484190D02*
X6309286Y-7493714D01*
X6309286Y-7493714D02*
X6318809Y-7503238D01*
X6318809Y-7503238D02*
X6328333Y-7522286D01*
X6328333Y-7522286D02*
X6328333Y-7579428D01*
X6328333Y-7579428D02*
X6318809Y-7598476D01*
X6318809Y-7598476D02*
X6309286Y-7608000D01*
X6309286Y-7608000D02*
X6290238Y-7617524D01*
X6290238Y-7617524D02*
X6252143Y-7617524D01*
X6252143Y-7617524D02*
X6233095Y-7608000D01*
X6414048Y-7598476D02*
X6423571Y-7608000D01*
X6423571Y-7608000D02*
X6414048Y-7617524D01*
X6414048Y-7617524D02*
X6404524Y-7608000D01*
X6404524Y-7608000D02*
X6414048Y-7598476D01*
X6414048Y-7598476D02*
X6414048Y-7617524D01*
X6414048Y-7493714D02*
X6423571Y-7503238D01*
X6423571Y-7503238D02*
X6414048Y-7512762D01*
X6414048Y-7512762D02*
X6404524Y-7503238D01*
X6404524Y-7503238D02*
X6414048Y-7493714D01*
X6414048Y-7493714D02*
X6414048Y-7512762D01*
D12*
X4755000Y-7925000D02*
X4795000Y-7965000D01*
X4795000Y-7925000D02*
X4755000Y-7965000D01*
D11*
X5080714Y-7837524D02*
X5099762Y-7837524D01*
X5099762Y-7837524D02*
X5118810Y-7847048D01*
X5118810Y-7847048D02*
X5128333Y-7856571D01*
X5128333Y-7856571D02*
X5137857Y-7875619D01*
X5137857Y-7875619D02*
X5147381Y-7913714D01*
X5147381Y-7913714D02*
X5147381Y-7961333D01*
X5147381Y-7961333D02*
X5137857Y-7999428D01*
X5137857Y-7999428D02*
X5128333Y-8018476D01*
X5128333Y-8018476D02*
X5118810Y-8028000D01*
X5118810Y-8028000D02*
X5099762Y-8037524D01*
X5099762Y-8037524D02*
X5080714Y-8037524D01*
X5080714Y-8037524D02*
X5061667Y-8028000D01*
X5061667Y-8028000D02*
X5052143Y-8018476D01*
X5052143Y-8018476D02*
X5042619Y-7999428D01*
X5042619Y-7999428D02*
X5033095Y-7961333D01*
X5033095Y-7961333D02*
X5033095Y-7913714D01*
X5033095Y-7913714D02*
X5042619Y-7875619D01*
X5042619Y-7875619D02*
X5052143Y-7856571D01*
X5052143Y-7856571D02*
X5061667Y-7847048D01*
X5061667Y-7847048D02*
X5080714Y-7837524D01*
X5233095Y-8018476D02*
X5242619Y-8028000D01*
X5242619Y-8028000D02*
X5233095Y-8037524D01*
X5233095Y-8037524D02*
X5223571Y-8028000D01*
X5223571Y-8028000D02*
X5233095Y-8018476D01*
X5233095Y-8018476D02*
X5233095Y-8037524D01*
X5414048Y-7904190D02*
X5414048Y-8037524D01*
X5366429Y-7828000D02*
X5318810Y-7970857D01*
X5318810Y-7970857D02*
X5442619Y-7970857D01*
X5556905Y-7837524D02*
X5575952Y-7837524D01*
X5575952Y-7837524D02*
X5595000Y-7847048D01*
X5595000Y-7847048D02*
X5604524Y-7856571D01*
X5604524Y-7856571D02*
X5614048Y-7875619D01*
X5614048Y-7875619D02*
X5623571Y-7913714D01*
X5623571Y-7913714D02*
X5623571Y-7961333D01*
X5623571Y-7961333D02*
X5614048Y-7999428D01*
X5614048Y-7999428D02*
X5604524Y-8018476D01*
X5604524Y-8018476D02*
X5595000Y-8028000D01*
X5595000Y-8028000D02*
X5575952Y-8037524D01*
X5575952Y-8037524D02*
X5556905Y-8037524D01*
X5556905Y-8037524D02*
X5537857Y-8028000D01*
X5537857Y-8028000D02*
X5528333Y-8018476D01*
X5528333Y-8018476D02*
X5518810Y-7999428D01*
X5518810Y-7999428D02*
X5509286Y-7961333D01*
X5509286Y-7961333D02*
X5509286Y-7913714D01*
X5509286Y-7913714D02*
X5518810Y-7875619D01*
X5518810Y-7875619D02*
X5528333Y-7856571D01*
X5528333Y-7856571D02*
X5537857Y-7847048D01*
X5537857Y-7847048D02*
X5556905Y-7837524D01*
X5747381Y-7837524D02*
X5766429Y-7837524D01*
X5766429Y-7837524D02*
X5785476Y-7847048D01*
X5785476Y-7847048D02*
X5795000Y-7856571D01*
X5795000Y-7856571D02*
X5804524Y-7875619D01*
X5804524Y-7875619D02*
X5814048Y-7913714D01*
X5814048Y-7913714D02*
X5814048Y-7961333D01*
X5814048Y-7961333D02*
X5804524Y-7999428D01*
X5804524Y-7999428D02*
X5795000Y-8018476D01*
X5795000Y-8018476D02*
X5785476Y-8028000D01*
X5785476Y-8028000D02*
X5766429Y-8037524D01*
X5766429Y-8037524D02*
X5747381Y-8037524D01*
X5747381Y-8037524D02*
X5728333Y-8028000D01*
X5728333Y-8028000D02*
X5718809Y-8018476D01*
X5718809Y-8018476D02*
X5709286Y-7999428D01*
X5709286Y-7999428D02*
X5699762Y-7961333D01*
X5699762Y-7961333D02*
X5699762Y-7913714D01*
X5699762Y-7913714D02*
X5709286Y-7875619D01*
X5709286Y-7875619D02*
X5718809Y-7856571D01*
X5718809Y-7856571D02*
X5728333Y-7847048D01*
X5728333Y-7847048D02*
X5747381Y-7837524D01*
X5899762Y-8037524D02*
X5899762Y-7904190D01*
X5899762Y-7923238D02*
X5909286Y-7913714D01*
X5909286Y-7913714D02*
X5928333Y-7904190D01*
X5928333Y-7904190D02*
X5956905Y-7904190D01*
X5956905Y-7904190D02*
X5975952Y-7913714D01*
X5975952Y-7913714D02*
X5985476Y-7932762D01*
X5985476Y-7932762D02*
X5985476Y-8037524D01*
X5985476Y-7932762D02*
X5995000Y-7913714D01*
X5995000Y-7913714D02*
X6014048Y-7904190D01*
X6014048Y-7904190D02*
X6042619Y-7904190D01*
X6042619Y-7904190D02*
X6061667Y-7913714D01*
X6061667Y-7913714D02*
X6071190Y-7932762D01*
X6071190Y-7932762D02*
X6071190Y-8037524D01*
X6166429Y-8037524D02*
X6166429Y-7904190D01*
X6166429Y-7923238D02*
X6175952Y-7913714D01*
X6175952Y-7913714D02*
X6195000Y-7904190D01*
X6195000Y-7904190D02*
X6223571Y-7904190D01*
X6223571Y-7904190D02*
X6242619Y-7913714D01*
X6242619Y-7913714D02*
X6252143Y-7932762D01*
X6252143Y-7932762D02*
X6252143Y-8037524D01*
X6252143Y-7932762D02*
X6261667Y-7913714D01*
X6261667Y-7913714D02*
X6280714Y-7904190D01*
X6280714Y-7904190D02*
X6309286Y-7904190D01*
X6309286Y-7904190D02*
X6328333Y-7913714D01*
X6328333Y-7913714D02*
X6337857Y-7932762D01*
X6337857Y-7932762D02*
X6337857Y-8037524D01*
X6728333Y-7828000D02*
X6556905Y-8085143D01*
X6985476Y-7837524D02*
X7004524Y-7837524D01*
X7004524Y-7837524D02*
X7023572Y-7847048D01*
X7023572Y-7847048D02*
X7033095Y-7856571D01*
X7033095Y-7856571D02*
X7042619Y-7875619D01*
X7042619Y-7875619D02*
X7052143Y-7913714D01*
X7052143Y-7913714D02*
X7052143Y-7961333D01*
X7052143Y-7961333D02*
X7042619Y-7999428D01*
X7042619Y-7999428D02*
X7033095Y-8018476D01*
X7033095Y-8018476D02*
X7023572Y-8028000D01*
X7023572Y-8028000D02*
X7004524Y-8037524D01*
X7004524Y-8037524D02*
X6985476Y-8037524D01*
X6985476Y-8037524D02*
X6966429Y-8028000D01*
X6966429Y-8028000D02*
X6956905Y-8018476D01*
X6956905Y-8018476D02*
X6947381Y-7999428D01*
X6947381Y-7999428D02*
X6937857Y-7961333D01*
X6937857Y-7961333D02*
X6937857Y-7913714D01*
X6937857Y-7913714D02*
X6947381Y-7875619D01*
X6947381Y-7875619D02*
X6956905Y-7856571D01*
X6956905Y-7856571D02*
X6966429Y-7847048D01*
X6966429Y-7847048D02*
X6985476Y-7837524D01*
X7137857Y-8018476D02*
X7147381Y-8028000D01*
X7147381Y-8028000D02*
X7137857Y-8037524D01*
X7137857Y-8037524D02*
X7128333Y-8028000D01*
X7128333Y-8028000D02*
X7137857Y-8018476D01*
X7137857Y-8018476D02*
X7137857Y-8037524D01*
X7271191Y-7837524D02*
X7290238Y-7837524D01*
X7290238Y-7837524D02*
X7309286Y-7847048D01*
X7309286Y-7847048D02*
X7318810Y-7856571D01*
X7318810Y-7856571D02*
X7328333Y-7875619D01*
X7328333Y-7875619D02*
X7337857Y-7913714D01*
X7337857Y-7913714D02*
X7337857Y-7961333D01*
X7337857Y-7961333D02*
X7328333Y-7999428D01*
X7328333Y-7999428D02*
X7318810Y-8018476D01*
X7318810Y-8018476D02*
X7309286Y-8028000D01*
X7309286Y-8028000D02*
X7290238Y-8037524D01*
X7290238Y-8037524D02*
X7271191Y-8037524D01*
X7271191Y-8037524D02*
X7252143Y-8028000D01*
X7252143Y-8028000D02*
X7242619Y-8018476D01*
X7242619Y-8018476D02*
X7233095Y-7999428D01*
X7233095Y-7999428D02*
X7223572Y-7961333D01*
X7223572Y-7961333D02*
X7223572Y-7913714D01*
X7223572Y-7913714D02*
X7233095Y-7875619D01*
X7233095Y-7875619D02*
X7242619Y-7856571D01*
X7242619Y-7856571D02*
X7252143Y-7847048D01*
X7252143Y-7847048D02*
X7271191Y-7837524D01*
X7528333Y-8037524D02*
X7414048Y-8037524D01*
X7471191Y-8037524D02*
X7471191Y-7837524D01*
X7471191Y-7837524D02*
X7452143Y-7866095D01*
X7452143Y-7866095D02*
X7433095Y-7885143D01*
X7433095Y-7885143D02*
X7414048Y-7894667D01*
X7709286Y-7837524D02*
X7614048Y-7837524D01*
X7614048Y-7837524D02*
X7604524Y-7932762D01*
X7604524Y-7932762D02*
X7614048Y-7923238D01*
X7614048Y-7923238D02*
X7633095Y-7913714D01*
X7633095Y-7913714D02*
X7680714Y-7913714D01*
X7680714Y-7913714D02*
X7699762Y-7923238D01*
X7699762Y-7923238D02*
X7709286Y-7932762D01*
X7709286Y-7932762D02*
X7718810Y-7951809D01*
X7718810Y-7951809D02*
X7718810Y-7999428D01*
X7718810Y-7999428D02*
X7709286Y-8018476D01*
X7709286Y-8018476D02*
X7699762Y-8028000D01*
X7699762Y-8028000D02*
X7680714Y-8037524D01*
X7680714Y-8037524D02*
X7633095Y-8037524D01*
X7633095Y-8037524D02*
X7614048Y-8028000D01*
X7614048Y-8028000D02*
X7604524Y-8018476D01*
X7785476Y-7837524D02*
X7918810Y-7837524D01*
X7918810Y-7837524D02*
X7833095Y-8037524D01*
X7985476Y-7837524D02*
X7985476Y-7875619D01*
X8061667Y-7837524D02*
X8061667Y-7875619D01*
X8356905Y-8113714D02*
X8347381Y-8104190D01*
X8347381Y-8104190D02*
X8328334Y-8075619D01*
X8328334Y-8075619D02*
X8318810Y-8056571D01*
X8318810Y-8056571D02*
X8309286Y-8028000D01*
X8309286Y-8028000D02*
X8299762Y-7980381D01*
X8299762Y-7980381D02*
X8299762Y-7942286D01*
X8299762Y-7942286D02*
X8309286Y-7894667D01*
X8309286Y-7894667D02*
X8318810Y-7866095D01*
X8318810Y-7866095D02*
X8328334Y-7847048D01*
X8328334Y-7847048D02*
X8347381Y-7818476D01*
X8347381Y-7818476D02*
X8356905Y-7808952D01*
X8537857Y-8037524D02*
X8423572Y-8037524D01*
X8480715Y-8037524D02*
X8480715Y-7837524D01*
X8480715Y-7837524D02*
X8461667Y-7866095D01*
X8461667Y-7866095D02*
X8442619Y-7885143D01*
X8442619Y-7885143D02*
X8423572Y-7894667D01*
X8775953Y-8037524D02*
X8775953Y-7837524D01*
X8861667Y-8037524D02*
X8861667Y-7932762D01*
X8861667Y-7932762D02*
X8852143Y-7913714D01*
X8852143Y-7913714D02*
X8833096Y-7904190D01*
X8833096Y-7904190D02*
X8804524Y-7904190D01*
X8804524Y-7904190D02*
X8785477Y-7913714D01*
X8785477Y-7913714D02*
X8775953Y-7923238D01*
X8985477Y-8037524D02*
X8966429Y-8028000D01*
X8966429Y-8028000D02*
X8956905Y-8018476D01*
X8956905Y-8018476D02*
X8947381Y-7999428D01*
X8947381Y-7999428D02*
X8947381Y-7942286D01*
X8947381Y-7942286D02*
X8956905Y-7923238D01*
X8956905Y-7923238D02*
X8966429Y-7913714D01*
X8966429Y-7913714D02*
X8985477Y-7904190D01*
X8985477Y-7904190D02*
X9014048Y-7904190D01*
X9014048Y-7904190D02*
X9033096Y-7913714D01*
X9033096Y-7913714D02*
X9042619Y-7923238D01*
X9042619Y-7923238D02*
X9052143Y-7942286D01*
X9052143Y-7942286D02*
X9052143Y-7999428D01*
X9052143Y-7999428D02*
X9042619Y-8018476D01*
X9042619Y-8018476D02*
X9033096Y-8028000D01*
X9033096Y-8028000D02*
X9014048Y-8037524D01*
X9014048Y-8037524D02*
X8985477Y-8037524D01*
X9166429Y-8037524D02*
X9147381Y-8028000D01*
X9147381Y-8028000D02*
X9137858Y-8008952D01*
X9137858Y-8008952D02*
X9137858Y-7837524D01*
X9318810Y-8028000D02*
X9299762Y-8037524D01*
X9299762Y-8037524D02*
X9261667Y-8037524D01*
X9261667Y-8037524D02*
X9242619Y-8028000D01*
X9242619Y-8028000D02*
X9233096Y-8008952D01*
X9233096Y-8008952D02*
X9233096Y-7932762D01*
X9233096Y-7932762D02*
X9242619Y-7913714D01*
X9242619Y-7913714D02*
X9261667Y-7904190D01*
X9261667Y-7904190D02*
X9299762Y-7904190D01*
X9299762Y-7904190D02*
X9318810Y-7913714D01*
X9318810Y-7913714D02*
X9328334Y-7932762D01*
X9328334Y-7932762D02*
X9328334Y-7951809D01*
X9328334Y-7951809D02*
X9233096Y-7970857D01*
X9395000Y-8113714D02*
X9404524Y-8104190D01*
X9404524Y-8104190D02*
X9423572Y-8075619D01*
X9423572Y-8075619D02*
X9433096Y-8056571D01*
X9433096Y-8056571D02*
X9442619Y-8028000D01*
X9442619Y-8028000D02*
X9452143Y-7980381D01*
X9452143Y-7980381D02*
X9452143Y-7942286D01*
X9452143Y-7942286D02*
X9442619Y-7894667D01*
X9442619Y-7894667D02*
X9433096Y-7866095D01*
X9433096Y-7866095D02*
X9423572Y-7847048D01*
X9423572Y-7847048D02*
X9404524Y-7818476D01*
X9404524Y-7818476D02*
X9395000Y-7808952D01*
D13*
X4795000Y-8209000D02*
G75*
G03*
X4795000Y-8209000I-45000J0D01*
G01*
D11*
X5080714Y-8101524D02*
X5099762Y-8101524D01*
X5099762Y-8101524D02*
X5118810Y-8111048D01*
X5118810Y-8111048D02*
X5128333Y-8120571D01*
X5128333Y-8120571D02*
X5137857Y-8139619D01*
X5137857Y-8139619D02*
X5147381Y-8177714D01*
X5147381Y-8177714D02*
X5147381Y-8225333D01*
X5147381Y-8225333D02*
X5137857Y-8263428D01*
X5137857Y-8263428D02*
X5128333Y-8282476D01*
X5128333Y-8282476D02*
X5118810Y-8292000D01*
X5118810Y-8292000D02*
X5099762Y-8301524D01*
X5099762Y-8301524D02*
X5080714Y-8301524D01*
X5080714Y-8301524D02*
X5061667Y-8292000D01*
X5061667Y-8292000D02*
X5052143Y-8282476D01*
X5052143Y-8282476D02*
X5042619Y-8263428D01*
X5042619Y-8263428D02*
X5033095Y-8225333D01*
X5033095Y-8225333D02*
X5033095Y-8177714D01*
X5033095Y-8177714D02*
X5042619Y-8139619D01*
X5042619Y-8139619D02*
X5052143Y-8120571D01*
X5052143Y-8120571D02*
X5061667Y-8111048D01*
X5061667Y-8111048D02*
X5080714Y-8101524D01*
X5233095Y-8282476D02*
X5242619Y-8292000D01*
X5242619Y-8292000D02*
X5233095Y-8301524D01*
X5233095Y-8301524D02*
X5223571Y-8292000D01*
X5223571Y-8292000D02*
X5233095Y-8282476D01*
X5233095Y-8282476D02*
X5233095Y-8301524D01*
X5337857Y-8301524D02*
X5375952Y-8301524D01*
X5375952Y-8301524D02*
X5395000Y-8292000D01*
X5395000Y-8292000D02*
X5404524Y-8282476D01*
X5404524Y-8282476D02*
X5423571Y-8253905D01*
X5423571Y-8253905D02*
X5433095Y-8215809D01*
X5433095Y-8215809D02*
X5433095Y-8139619D01*
X5433095Y-8139619D02*
X5423571Y-8120571D01*
X5423571Y-8120571D02*
X5414048Y-8111048D01*
X5414048Y-8111048D02*
X5395000Y-8101524D01*
X5395000Y-8101524D02*
X5356905Y-8101524D01*
X5356905Y-8101524D02*
X5337857Y-8111048D01*
X5337857Y-8111048D02*
X5328333Y-8120571D01*
X5328333Y-8120571D02*
X5318810Y-8139619D01*
X5318810Y-8139619D02*
X5318810Y-8187238D01*
X5318810Y-8187238D02*
X5328333Y-8206286D01*
X5328333Y-8206286D02*
X5337857Y-8215809D01*
X5337857Y-8215809D02*
X5356905Y-8225333D01*
X5356905Y-8225333D02*
X5395000Y-8225333D01*
X5395000Y-8225333D02*
X5414048Y-8215809D01*
X5414048Y-8215809D02*
X5423571Y-8206286D01*
X5423571Y-8206286D02*
X5433095Y-8187238D01*
X5556905Y-8101524D02*
X5575952Y-8101524D01*
X5575952Y-8101524D02*
X5595000Y-8111048D01*
X5595000Y-8111048D02*
X5604524Y-8120571D01*
X5604524Y-8120571D02*
X5614048Y-8139619D01*
X5614048Y-8139619D02*
X5623571Y-8177714D01*
X5623571Y-8177714D02*
X5623571Y-8225333D01*
X5623571Y-8225333D02*
X5614048Y-8263428D01*
X5614048Y-8263428D02*
X5604524Y-8282476D01*
X5604524Y-8282476D02*
X5595000Y-8292000D01*
X5595000Y-8292000D02*
X5575952Y-8301524D01*
X5575952Y-8301524D02*
X5556905Y-8301524D01*
X5556905Y-8301524D02*
X5537857Y-8292000D01*
X5537857Y-8292000D02*
X5528333Y-8282476D01*
X5528333Y-8282476D02*
X5518810Y-8263428D01*
X5518810Y-8263428D02*
X5509286Y-8225333D01*
X5509286Y-8225333D02*
X5509286Y-8177714D01*
X5509286Y-8177714D02*
X5518810Y-8139619D01*
X5518810Y-8139619D02*
X5528333Y-8120571D01*
X5528333Y-8120571D02*
X5537857Y-8111048D01*
X5537857Y-8111048D02*
X5556905Y-8101524D01*
X5747381Y-8101524D02*
X5766429Y-8101524D01*
X5766429Y-8101524D02*
X5785476Y-8111048D01*
X5785476Y-8111048D02*
X5795000Y-8120571D01*
X5795000Y-8120571D02*
X5804524Y-8139619D01*
X5804524Y-8139619D02*
X5814048Y-8177714D01*
X5814048Y-8177714D02*
X5814048Y-8225333D01*
X5814048Y-8225333D02*
X5804524Y-8263428D01*
X5804524Y-8263428D02*
X5795000Y-8282476D01*
X5795000Y-8282476D02*
X5785476Y-8292000D01*
X5785476Y-8292000D02*
X5766429Y-8301524D01*
X5766429Y-8301524D02*
X5747381Y-8301524D01*
X5747381Y-8301524D02*
X5728333Y-8292000D01*
X5728333Y-8292000D02*
X5718809Y-8282476D01*
X5718809Y-8282476D02*
X5709286Y-8263428D01*
X5709286Y-8263428D02*
X5699762Y-8225333D01*
X5699762Y-8225333D02*
X5699762Y-8177714D01*
X5699762Y-8177714D02*
X5709286Y-8139619D01*
X5709286Y-8139619D02*
X5718809Y-8120571D01*
X5718809Y-8120571D02*
X5728333Y-8111048D01*
X5728333Y-8111048D02*
X5747381Y-8101524D01*
X5899762Y-8301524D02*
X5899762Y-8168190D01*
X5899762Y-8187238D02*
X5909286Y-8177714D01*
X5909286Y-8177714D02*
X5928333Y-8168190D01*
X5928333Y-8168190D02*
X5956905Y-8168190D01*
X5956905Y-8168190D02*
X5975952Y-8177714D01*
X5975952Y-8177714D02*
X5985476Y-8196762D01*
X5985476Y-8196762D02*
X5985476Y-8301524D01*
X5985476Y-8196762D02*
X5995000Y-8177714D01*
X5995000Y-8177714D02*
X6014048Y-8168190D01*
X6014048Y-8168190D02*
X6042619Y-8168190D01*
X6042619Y-8168190D02*
X6061667Y-8177714D01*
X6061667Y-8177714D02*
X6071190Y-8196762D01*
X6071190Y-8196762D02*
X6071190Y-8301524D01*
X6166429Y-8301524D02*
X6166429Y-8168190D01*
X6166429Y-8187238D02*
X6175952Y-8177714D01*
X6175952Y-8177714D02*
X6195000Y-8168190D01*
X6195000Y-8168190D02*
X6223571Y-8168190D01*
X6223571Y-8168190D02*
X6242619Y-8177714D01*
X6242619Y-8177714D02*
X6252143Y-8196762D01*
X6252143Y-8196762D02*
X6252143Y-8301524D01*
X6252143Y-8196762D02*
X6261667Y-8177714D01*
X6261667Y-8177714D02*
X6280714Y-8168190D01*
X6280714Y-8168190D02*
X6309286Y-8168190D01*
X6309286Y-8168190D02*
X6328333Y-8177714D01*
X6328333Y-8177714D02*
X6337857Y-8196762D01*
X6337857Y-8196762D02*
X6337857Y-8301524D01*
X6728333Y-8092000D02*
X6556905Y-8349143D01*
X6985476Y-8101524D02*
X7004524Y-8101524D01*
X7004524Y-8101524D02*
X7023572Y-8111048D01*
X7023572Y-8111048D02*
X7033095Y-8120571D01*
X7033095Y-8120571D02*
X7042619Y-8139619D01*
X7042619Y-8139619D02*
X7052143Y-8177714D01*
X7052143Y-8177714D02*
X7052143Y-8225333D01*
X7052143Y-8225333D02*
X7042619Y-8263428D01*
X7042619Y-8263428D02*
X7033095Y-8282476D01*
X7033095Y-8282476D02*
X7023572Y-8292000D01*
X7023572Y-8292000D02*
X7004524Y-8301524D01*
X7004524Y-8301524D02*
X6985476Y-8301524D01*
X6985476Y-8301524D02*
X6966429Y-8292000D01*
X6966429Y-8292000D02*
X6956905Y-8282476D01*
X6956905Y-8282476D02*
X6947381Y-8263428D01*
X6947381Y-8263428D02*
X6937857Y-8225333D01*
X6937857Y-8225333D02*
X6937857Y-8177714D01*
X6937857Y-8177714D02*
X6947381Y-8139619D01*
X6947381Y-8139619D02*
X6956905Y-8120571D01*
X6956905Y-8120571D02*
X6966429Y-8111048D01*
X6966429Y-8111048D02*
X6985476Y-8101524D01*
X7137857Y-8282476D02*
X7147381Y-8292000D01*
X7147381Y-8292000D02*
X7137857Y-8301524D01*
X7137857Y-8301524D02*
X7128333Y-8292000D01*
X7128333Y-8292000D02*
X7137857Y-8282476D01*
X7137857Y-8282476D02*
X7137857Y-8301524D01*
X7271191Y-8101524D02*
X7290238Y-8101524D01*
X7290238Y-8101524D02*
X7309286Y-8111048D01*
X7309286Y-8111048D02*
X7318810Y-8120571D01*
X7318810Y-8120571D02*
X7328333Y-8139619D01*
X7328333Y-8139619D02*
X7337857Y-8177714D01*
X7337857Y-8177714D02*
X7337857Y-8225333D01*
X7337857Y-8225333D02*
X7328333Y-8263428D01*
X7328333Y-8263428D02*
X7318810Y-8282476D01*
X7318810Y-8282476D02*
X7309286Y-8292000D01*
X7309286Y-8292000D02*
X7290238Y-8301524D01*
X7290238Y-8301524D02*
X7271191Y-8301524D01*
X7271191Y-8301524D02*
X7252143Y-8292000D01*
X7252143Y-8292000D02*
X7242619Y-8282476D01*
X7242619Y-8282476D02*
X7233095Y-8263428D01*
X7233095Y-8263428D02*
X7223572Y-8225333D01*
X7223572Y-8225333D02*
X7223572Y-8177714D01*
X7223572Y-8177714D02*
X7233095Y-8139619D01*
X7233095Y-8139619D02*
X7242619Y-8120571D01*
X7242619Y-8120571D02*
X7252143Y-8111048D01*
X7252143Y-8111048D02*
X7271191Y-8101524D01*
X7404524Y-8101524D02*
X7528333Y-8101524D01*
X7528333Y-8101524D02*
X7461667Y-8177714D01*
X7461667Y-8177714D02*
X7490238Y-8177714D01*
X7490238Y-8177714D02*
X7509286Y-8187238D01*
X7509286Y-8187238D02*
X7518810Y-8196762D01*
X7518810Y-8196762D02*
X7528333Y-8215809D01*
X7528333Y-8215809D02*
X7528333Y-8263428D01*
X7528333Y-8263428D02*
X7518810Y-8282476D01*
X7518810Y-8282476D02*
X7509286Y-8292000D01*
X7509286Y-8292000D02*
X7490238Y-8301524D01*
X7490238Y-8301524D02*
X7433095Y-8301524D01*
X7433095Y-8301524D02*
X7414048Y-8292000D01*
X7414048Y-8292000D02*
X7404524Y-8282476D01*
X7709286Y-8101524D02*
X7614048Y-8101524D01*
X7614048Y-8101524D02*
X7604524Y-8196762D01*
X7604524Y-8196762D02*
X7614048Y-8187238D01*
X7614048Y-8187238D02*
X7633095Y-8177714D01*
X7633095Y-8177714D02*
X7680714Y-8177714D01*
X7680714Y-8177714D02*
X7699762Y-8187238D01*
X7699762Y-8187238D02*
X7709286Y-8196762D01*
X7709286Y-8196762D02*
X7718810Y-8215809D01*
X7718810Y-8215809D02*
X7718810Y-8263428D01*
X7718810Y-8263428D02*
X7709286Y-8282476D01*
X7709286Y-8282476D02*
X7699762Y-8292000D01*
X7699762Y-8292000D02*
X7680714Y-8301524D01*
X7680714Y-8301524D02*
X7633095Y-8301524D01*
X7633095Y-8301524D02*
X7614048Y-8292000D01*
X7614048Y-8292000D02*
X7604524Y-8282476D01*
X7890238Y-8168190D02*
X7890238Y-8301524D01*
X7842619Y-8092000D02*
X7795000Y-8234857D01*
X7795000Y-8234857D02*
X7918810Y-8234857D01*
X7985476Y-8101524D02*
X7985476Y-8139619D01*
X8061667Y-8101524D02*
X8061667Y-8139619D01*
X8356905Y-8377714D02*
X8347381Y-8368190D01*
X8347381Y-8368190D02*
X8328334Y-8339619D01*
X8328334Y-8339619D02*
X8318810Y-8320571D01*
X8318810Y-8320571D02*
X8309286Y-8292000D01*
X8309286Y-8292000D02*
X8299762Y-8244381D01*
X8299762Y-8244381D02*
X8299762Y-8206286D01*
X8299762Y-8206286D02*
X8309286Y-8158667D01*
X8309286Y-8158667D02*
X8318810Y-8130095D01*
X8318810Y-8130095D02*
X8328334Y-8111048D01*
X8328334Y-8111048D02*
X8347381Y-8082476D01*
X8347381Y-8082476D02*
X8356905Y-8072952D01*
X8461667Y-8187238D02*
X8442619Y-8177714D01*
X8442619Y-8177714D02*
X8433096Y-8168190D01*
X8433096Y-8168190D02*
X8423572Y-8149143D01*
X8423572Y-8149143D02*
X8423572Y-8139619D01*
X8423572Y-8139619D02*
X8433096Y-8120571D01*
X8433096Y-8120571D02*
X8442619Y-8111048D01*
X8442619Y-8111048D02*
X8461667Y-8101524D01*
X8461667Y-8101524D02*
X8499762Y-8101524D01*
X8499762Y-8101524D02*
X8518810Y-8111048D01*
X8518810Y-8111048D02*
X8528334Y-8120571D01*
X8528334Y-8120571D02*
X8537857Y-8139619D01*
X8537857Y-8139619D02*
X8537857Y-8149143D01*
X8537857Y-8149143D02*
X8528334Y-8168190D01*
X8528334Y-8168190D02*
X8518810Y-8177714D01*
X8518810Y-8177714D02*
X8499762Y-8187238D01*
X8499762Y-8187238D02*
X8461667Y-8187238D01*
X8461667Y-8187238D02*
X8442619Y-8196762D01*
X8442619Y-8196762D02*
X8433096Y-8206286D01*
X8433096Y-8206286D02*
X8423572Y-8225333D01*
X8423572Y-8225333D02*
X8423572Y-8263428D01*
X8423572Y-8263428D02*
X8433096Y-8282476D01*
X8433096Y-8282476D02*
X8442619Y-8292000D01*
X8442619Y-8292000D02*
X8461667Y-8301524D01*
X8461667Y-8301524D02*
X8499762Y-8301524D01*
X8499762Y-8301524D02*
X8518810Y-8292000D01*
X8518810Y-8292000D02*
X8528334Y-8282476D01*
X8528334Y-8282476D02*
X8537857Y-8263428D01*
X8537857Y-8263428D02*
X8537857Y-8225333D01*
X8537857Y-8225333D02*
X8528334Y-8206286D01*
X8528334Y-8206286D02*
X8518810Y-8196762D01*
X8518810Y-8196762D02*
X8499762Y-8187238D01*
X8775953Y-8301524D02*
X8775953Y-8101524D01*
X8861667Y-8301524D02*
X8861667Y-8196762D01*
X8861667Y-8196762D02*
X8852143Y-8177714D01*
X8852143Y-8177714D02*
X8833096Y-8168190D01*
X8833096Y-8168190D02*
X8804524Y-8168190D01*
X8804524Y-8168190D02*
X8785477Y-8177714D01*
X8785477Y-8177714D02*
X8775953Y-8187238D01*
X8985477Y-8301524D02*
X8966429Y-8292000D01*
X8966429Y-8292000D02*
X8956905Y-8282476D01*
X8956905Y-8282476D02*
X8947381Y-8263428D01*
X8947381Y-8263428D02*
X8947381Y-8206286D01*
X8947381Y-8206286D02*
X8956905Y-8187238D01*
X8956905Y-8187238D02*
X8966429Y-8177714D01*
X8966429Y-8177714D02*
X8985477Y-8168190D01*
X8985477Y-8168190D02*
X9014048Y-8168190D01*
X9014048Y-8168190D02*
X9033096Y-8177714D01*
X9033096Y-8177714D02*
X9042619Y-8187238D01*
X9042619Y-8187238D02*
X9052143Y-8206286D01*
X9052143Y-8206286D02*
X9052143Y-8263428D01*
X9052143Y-8263428D02*
X9042619Y-8282476D01*
X9042619Y-8282476D02*
X9033096Y-8292000D01*
X9033096Y-8292000D02*
X9014048Y-8301524D01*
X9014048Y-8301524D02*
X8985477Y-8301524D01*
X9166429Y-8301524D02*
X9147381Y-8292000D01*
X9147381Y-8292000D02*
X9137858Y-8272952D01*
X9137858Y-8272952D02*
X9137858Y-8101524D01*
X9318810Y-8292000D02*
X9299762Y-8301524D01*
X9299762Y-8301524D02*
X9261667Y-8301524D01*
X9261667Y-8301524D02*
X9242619Y-8292000D01*
X9242619Y-8292000D02*
X9233096Y-8272952D01*
X9233096Y-8272952D02*
X9233096Y-8196762D01*
X9233096Y-8196762D02*
X9242619Y-8177714D01*
X9242619Y-8177714D02*
X9261667Y-8168190D01*
X9261667Y-8168190D02*
X9299762Y-8168190D01*
X9299762Y-8168190D02*
X9318810Y-8177714D01*
X9318810Y-8177714D02*
X9328334Y-8196762D01*
X9328334Y-8196762D02*
X9328334Y-8215809D01*
X9328334Y-8215809D02*
X9233096Y-8234857D01*
X9404524Y-8292000D02*
X9423572Y-8301524D01*
X9423572Y-8301524D02*
X9461667Y-8301524D01*
X9461667Y-8301524D02*
X9480715Y-8292000D01*
X9480715Y-8292000D02*
X9490239Y-8272952D01*
X9490239Y-8272952D02*
X9490239Y-8263428D01*
X9490239Y-8263428D02*
X9480715Y-8244381D01*
X9480715Y-8244381D02*
X9461667Y-8234857D01*
X9461667Y-8234857D02*
X9433096Y-8234857D01*
X9433096Y-8234857D02*
X9414048Y-8225333D01*
X9414048Y-8225333D02*
X9404524Y-8206286D01*
X9404524Y-8206286D02*
X9404524Y-8196762D01*
X9404524Y-8196762D02*
X9414048Y-8177714D01*
X9414048Y-8177714D02*
X9433096Y-8168190D01*
X9433096Y-8168190D02*
X9461667Y-8168190D01*
X9461667Y-8168190D02*
X9480715Y-8177714D01*
X9556905Y-8377714D02*
X9566429Y-8368190D01*
X9566429Y-8368190D02*
X9585477Y-8339619D01*
X9585477Y-8339619D02*
X9595000Y-8320571D01*
X9595000Y-8320571D02*
X9604524Y-8292000D01*
X9604524Y-8292000D02*
X9614048Y-8244381D01*
X9614048Y-8244381D02*
X9614048Y-8206286D01*
X9614048Y-8206286D02*
X9604524Y-8158667D01*
X9604524Y-8158667D02*
X9595000Y-8130095D01*
X9595000Y-8130095D02*
X9585477Y-8111048D01*
X9585477Y-8111048D02*
X9566429Y-8082476D01*
X9566429Y-8082476D02*
X9556905Y-8072952D01*
D14*
X4715000Y-8393000D02*
X4715000Y-8553000D01*
X4635000Y-8473000D02*
X4795000Y-8473000D01*
D11*
X5147381Y-8565524D02*
X5033095Y-8565524D01*
X5090238Y-8565524D02*
X5090238Y-8365524D01*
X5090238Y-8365524D02*
X5071190Y-8394095D01*
X5071190Y-8394095D02*
X5052143Y-8413143D01*
X5052143Y-8413143D02*
X5033095Y-8422667D01*
X5233095Y-8546476D02*
X5242619Y-8556000D01*
X5242619Y-8556000D02*
X5233095Y-8565524D01*
X5233095Y-8565524D02*
X5223571Y-8556000D01*
X5223571Y-8556000D02*
X5233095Y-8546476D01*
X5233095Y-8546476D02*
X5233095Y-8565524D01*
X5414048Y-8365524D02*
X5375952Y-8365524D01*
X5375952Y-8365524D02*
X5356905Y-8375048D01*
X5356905Y-8375048D02*
X5347381Y-8384571D01*
X5347381Y-8384571D02*
X5328333Y-8413143D01*
X5328333Y-8413143D02*
X5318810Y-8451238D01*
X5318810Y-8451238D02*
X5318810Y-8527429D01*
X5318810Y-8527429D02*
X5328333Y-8546476D01*
X5328333Y-8546476D02*
X5337857Y-8556000D01*
X5337857Y-8556000D02*
X5356905Y-8565524D01*
X5356905Y-8565524D02*
X5395000Y-8565524D01*
X5395000Y-8565524D02*
X5414048Y-8556000D01*
X5414048Y-8556000D02*
X5423571Y-8546476D01*
X5423571Y-8546476D02*
X5433095Y-8527429D01*
X5433095Y-8527429D02*
X5433095Y-8479810D01*
X5433095Y-8479810D02*
X5423571Y-8460762D01*
X5423571Y-8460762D02*
X5414048Y-8451238D01*
X5414048Y-8451238D02*
X5395000Y-8441714D01*
X5395000Y-8441714D02*
X5356905Y-8441714D01*
X5356905Y-8441714D02*
X5337857Y-8451238D01*
X5337857Y-8451238D02*
X5328333Y-8460762D01*
X5328333Y-8460762D02*
X5318810Y-8479810D01*
X5556905Y-8365524D02*
X5575952Y-8365524D01*
X5575952Y-8365524D02*
X5595000Y-8375048D01*
X5595000Y-8375048D02*
X5604524Y-8384571D01*
X5604524Y-8384571D02*
X5614048Y-8403619D01*
X5614048Y-8403619D02*
X5623571Y-8441714D01*
X5623571Y-8441714D02*
X5623571Y-8489333D01*
X5623571Y-8489333D02*
X5614048Y-8527429D01*
X5614048Y-8527429D02*
X5604524Y-8546476D01*
X5604524Y-8546476D02*
X5595000Y-8556000D01*
X5595000Y-8556000D02*
X5575952Y-8565524D01*
X5575952Y-8565524D02*
X5556905Y-8565524D01*
X5556905Y-8565524D02*
X5537857Y-8556000D01*
X5537857Y-8556000D02*
X5528333Y-8546476D01*
X5528333Y-8546476D02*
X5518810Y-8527429D01*
X5518810Y-8527429D02*
X5509286Y-8489333D01*
X5509286Y-8489333D02*
X5509286Y-8441714D01*
X5509286Y-8441714D02*
X5518810Y-8403619D01*
X5518810Y-8403619D02*
X5528333Y-8384571D01*
X5528333Y-8384571D02*
X5537857Y-8375048D01*
X5537857Y-8375048D02*
X5556905Y-8365524D01*
X5747381Y-8365524D02*
X5766429Y-8365524D01*
X5766429Y-8365524D02*
X5785476Y-8375048D01*
X5785476Y-8375048D02*
X5795000Y-8384571D01*
X5795000Y-8384571D02*
X5804524Y-8403619D01*
X5804524Y-8403619D02*
X5814048Y-8441714D01*
X5814048Y-8441714D02*
X5814048Y-8489333D01*
X5814048Y-8489333D02*
X5804524Y-8527429D01*
X5804524Y-8527429D02*
X5795000Y-8546476D01*
X5795000Y-8546476D02*
X5785476Y-8556000D01*
X5785476Y-8556000D02*
X5766429Y-8565524D01*
X5766429Y-8565524D02*
X5747381Y-8565524D01*
X5747381Y-8565524D02*
X5728333Y-8556000D01*
X5728333Y-8556000D02*
X5718809Y-8546476D01*
X5718809Y-8546476D02*
X5709286Y-8527429D01*
X5709286Y-8527429D02*
X5699762Y-8489333D01*
X5699762Y-8489333D02*
X5699762Y-8441714D01*
X5699762Y-8441714D02*
X5709286Y-8403619D01*
X5709286Y-8403619D02*
X5718809Y-8384571D01*
X5718809Y-8384571D02*
X5728333Y-8375048D01*
X5728333Y-8375048D02*
X5747381Y-8365524D01*
X5899762Y-8565524D02*
X5899762Y-8432190D01*
X5899762Y-8451238D02*
X5909286Y-8441714D01*
X5909286Y-8441714D02*
X5928333Y-8432190D01*
X5928333Y-8432190D02*
X5956905Y-8432190D01*
X5956905Y-8432190D02*
X5975952Y-8441714D01*
X5975952Y-8441714D02*
X5985476Y-8460762D01*
X5985476Y-8460762D02*
X5985476Y-8565524D01*
X5985476Y-8460762D02*
X5995000Y-8441714D01*
X5995000Y-8441714D02*
X6014048Y-8432190D01*
X6014048Y-8432190D02*
X6042619Y-8432190D01*
X6042619Y-8432190D02*
X6061667Y-8441714D01*
X6061667Y-8441714D02*
X6071190Y-8460762D01*
X6071190Y-8460762D02*
X6071190Y-8565524D01*
X6166429Y-8565524D02*
X6166429Y-8432190D01*
X6166429Y-8451238D02*
X6175952Y-8441714D01*
X6175952Y-8441714D02*
X6195000Y-8432190D01*
X6195000Y-8432190D02*
X6223571Y-8432190D01*
X6223571Y-8432190D02*
X6242619Y-8441714D01*
X6242619Y-8441714D02*
X6252143Y-8460762D01*
X6252143Y-8460762D02*
X6252143Y-8565524D01*
X6252143Y-8460762D02*
X6261667Y-8441714D01*
X6261667Y-8441714D02*
X6280714Y-8432190D01*
X6280714Y-8432190D02*
X6309286Y-8432190D01*
X6309286Y-8432190D02*
X6328333Y-8441714D01*
X6328333Y-8441714D02*
X6337857Y-8460762D01*
X6337857Y-8460762D02*
X6337857Y-8565524D01*
X6728333Y-8356000D02*
X6556905Y-8613143D01*
X6985476Y-8365524D02*
X7004524Y-8365524D01*
X7004524Y-8365524D02*
X7023572Y-8375048D01*
X7023572Y-8375048D02*
X7033095Y-8384571D01*
X7033095Y-8384571D02*
X7042619Y-8403619D01*
X7042619Y-8403619D02*
X7052143Y-8441714D01*
X7052143Y-8441714D02*
X7052143Y-8489333D01*
X7052143Y-8489333D02*
X7042619Y-8527429D01*
X7042619Y-8527429D02*
X7033095Y-8546476D01*
X7033095Y-8546476D02*
X7023572Y-8556000D01*
X7023572Y-8556000D02*
X7004524Y-8565524D01*
X7004524Y-8565524D02*
X6985476Y-8565524D01*
X6985476Y-8565524D02*
X6966429Y-8556000D01*
X6966429Y-8556000D02*
X6956905Y-8546476D01*
X6956905Y-8546476D02*
X6947381Y-8527429D01*
X6947381Y-8527429D02*
X6937857Y-8489333D01*
X6937857Y-8489333D02*
X6937857Y-8441714D01*
X6937857Y-8441714D02*
X6947381Y-8403619D01*
X6947381Y-8403619D02*
X6956905Y-8384571D01*
X6956905Y-8384571D02*
X6966429Y-8375048D01*
X6966429Y-8375048D02*
X6985476Y-8365524D01*
X7137857Y-8546476D02*
X7147381Y-8556000D01*
X7147381Y-8556000D02*
X7137857Y-8565524D01*
X7137857Y-8565524D02*
X7128333Y-8556000D01*
X7128333Y-8556000D02*
X7137857Y-8546476D01*
X7137857Y-8546476D02*
X7137857Y-8565524D01*
X7271191Y-8365524D02*
X7290238Y-8365524D01*
X7290238Y-8365524D02*
X7309286Y-8375048D01*
X7309286Y-8375048D02*
X7318810Y-8384571D01*
X7318810Y-8384571D02*
X7328333Y-8403619D01*
X7328333Y-8403619D02*
X7337857Y-8441714D01*
X7337857Y-8441714D02*
X7337857Y-8489333D01*
X7337857Y-8489333D02*
X7328333Y-8527429D01*
X7328333Y-8527429D02*
X7318810Y-8546476D01*
X7318810Y-8546476D02*
X7309286Y-8556000D01*
X7309286Y-8556000D02*
X7290238Y-8565524D01*
X7290238Y-8565524D02*
X7271191Y-8565524D01*
X7271191Y-8565524D02*
X7252143Y-8556000D01*
X7252143Y-8556000D02*
X7242619Y-8546476D01*
X7242619Y-8546476D02*
X7233095Y-8527429D01*
X7233095Y-8527429D02*
X7223572Y-8489333D01*
X7223572Y-8489333D02*
X7223572Y-8441714D01*
X7223572Y-8441714D02*
X7233095Y-8403619D01*
X7233095Y-8403619D02*
X7242619Y-8384571D01*
X7242619Y-8384571D02*
X7252143Y-8375048D01*
X7252143Y-8375048D02*
X7271191Y-8365524D01*
X7509286Y-8365524D02*
X7471191Y-8365524D01*
X7471191Y-8365524D02*
X7452143Y-8375048D01*
X7452143Y-8375048D02*
X7442619Y-8384571D01*
X7442619Y-8384571D02*
X7423572Y-8413143D01*
X7423572Y-8413143D02*
X7414048Y-8451238D01*
X7414048Y-8451238D02*
X7414048Y-8527429D01*
X7414048Y-8527429D02*
X7423572Y-8546476D01*
X7423572Y-8546476D02*
X7433095Y-8556000D01*
X7433095Y-8556000D02*
X7452143Y-8565524D01*
X7452143Y-8565524D02*
X7490238Y-8565524D01*
X7490238Y-8565524D02*
X7509286Y-8556000D01*
X7509286Y-8556000D02*
X7518810Y-8546476D01*
X7518810Y-8546476D02*
X7528333Y-8527429D01*
X7528333Y-8527429D02*
X7528333Y-8479810D01*
X7528333Y-8479810D02*
X7518810Y-8460762D01*
X7518810Y-8460762D02*
X7509286Y-8451238D01*
X7509286Y-8451238D02*
X7490238Y-8441714D01*
X7490238Y-8441714D02*
X7452143Y-8441714D01*
X7452143Y-8441714D02*
X7433095Y-8451238D01*
X7433095Y-8451238D02*
X7423572Y-8460762D01*
X7423572Y-8460762D02*
X7414048Y-8479810D01*
X7595000Y-8365524D02*
X7718810Y-8365524D01*
X7718810Y-8365524D02*
X7652143Y-8441714D01*
X7652143Y-8441714D02*
X7680714Y-8441714D01*
X7680714Y-8441714D02*
X7699762Y-8451238D01*
X7699762Y-8451238D02*
X7709286Y-8460762D01*
X7709286Y-8460762D02*
X7718810Y-8479810D01*
X7718810Y-8479810D02*
X7718810Y-8527429D01*
X7718810Y-8527429D02*
X7709286Y-8546476D01*
X7709286Y-8546476D02*
X7699762Y-8556000D01*
X7699762Y-8556000D02*
X7680714Y-8565524D01*
X7680714Y-8565524D02*
X7623572Y-8565524D01*
X7623572Y-8565524D02*
X7604524Y-8556000D01*
X7604524Y-8556000D02*
X7595000Y-8546476D01*
X7842619Y-8365524D02*
X7861667Y-8365524D01*
X7861667Y-8365524D02*
X7880714Y-8375048D01*
X7880714Y-8375048D02*
X7890238Y-8384571D01*
X7890238Y-8384571D02*
X7899762Y-8403619D01*
X7899762Y-8403619D02*
X7909286Y-8441714D01*
X7909286Y-8441714D02*
X7909286Y-8489333D01*
X7909286Y-8489333D02*
X7899762Y-8527429D01*
X7899762Y-8527429D02*
X7890238Y-8546476D01*
X7890238Y-8546476D02*
X7880714Y-8556000D01*
X7880714Y-8556000D02*
X7861667Y-8565524D01*
X7861667Y-8565524D02*
X7842619Y-8565524D01*
X7842619Y-8565524D02*
X7823572Y-8556000D01*
X7823572Y-8556000D02*
X7814048Y-8546476D01*
X7814048Y-8546476D02*
X7804524Y-8527429D01*
X7804524Y-8527429D02*
X7795000Y-8489333D01*
X7795000Y-8489333D02*
X7795000Y-8441714D01*
X7795000Y-8441714D02*
X7804524Y-8403619D01*
X7804524Y-8403619D02*
X7814048Y-8384571D01*
X7814048Y-8384571D02*
X7823572Y-8375048D01*
X7823572Y-8375048D02*
X7842619Y-8365524D01*
X7985476Y-8365524D02*
X7985476Y-8403619D01*
X8061667Y-8365524D02*
X8061667Y-8403619D01*
X8356905Y-8641714D02*
X8347381Y-8632190D01*
X8347381Y-8632190D02*
X8328334Y-8603619D01*
X8328334Y-8603619D02*
X8318810Y-8584571D01*
X8318810Y-8584571D02*
X8309286Y-8556000D01*
X8309286Y-8556000D02*
X8299762Y-8508381D01*
X8299762Y-8508381D02*
X8299762Y-8470286D01*
X8299762Y-8470286D02*
X8309286Y-8422667D01*
X8309286Y-8422667D02*
X8318810Y-8394095D01*
X8318810Y-8394095D02*
X8328334Y-8375048D01*
X8328334Y-8375048D02*
X8347381Y-8346476D01*
X8347381Y-8346476D02*
X8356905Y-8336952D01*
X8423572Y-8384571D02*
X8433096Y-8375048D01*
X8433096Y-8375048D02*
X8452143Y-8365524D01*
X8452143Y-8365524D02*
X8499762Y-8365524D01*
X8499762Y-8365524D02*
X8518810Y-8375048D01*
X8518810Y-8375048D02*
X8528334Y-8384571D01*
X8528334Y-8384571D02*
X8537857Y-8403619D01*
X8537857Y-8403619D02*
X8537857Y-8422667D01*
X8537857Y-8422667D02*
X8528334Y-8451238D01*
X8528334Y-8451238D02*
X8414048Y-8565524D01*
X8414048Y-8565524D02*
X8537857Y-8565524D01*
X8775953Y-8565524D02*
X8775953Y-8365524D01*
X8861667Y-8565524D02*
X8861667Y-8460762D01*
X8861667Y-8460762D02*
X8852143Y-8441714D01*
X8852143Y-8441714D02*
X8833096Y-8432190D01*
X8833096Y-8432190D02*
X8804524Y-8432190D01*
X8804524Y-8432190D02*
X8785477Y-8441714D01*
X8785477Y-8441714D02*
X8775953Y-8451238D01*
X8985477Y-8565524D02*
X8966429Y-8556000D01*
X8966429Y-8556000D02*
X8956905Y-8546476D01*
X8956905Y-8546476D02*
X8947381Y-8527429D01*
X8947381Y-8527429D02*
X8947381Y-8470286D01*
X8947381Y-8470286D02*
X8956905Y-8451238D01*
X8956905Y-8451238D02*
X8966429Y-8441714D01*
X8966429Y-8441714D02*
X8985477Y-8432190D01*
X8985477Y-8432190D02*
X9014048Y-8432190D01*
X9014048Y-8432190D02*
X9033096Y-8441714D01*
X9033096Y-8441714D02*
X9042619Y-8451238D01*
X9042619Y-8451238D02*
X9052143Y-8470286D01*
X9052143Y-8470286D02*
X9052143Y-8527429D01*
X9052143Y-8527429D02*
X9042619Y-8546476D01*
X9042619Y-8546476D02*
X9033096Y-8556000D01*
X9033096Y-8556000D02*
X9014048Y-8565524D01*
X9014048Y-8565524D02*
X8985477Y-8565524D01*
X9166429Y-8565524D02*
X9147381Y-8556000D01*
X9147381Y-8556000D02*
X9137858Y-8536952D01*
X9137858Y-8536952D02*
X9137858Y-8365524D01*
X9318810Y-8556000D02*
X9299762Y-8565524D01*
X9299762Y-8565524D02*
X9261667Y-8565524D01*
X9261667Y-8565524D02*
X9242619Y-8556000D01*
X9242619Y-8556000D02*
X9233096Y-8536952D01*
X9233096Y-8536952D02*
X9233096Y-8460762D01*
X9233096Y-8460762D02*
X9242619Y-8441714D01*
X9242619Y-8441714D02*
X9261667Y-8432190D01*
X9261667Y-8432190D02*
X9299762Y-8432190D01*
X9299762Y-8432190D02*
X9318810Y-8441714D01*
X9318810Y-8441714D02*
X9328334Y-8460762D01*
X9328334Y-8460762D02*
X9328334Y-8479810D01*
X9328334Y-8479810D02*
X9233096Y-8498857D01*
X9404524Y-8556000D02*
X9423572Y-8565524D01*
X9423572Y-8565524D02*
X9461667Y-8565524D01*
X9461667Y-8565524D02*
X9480715Y-8556000D01*
X9480715Y-8556000D02*
X9490239Y-8536952D01*
X9490239Y-8536952D02*
X9490239Y-8527429D01*
X9490239Y-8527429D02*
X9480715Y-8508381D01*
X9480715Y-8508381D02*
X9461667Y-8498857D01*
X9461667Y-8498857D02*
X9433096Y-8498857D01*
X9433096Y-8498857D02*
X9414048Y-8489333D01*
X9414048Y-8489333D02*
X9404524Y-8470286D01*
X9404524Y-8470286D02*
X9404524Y-8460762D01*
X9404524Y-8460762D02*
X9414048Y-8441714D01*
X9414048Y-8441714D02*
X9433096Y-8432190D01*
X9433096Y-8432190D02*
X9461667Y-8432190D01*
X9461667Y-8432190D02*
X9480715Y-8441714D01*
X9556905Y-8641714D02*
X9566429Y-8632190D01*
X9566429Y-8632190D02*
X9585477Y-8603619D01*
X9585477Y-8603619D02*
X9595000Y-8584571D01*
X9595000Y-8584571D02*
X9604524Y-8556000D01*
X9604524Y-8556000D02*
X9614048Y-8508381D01*
X9614048Y-8508381D02*
X9614048Y-8470286D01*
X9614048Y-8470286D02*
X9604524Y-8422667D01*
X9604524Y-8422667D02*
X9595000Y-8394095D01*
X9595000Y-8394095D02*
X9585477Y-8375048D01*
X9585477Y-8375048D02*
X9566429Y-8346476D01*
X9566429Y-8346476D02*
X9556905Y-8336952D01*
M02*
