%TF.GenerationSoftware,KiCad,Pcbnew,7.0.2-6a45011f42~172~ubuntu22.04.1*%
%TF.CreationDate,2023-07-12T14:03:09-05:00*%
%TF.ProjectId,Encoder,456e636f-6465-4722-9e6b-696361645f70,rev?*%
%TF.SameCoordinates,Original*%
%TF.FileFunction,AssemblyDrawing,Top*%
%FSLAX46Y46*%
G04 Gerber Fmt 4.6, Leading zero omitted, Abs format (unit mm)*
G04 Created by KiCad (PCBNEW 7.0.2-6a45011f42~172~ubuntu22.04.1) date 2023-07-12 14:03:09*
%MOMM*%
%LPD*%
G01*
G04 APERTURE LIST*
%ADD10C,0.150000*%
%ADD11C,0.060000*%
%ADD12C,0.100000*%
G04 APERTURE END LIST*
D10*
%TO.C,C1*%
X55232619Y-65223809D02*
X55232619Y-65795237D01*
X55232619Y-65509523D02*
X54232619Y-65509523D01*
X54232619Y-65509523D02*
X54375476Y-65604761D01*
X54375476Y-65604761D02*
X54470714Y-65699999D01*
X54470714Y-65699999D02*
X54518333Y-65795237D01*
X54232619Y-64604761D02*
X54232619Y-64509523D01*
X54232619Y-64509523D02*
X54280238Y-64414285D01*
X54280238Y-64414285D02*
X54327857Y-64366666D01*
X54327857Y-64366666D02*
X54423095Y-64319047D01*
X54423095Y-64319047D02*
X54613571Y-64271428D01*
X54613571Y-64271428D02*
X54851666Y-64271428D01*
X54851666Y-64271428D02*
X55042142Y-64319047D01*
X55042142Y-64319047D02*
X55137380Y-64366666D01*
X55137380Y-64366666D02*
X55185000Y-64414285D01*
X55185000Y-64414285D02*
X55232619Y-64509523D01*
X55232619Y-64509523D02*
X55232619Y-64604761D01*
X55232619Y-64604761D02*
X55185000Y-64699999D01*
X55185000Y-64699999D02*
X55137380Y-64747618D01*
X55137380Y-64747618D02*
X55042142Y-64795237D01*
X55042142Y-64795237D02*
X54851666Y-64842856D01*
X54851666Y-64842856D02*
X54613571Y-64842856D01*
X54613571Y-64842856D02*
X54423095Y-64795237D01*
X54423095Y-64795237D02*
X54327857Y-64747618D01*
X54327857Y-64747618D02*
X54280238Y-64699999D01*
X54280238Y-64699999D02*
X54232619Y-64604761D01*
X54232619Y-63652380D02*
X54232619Y-63557142D01*
X54232619Y-63557142D02*
X54280238Y-63461904D01*
X54280238Y-63461904D02*
X54327857Y-63414285D01*
X54327857Y-63414285D02*
X54423095Y-63366666D01*
X54423095Y-63366666D02*
X54613571Y-63319047D01*
X54613571Y-63319047D02*
X54851666Y-63319047D01*
X54851666Y-63319047D02*
X55042142Y-63366666D01*
X55042142Y-63366666D02*
X55137380Y-63414285D01*
X55137380Y-63414285D02*
X55185000Y-63461904D01*
X55185000Y-63461904D02*
X55232619Y-63557142D01*
X55232619Y-63557142D02*
X55232619Y-63652380D01*
X55232619Y-63652380D02*
X55185000Y-63747618D01*
X55185000Y-63747618D02*
X55137380Y-63795237D01*
X55137380Y-63795237D02*
X55042142Y-63842856D01*
X55042142Y-63842856D02*
X54851666Y-63890475D01*
X54851666Y-63890475D02*
X54613571Y-63890475D01*
X54613571Y-63890475D02*
X54423095Y-63842856D01*
X54423095Y-63842856D02*
X54327857Y-63795237D01*
X54327857Y-63795237D02*
X54280238Y-63747618D01*
X54280238Y-63747618D02*
X54232619Y-63652380D01*
X54232619Y-62699999D02*
X54232619Y-62604761D01*
X54232619Y-62604761D02*
X54280238Y-62509523D01*
X54280238Y-62509523D02*
X54327857Y-62461904D01*
X54327857Y-62461904D02*
X54423095Y-62414285D01*
X54423095Y-62414285D02*
X54613571Y-62366666D01*
X54613571Y-62366666D02*
X54851666Y-62366666D01*
X54851666Y-62366666D02*
X55042142Y-62414285D01*
X55042142Y-62414285D02*
X55137380Y-62461904D01*
X55137380Y-62461904D02*
X55185000Y-62509523D01*
X55185000Y-62509523D02*
X55232619Y-62604761D01*
X55232619Y-62604761D02*
X55232619Y-62699999D01*
X55232619Y-62699999D02*
X55185000Y-62795237D01*
X55185000Y-62795237D02*
X55137380Y-62842856D01*
X55137380Y-62842856D02*
X55042142Y-62890475D01*
X55042142Y-62890475D02*
X54851666Y-62938094D01*
X54851666Y-62938094D02*
X54613571Y-62938094D01*
X54613571Y-62938094D02*
X54423095Y-62890475D01*
X54423095Y-62890475D02*
X54327857Y-62842856D01*
X54327857Y-62842856D02*
X54280238Y-62795237D01*
X54280238Y-62795237D02*
X54232619Y-62699999D01*
X54565952Y-61938094D02*
X55232619Y-61938094D01*
X54661190Y-61938094D02*
X54613571Y-61890475D01*
X54613571Y-61890475D02*
X54565952Y-61795237D01*
X54565952Y-61795237D02*
X54565952Y-61652380D01*
X54565952Y-61652380D02*
X54613571Y-61557142D01*
X54613571Y-61557142D02*
X54708809Y-61509523D01*
X54708809Y-61509523D02*
X55232619Y-61509523D01*
X54708809Y-60699999D02*
X54708809Y-61033332D01*
X55232619Y-61033332D02*
X54232619Y-61033332D01*
X54232619Y-61033332D02*
X54232619Y-60557142D01*
D11*
X56346952Y-63266666D02*
X56366000Y-63285714D01*
X56366000Y-63285714D02*
X56385047Y-63342856D01*
X56385047Y-63342856D02*
X56385047Y-63380952D01*
X56385047Y-63380952D02*
X56366000Y-63438095D01*
X56366000Y-63438095D02*
X56327904Y-63476190D01*
X56327904Y-63476190D02*
X56289809Y-63495237D01*
X56289809Y-63495237D02*
X56213619Y-63514285D01*
X56213619Y-63514285D02*
X56156476Y-63514285D01*
X56156476Y-63514285D02*
X56080285Y-63495237D01*
X56080285Y-63495237D02*
X56042190Y-63476190D01*
X56042190Y-63476190D02*
X56004095Y-63438095D01*
X56004095Y-63438095D02*
X55985047Y-63380952D01*
X55985047Y-63380952D02*
X55985047Y-63342856D01*
X55985047Y-63342856D02*
X56004095Y-63285714D01*
X56004095Y-63285714D02*
X56023142Y-63266666D01*
X56385047Y-62885714D02*
X56385047Y-63114285D01*
X56385047Y-62999999D02*
X55985047Y-62999999D01*
X55985047Y-62999999D02*
X56042190Y-63038095D01*
X56042190Y-63038095D02*
X56080285Y-63076190D01*
X56080285Y-63076190D02*
X56099333Y-63114285D01*
D10*
%TO.C,U1*%
X57880952Y-57226904D02*
X58357142Y-57226904D01*
X57785714Y-57512619D02*
X58119047Y-56512619D01*
X58119047Y-56512619D02*
X58452380Y-57512619D01*
X58738095Y-57465000D02*
X58880952Y-57512619D01*
X58880952Y-57512619D02*
X59119047Y-57512619D01*
X59119047Y-57512619D02*
X59214285Y-57465000D01*
X59214285Y-57465000D02*
X59261904Y-57417380D01*
X59261904Y-57417380D02*
X59309523Y-57322142D01*
X59309523Y-57322142D02*
X59309523Y-57226904D01*
X59309523Y-57226904D02*
X59261904Y-57131666D01*
X59261904Y-57131666D02*
X59214285Y-57084047D01*
X59214285Y-57084047D02*
X59119047Y-57036428D01*
X59119047Y-57036428D02*
X58928571Y-56988809D01*
X58928571Y-56988809D02*
X58833333Y-56941190D01*
X58833333Y-56941190D02*
X58785714Y-56893571D01*
X58785714Y-56893571D02*
X58738095Y-56798333D01*
X58738095Y-56798333D02*
X58738095Y-56703095D01*
X58738095Y-56703095D02*
X58785714Y-56607857D01*
X58785714Y-56607857D02*
X58833333Y-56560238D01*
X58833333Y-56560238D02*
X58928571Y-56512619D01*
X58928571Y-56512619D02*
X59166666Y-56512619D01*
X59166666Y-56512619D02*
X59309523Y-56560238D01*
X60214285Y-56512619D02*
X59738095Y-56512619D01*
X59738095Y-56512619D02*
X59690476Y-56988809D01*
X59690476Y-56988809D02*
X59738095Y-56941190D01*
X59738095Y-56941190D02*
X59833333Y-56893571D01*
X59833333Y-56893571D02*
X60071428Y-56893571D01*
X60071428Y-56893571D02*
X60166666Y-56941190D01*
X60166666Y-56941190D02*
X60214285Y-56988809D01*
X60214285Y-56988809D02*
X60261904Y-57084047D01*
X60261904Y-57084047D02*
X60261904Y-57322142D01*
X60261904Y-57322142D02*
X60214285Y-57417380D01*
X60214285Y-57417380D02*
X60166666Y-57465000D01*
X60166666Y-57465000D02*
X60071428Y-57512619D01*
X60071428Y-57512619D02*
X59833333Y-57512619D01*
X59833333Y-57512619D02*
X59738095Y-57465000D01*
X59738095Y-57465000D02*
X59690476Y-57417380D01*
X60880952Y-56512619D02*
X60976190Y-56512619D01*
X60976190Y-56512619D02*
X61071428Y-56560238D01*
X61071428Y-56560238D02*
X61119047Y-56607857D01*
X61119047Y-56607857D02*
X61166666Y-56703095D01*
X61166666Y-56703095D02*
X61214285Y-56893571D01*
X61214285Y-56893571D02*
X61214285Y-57131666D01*
X61214285Y-57131666D02*
X61166666Y-57322142D01*
X61166666Y-57322142D02*
X61119047Y-57417380D01*
X61119047Y-57417380D02*
X61071428Y-57465000D01*
X61071428Y-57465000D02*
X60976190Y-57512619D01*
X60976190Y-57512619D02*
X60880952Y-57512619D01*
X60880952Y-57512619D02*
X60785714Y-57465000D01*
X60785714Y-57465000D02*
X60738095Y-57417380D01*
X60738095Y-57417380D02*
X60690476Y-57322142D01*
X60690476Y-57322142D02*
X60642857Y-57131666D01*
X60642857Y-57131666D02*
X60642857Y-56893571D01*
X60642857Y-56893571D02*
X60690476Y-56703095D01*
X60690476Y-56703095D02*
X60738095Y-56607857D01*
X60738095Y-56607857D02*
X60785714Y-56560238D01*
X60785714Y-56560238D02*
X60880952Y-56512619D01*
X62071428Y-56845952D02*
X62071428Y-57512619D01*
X61833333Y-56465000D02*
X61595238Y-57179285D01*
X61595238Y-57179285D02*
X62214285Y-57179285D01*
X62500000Y-56512619D02*
X63166666Y-56512619D01*
X63166666Y-56512619D02*
X62738095Y-57512619D01*
X63547619Y-57512619D02*
X63547619Y-56512619D01*
X63547619Y-56512619D02*
X63785714Y-56512619D01*
X63785714Y-56512619D02*
X63928571Y-56560238D01*
X63928571Y-56560238D02*
X64023809Y-56655476D01*
X64023809Y-56655476D02*
X64071428Y-56750714D01*
X64071428Y-56750714D02*
X64119047Y-56941190D01*
X64119047Y-56941190D02*
X64119047Y-57084047D01*
X64119047Y-57084047D02*
X64071428Y-57274523D01*
X64071428Y-57274523D02*
X64023809Y-57369761D01*
X64023809Y-57369761D02*
X63928571Y-57465000D01*
X63928571Y-57465000D02*
X63785714Y-57512619D01*
X63785714Y-57512619D02*
X63547619Y-57512619D01*
X60238095Y-59962619D02*
X60238095Y-60772142D01*
X60238095Y-60772142D02*
X60285714Y-60867380D01*
X60285714Y-60867380D02*
X60333333Y-60915000D01*
X60333333Y-60915000D02*
X60428571Y-60962619D01*
X60428571Y-60962619D02*
X60619047Y-60962619D01*
X60619047Y-60962619D02*
X60714285Y-60915000D01*
X60714285Y-60915000D02*
X60761904Y-60867380D01*
X60761904Y-60867380D02*
X60809523Y-60772142D01*
X60809523Y-60772142D02*
X60809523Y-59962619D01*
X61809523Y-60962619D02*
X61238095Y-60962619D01*
X61523809Y-60962619D02*
X61523809Y-59962619D01*
X61523809Y-59962619D02*
X61428571Y-60105476D01*
X61428571Y-60105476D02*
X61333333Y-60200714D01*
X61333333Y-60200714D02*
X61238095Y-60248333D01*
D12*
%TO.C,C1*%
X56600000Y-62400000D02*
X56600000Y-64000000D01*
X55800000Y-62400000D02*
X56600000Y-62400000D01*
X56600000Y-64000000D02*
X55800000Y-64000000D01*
X55800000Y-64000000D02*
X55800000Y-62400000D01*
%TO.C,U1*%
X63200000Y-62000000D02*
X62200000Y-63000000D01*
X63200000Y-58000000D02*
X63200000Y-62000000D01*
X62200000Y-63000000D02*
X58800000Y-63000000D01*
X58800000Y-63000000D02*
X58800000Y-58000000D01*
X58800000Y-58000000D02*
X63200000Y-58000000D01*
%TD*%
M02*
