%TF.GenerationSoftware,KiCad,Pcbnew,7.0.2-6a45011f42~172~ubuntu22.04.1*%
%TF.CreationDate,2023-07-12T13:58:45-05:00*%
%TF.ProjectId,Encoder,456e636f-6465-4722-9e6b-696361645f70,rev?*%
%TF.SameCoordinates,Original*%
%TF.FileFunction,Drillmap*%
%TF.FilePolarity,Positive*%
%FSLAX45Y45*%
G04 Gerber Fmt 4.5, Leading zero omitted, Abs format (unit mm)*
G04 Created by KiCad (PCBNEW 7.0.2-6a45011f42~172~ubuntu22.04.1) date 2023-07-12 13:58:45*
%MOMM*%
%LPD*%
G01*
G04 APERTURE LIST*
%ADD10C,0.100000*%
%ADD11C,0.200000*%
%ADD12C,0.325000*%
G04 APERTURE END LIST*
D10*
X7360000Y-5000000D02*
G75*
G03*
X7360000Y-5000000I-160000J0D01*
G01*
X5160000Y-5000000D02*
G75*
G03*
X5160000Y-5000000I-160000J0D01*
G01*
X4800000Y-4800000D02*
X7400000Y-4800000D01*
X7400000Y-7300000D01*
X4800000Y-7300000D01*
X4800000Y-4800000D01*
X5160000Y-7100000D02*
G75*
G03*
X5160000Y-7100000I-160000J0D01*
G01*
X7360000Y-7100000D02*
G75*
G03*
X7360000Y-7100000I-160000J0D01*
G01*
D11*
D12*
X5370500Y-5776500D02*
X5695500Y-6101500D01*
X5695500Y-5776500D02*
X5370500Y-6101500D01*
X6513500Y-5776500D02*
X6838500Y-6101500D01*
X6838500Y-5776500D02*
X6513500Y-6101500D01*
D11*
X5042619Y-7617524D02*
X5042619Y-7417524D01*
X5042619Y-7417524D02*
X5090238Y-7417524D01*
X5090238Y-7417524D02*
X5118810Y-7427048D01*
X5118810Y-7427048D02*
X5137857Y-7446095D01*
X5137857Y-7446095D02*
X5147381Y-7465143D01*
X5147381Y-7465143D02*
X5156905Y-7503238D01*
X5156905Y-7503238D02*
X5156905Y-7531809D01*
X5156905Y-7531809D02*
X5147381Y-7569905D01*
X5147381Y-7569905D02*
X5137857Y-7588952D01*
X5137857Y-7588952D02*
X5118810Y-7608000D01*
X5118810Y-7608000D02*
X5090238Y-7617524D01*
X5090238Y-7617524D02*
X5042619Y-7617524D01*
X5242619Y-7617524D02*
X5242619Y-7484190D01*
X5242619Y-7522286D02*
X5252143Y-7503238D01*
X5252143Y-7503238D02*
X5261667Y-7493714D01*
X5261667Y-7493714D02*
X5280714Y-7484190D01*
X5280714Y-7484190D02*
X5299762Y-7484190D01*
X5366429Y-7617524D02*
X5366429Y-7484190D01*
X5366429Y-7417524D02*
X5356905Y-7427048D01*
X5356905Y-7427048D02*
X5366429Y-7436571D01*
X5366429Y-7436571D02*
X5375952Y-7427048D01*
X5375952Y-7427048D02*
X5366429Y-7417524D01*
X5366429Y-7417524D02*
X5366429Y-7436571D01*
X5490238Y-7617524D02*
X5471190Y-7608000D01*
X5471190Y-7608000D02*
X5461667Y-7588952D01*
X5461667Y-7588952D02*
X5461667Y-7417524D01*
X5595000Y-7617524D02*
X5575952Y-7608000D01*
X5575952Y-7608000D02*
X5566429Y-7588952D01*
X5566429Y-7588952D02*
X5566429Y-7417524D01*
X5823571Y-7617524D02*
X5823571Y-7417524D01*
X5823571Y-7417524D02*
X5890238Y-7560381D01*
X5890238Y-7560381D02*
X5956905Y-7417524D01*
X5956905Y-7417524D02*
X5956905Y-7617524D01*
X6137857Y-7617524D02*
X6137857Y-7512762D01*
X6137857Y-7512762D02*
X6128333Y-7493714D01*
X6128333Y-7493714D02*
X6109286Y-7484190D01*
X6109286Y-7484190D02*
X6071190Y-7484190D01*
X6071190Y-7484190D02*
X6052143Y-7493714D01*
X6137857Y-7608000D02*
X6118809Y-7617524D01*
X6118809Y-7617524D02*
X6071190Y-7617524D01*
X6071190Y-7617524D02*
X6052143Y-7608000D01*
X6052143Y-7608000D02*
X6042619Y-7588952D01*
X6042619Y-7588952D02*
X6042619Y-7569905D01*
X6042619Y-7569905D02*
X6052143Y-7550857D01*
X6052143Y-7550857D02*
X6071190Y-7541333D01*
X6071190Y-7541333D02*
X6118809Y-7541333D01*
X6118809Y-7541333D02*
X6137857Y-7531809D01*
X6233095Y-7484190D02*
X6233095Y-7684190D01*
X6233095Y-7493714D02*
X6252143Y-7484190D01*
X6252143Y-7484190D02*
X6290238Y-7484190D01*
X6290238Y-7484190D02*
X6309286Y-7493714D01*
X6309286Y-7493714D02*
X6318809Y-7503238D01*
X6318809Y-7503238D02*
X6328333Y-7522286D01*
X6328333Y-7522286D02*
X6328333Y-7579428D01*
X6328333Y-7579428D02*
X6318809Y-7598476D01*
X6318809Y-7598476D02*
X6309286Y-7608000D01*
X6309286Y-7608000D02*
X6290238Y-7617524D01*
X6290238Y-7617524D02*
X6252143Y-7617524D01*
X6252143Y-7617524D02*
X6233095Y-7608000D01*
X6414048Y-7598476D02*
X6423571Y-7608000D01*
X6423571Y-7608000D02*
X6414048Y-7617524D01*
X6414048Y-7617524D02*
X6404524Y-7608000D01*
X6404524Y-7608000D02*
X6414048Y-7598476D01*
X6414048Y-7598476D02*
X6414048Y-7617524D01*
X6414048Y-7493714D02*
X6423571Y-7503238D01*
X6423571Y-7503238D02*
X6414048Y-7512762D01*
X6414048Y-7512762D02*
X6404524Y-7503238D01*
X6404524Y-7503238D02*
X6414048Y-7493714D01*
X6414048Y-7493714D02*
X6414048Y-7512762D01*
X4595000Y-7845000D02*
X4795000Y-8045000D01*
X4795000Y-7845000D02*
X4595000Y-8045000D01*
X5023571Y-7837524D02*
X5147381Y-7837524D01*
X5147381Y-7837524D02*
X5080714Y-7913714D01*
X5080714Y-7913714D02*
X5109286Y-7913714D01*
X5109286Y-7913714D02*
X5128333Y-7923238D01*
X5128333Y-7923238D02*
X5137857Y-7932762D01*
X5137857Y-7932762D02*
X5147381Y-7951809D01*
X5147381Y-7951809D02*
X5147381Y-7999428D01*
X5147381Y-7999428D02*
X5137857Y-8018476D01*
X5137857Y-8018476D02*
X5128333Y-8028000D01*
X5128333Y-8028000D02*
X5109286Y-8037524D01*
X5109286Y-8037524D02*
X5052143Y-8037524D01*
X5052143Y-8037524D02*
X5033095Y-8028000D01*
X5033095Y-8028000D02*
X5023571Y-8018476D01*
X5233095Y-8018476D02*
X5242619Y-8028000D01*
X5242619Y-8028000D02*
X5233095Y-8037524D01*
X5233095Y-8037524D02*
X5223571Y-8028000D01*
X5223571Y-8028000D02*
X5233095Y-8018476D01*
X5233095Y-8018476D02*
X5233095Y-8037524D01*
X5318810Y-7856571D02*
X5328333Y-7847048D01*
X5328333Y-7847048D02*
X5347381Y-7837524D01*
X5347381Y-7837524D02*
X5395000Y-7837524D01*
X5395000Y-7837524D02*
X5414048Y-7847048D01*
X5414048Y-7847048D02*
X5423571Y-7856571D01*
X5423571Y-7856571D02*
X5433095Y-7875619D01*
X5433095Y-7875619D02*
X5433095Y-7894667D01*
X5433095Y-7894667D02*
X5423571Y-7923238D01*
X5423571Y-7923238D02*
X5309286Y-8037524D01*
X5309286Y-8037524D02*
X5433095Y-8037524D01*
X5614048Y-7837524D02*
X5518810Y-7837524D01*
X5518810Y-7837524D02*
X5509286Y-7932762D01*
X5509286Y-7932762D02*
X5518810Y-7923238D01*
X5518810Y-7923238D02*
X5537857Y-7913714D01*
X5537857Y-7913714D02*
X5585476Y-7913714D01*
X5585476Y-7913714D02*
X5604524Y-7923238D01*
X5604524Y-7923238D02*
X5614048Y-7932762D01*
X5614048Y-7932762D02*
X5623571Y-7951809D01*
X5623571Y-7951809D02*
X5623571Y-7999428D01*
X5623571Y-7999428D02*
X5614048Y-8018476D01*
X5614048Y-8018476D02*
X5604524Y-8028000D01*
X5604524Y-8028000D02*
X5585476Y-8037524D01*
X5585476Y-8037524D02*
X5537857Y-8037524D01*
X5537857Y-8037524D02*
X5518810Y-8028000D01*
X5518810Y-8028000D02*
X5509286Y-8018476D01*
X5747381Y-7837524D02*
X5766429Y-7837524D01*
X5766429Y-7837524D02*
X5785476Y-7847048D01*
X5785476Y-7847048D02*
X5795000Y-7856571D01*
X5795000Y-7856571D02*
X5804524Y-7875619D01*
X5804524Y-7875619D02*
X5814048Y-7913714D01*
X5814048Y-7913714D02*
X5814048Y-7961333D01*
X5814048Y-7961333D02*
X5804524Y-7999428D01*
X5804524Y-7999428D02*
X5795000Y-8018476D01*
X5795000Y-8018476D02*
X5785476Y-8028000D01*
X5785476Y-8028000D02*
X5766429Y-8037524D01*
X5766429Y-8037524D02*
X5747381Y-8037524D01*
X5747381Y-8037524D02*
X5728333Y-8028000D01*
X5728333Y-8028000D02*
X5718809Y-8018476D01*
X5718809Y-8018476D02*
X5709286Y-7999428D01*
X5709286Y-7999428D02*
X5699762Y-7961333D01*
X5699762Y-7961333D02*
X5699762Y-7913714D01*
X5699762Y-7913714D02*
X5709286Y-7875619D01*
X5709286Y-7875619D02*
X5718809Y-7856571D01*
X5718809Y-7856571D02*
X5728333Y-7847048D01*
X5728333Y-7847048D02*
X5747381Y-7837524D01*
X5899762Y-8037524D02*
X5899762Y-7904190D01*
X5899762Y-7923238D02*
X5909286Y-7913714D01*
X5909286Y-7913714D02*
X5928333Y-7904190D01*
X5928333Y-7904190D02*
X5956905Y-7904190D01*
X5956905Y-7904190D02*
X5975952Y-7913714D01*
X5975952Y-7913714D02*
X5985476Y-7932762D01*
X5985476Y-7932762D02*
X5985476Y-8037524D01*
X5985476Y-7932762D02*
X5995000Y-7913714D01*
X5995000Y-7913714D02*
X6014048Y-7904190D01*
X6014048Y-7904190D02*
X6042619Y-7904190D01*
X6042619Y-7904190D02*
X6061667Y-7913714D01*
X6061667Y-7913714D02*
X6071190Y-7932762D01*
X6071190Y-7932762D02*
X6071190Y-8037524D01*
X6166429Y-8037524D02*
X6166429Y-7904190D01*
X6166429Y-7923238D02*
X6175952Y-7913714D01*
X6175952Y-7913714D02*
X6195000Y-7904190D01*
X6195000Y-7904190D02*
X6223571Y-7904190D01*
X6223571Y-7904190D02*
X6242619Y-7913714D01*
X6242619Y-7913714D02*
X6252143Y-7932762D01*
X6252143Y-7932762D02*
X6252143Y-8037524D01*
X6252143Y-7932762D02*
X6261667Y-7913714D01*
X6261667Y-7913714D02*
X6280714Y-7904190D01*
X6280714Y-7904190D02*
X6309286Y-7904190D01*
X6309286Y-7904190D02*
X6328333Y-7913714D01*
X6328333Y-7913714D02*
X6337857Y-7932762D01*
X6337857Y-7932762D02*
X6337857Y-8037524D01*
X6728333Y-7828000D02*
X6556905Y-8085143D01*
X6985476Y-7837524D02*
X7004524Y-7837524D01*
X7004524Y-7837524D02*
X7023572Y-7847048D01*
X7023572Y-7847048D02*
X7033095Y-7856571D01*
X7033095Y-7856571D02*
X7042619Y-7875619D01*
X7042619Y-7875619D02*
X7052143Y-7913714D01*
X7052143Y-7913714D02*
X7052143Y-7961333D01*
X7052143Y-7961333D02*
X7042619Y-7999428D01*
X7042619Y-7999428D02*
X7033095Y-8018476D01*
X7033095Y-8018476D02*
X7023572Y-8028000D01*
X7023572Y-8028000D02*
X7004524Y-8037524D01*
X7004524Y-8037524D02*
X6985476Y-8037524D01*
X6985476Y-8037524D02*
X6966429Y-8028000D01*
X6966429Y-8028000D02*
X6956905Y-8018476D01*
X6956905Y-8018476D02*
X6947381Y-7999428D01*
X6947381Y-7999428D02*
X6937857Y-7961333D01*
X6937857Y-7961333D02*
X6937857Y-7913714D01*
X6937857Y-7913714D02*
X6947381Y-7875619D01*
X6947381Y-7875619D02*
X6956905Y-7856571D01*
X6956905Y-7856571D02*
X6966429Y-7847048D01*
X6966429Y-7847048D02*
X6985476Y-7837524D01*
X7137857Y-8018476D02*
X7147381Y-8028000D01*
X7147381Y-8028000D02*
X7137857Y-8037524D01*
X7137857Y-8037524D02*
X7128333Y-8028000D01*
X7128333Y-8028000D02*
X7137857Y-8018476D01*
X7137857Y-8018476D02*
X7137857Y-8037524D01*
X7337857Y-8037524D02*
X7223572Y-8037524D01*
X7280714Y-8037524D02*
X7280714Y-7837524D01*
X7280714Y-7837524D02*
X7261667Y-7866095D01*
X7261667Y-7866095D02*
X7242619Y-7885143D01*
X7242619Y-7885143D02*
X7223572Y-7894667D01*
X7414048Y-7856571D02*
X7423572Y-7847048D01*
X7423572Y-7847048D02*
X7442619Y-7837524D01*
X7442619Y-7837524D02*
X7490238Y-7837524D01*
X7490238Y-7837524D02*
X7509286Y-7847048D01*
X7509286Y-7847048D02*
X7518810Y-7856571D01*
X7518810Y-7856571D02*
X7528333Y-7875619D01*
X7528333Y-7875619D02*
X7528333Y-7894667D01*
X7528333Y-7894667D02*
X7518810Y-7923238D01*
X7518810Y-7923238D02*
X7404524Y-8037524D01*
X7404524Y-8037524D02*
X7528333Y-8037524D01*
X7642619Y-7923238D02*
X7623572Y-7913714D01*
X7623572Y-7913714D02*
X7614048Y-7904190D01*
X7614048Y-7904190D02*
X7604524Y-7885143D01*
X7604524Y-7885143D02*
X7604524Y-7875619D01*
X7604524Y-7875619D02*
X7614048Y-7856571D01*
X7614048Y-7856571D02*
X7623572Y-7847048D01*
X7623572Y-7847048D02*
X7642619Y-7837524D01*
X7642619Y-7837524D02*
X7680714Y-7837524D01*
X7680714Y-7837524D02*
X7699762Y-7847048D01*
X7699762Y-7847048D02*
X7709286Y-7856571D01*
X7709286Y-7856571D02*
X7718810Y-7875619D01*
X7718810Y-7875619D02*
X7718810Y-7885143D01*
X7718810Y-7885143D02*
X7709286Y-7904190D01*
X7709286Y-7904190D02*
X7699762Y-7913714D01*
X7699762Y-7913714D02*
X7680714Y-7923238D01*
X7680714Y-7923238D02*
X7642619Y-7923238D01*
X7642619Y-7923238D02*
X7623572Y-7932762D01*
X7623572Y-7932762D02*
X7614048Y-7942286D01*
X7614048Y-7942286D02*
X7604524Y-7961333D01*
X7604524Y-7961333D02*
X7604524Y-7999428D01*
X7604524Y-7999428D02*
X7614048Y-8018476D01*
X7614048Y-8018476D02*
X7623572Y-8028000D01*
X7623572Y-8028000D02*
X7642619Y-8037524D01*
X7642619Y-8037524D02*
X7680714Y-8037524D01*
X7680714Y-8037524D02*
X7699762Y-8028000D01*
X7699762Y-8028000D02*
X7709286Y-8018476D01*
X7709286Y-8018476D02*
X7718810Y-7999428D01*
X7718810Y-7999428D02*
X7718810Y-7961333D01*
X7718810Y-7961333D02*
X7709286Y-7942286D01*
X7709286Y-7942286D02*
X7699762Y-7932762D01*
X7699762Y-7932762D02*
X7680714Y-7923238D01*
X7842619Y-7837524D02*
X7861667Y-7837524D01*
X7861667Y-7837524D02*
X7880714Y-7847048D01*
X7880714Y-7847048D02*
X7890238Y-7856571D01*
X7890238Y-7856571D02*
X7899762Y-7875619D01*
X7899762Y-7875619D02*
X7909286Y-7913714D01*
X7909286Y-7913714D02*
X7909286Y-7961333D01*
X7909286Y-7961333D02*
X7899762Y-7999428D01*
X7899762Y-7999428D02*
X7890238Y-8018476D01*
X7890238Y-8018476D02*
X7880714Y-8028000D01*
X7880714Y-8028000D02*
X7861667Y-8037524D01*
X7861667Y-8037524D02*
X7842619Y-8037524D01*
X7842619Y-8037524D02*
X7823572Y-8028000D01*
X7823572Y-8028000D02*
X7814048Y-8018476D01*
X7814048Y-8018476D02*
X7804524Y-7999428D01*
X7804524Y-7999428D02*
X7795000Y-7961333D01*
X7795000Y-7961333D02*
X7795000Y-7913714D01*
X7795000Y-7913714D02*
X7804524Y-7875619D01*
X7804524Y-7875619D02*
X7814048Y-7856571D01*
X7814048Y-7856571D02*
X7823572Y-7847048D01*
X7823572Y-7847048D02*
X7842619Y-7837524D01*
X7985476Y-7837524D02*
X7985476Y-7875619D01*
X8061667Y-7837524D02*
X8061667Y-7875619D01*
X8356905Y-8113714D02*
X8347381Y-8104190D01*
X8347381Y-8104190D02*
X8328334Y-8075619D01*
X8328334Y-8075619D02*
X8318810Y-8056571D01*
X8318810Y-8056571D02*
X8309286Y-8028000D01*
X8309286Y-8028000D02*
X8299762Y-7980381D01*
X8299762Y-7980381D02*
X8299762Y-7942286D01*
X8299762Y-7942286D02*
X8309286Y-7894667D01*
X8309286Y-7894667D02*
X8318810Y-7866095D01*
X8318810Y-7866095D02*
X8328334Y-7847048D01*
X8328334Y-7847048D02*
X8347381Y-7818476D01*
X8347381Y-7818476D02*
X8356905Y-7808952D01*
X8423572Y-7856571D02*
X8433096Y-7847048D01*
X8433096Y-7847048D02*
X8452143Y-7837524D01*
X8452143Y-7837524D02*
X8499762Y-7837524D01*
X8499762Y-7837524D02*
X8518810Y-7847048D01*
X8518810Y-7847048D02*
X8528334Y-7856571D01*
X8528334Y-7856571D02*
X8537857Y-7875619D01*
X8537857Y-7875619D02*
X8537857Y-7894667D01*
X8537857Y-7894667D02*
X8528334Y-7923238D01*
X8528334Y-7923238D02*
X8414048Y-8037524D01*
X8414048Y-8037524D02*
X8537857Y-8037524D01*
X8775953Y-8037524D02*
X8775953Y-7837524D01*
X8861667Y-8037524D02*
X8861667Y-7932762D01*
X8861667Y-7932762D02*
X8852143Y-7913714D01*
X8852143Y-7913714D02*
X8833096Y-7904190D01*
X8833096Y-7904190D02*
X8804524Y-7904190D01*
X8804524Y-7904190D02*
X8785477Y-7913714D01*
X8785477Y-7913714D02*
X8775953Y-7923238D01*
X8985477Y-8037524D02*
X8966429Y-8028000D01*
X8966429Y-8028000D02*
X8956905Y-8018476D01*
X8956905Y-8018476D02*
X8947381Y-7999428D01*
X8947381Y-7999428D02*
X8947381Y-7942286D01*
X8947381Y-7942286D02*
X8956905Y-7923238D01*
X8956905Y-7923238D02*
X8966429Y-7913714D01*
X8966429Y-7913714D02*
X8985477Y-7904190D01*
X8985477Y-7904190D02*
X9014048Y-7904190D01*
X9014048Y-7904190D02*
X9033096Y-7913714D01*
X9033096Y-7913714D02*
X9042619Y-7923238D01*
X9042619Y-7923238D02*
X9052143Y-7942286D01*
X9052143Y-7942286D02*
X9052143Y-7999428D01*
X9052143Y-7999428D02*
X9042619Y-8018476D01*
X9042619Y-8018476D02*
X9033096Y-8028000D01*
X9033096Y-8028000D02*
X9014048Y-8037524D01*
X9014048Y-8037524D02*
X8985477Y-8037524D01*
X9166429Y-8037524D02*
X9147381Y-8028000D01*
X9147381Y-8028000D02*
X9137858Y-8008952D01*
X9137858Y-8008952D02*
X9137858Y-7837524D01*
X9318810Y-8028000D02*
X9299762Y-8037524D01*
X9299762Y-8037524D02*
X9261667Y-8037524D01*
X9261667Y-8037524D02*
X9242619Y-8028000D01*
X9242619Y-8028000D02*
X9233096Y-8008952D01*
X9233096Y-8008952D02*
X9233096Y-7932762D01*
X9233096Y-7932762D02*
X9242619Y-7913714D01*
X9242619Y-7913714D02*
X9261667Y-7904190D01*
X9261667Y-7904190D02*
X9299762Y-7904190D01*
X9299762Y-7904190D02*
X9318810Y-7913714D01*
X9318810Y-7913714D02*
X9328334Y-7932762D01*
X9328334Y-7932762D02*
X9328334Y-7951809D01*
X9328334Y-7951809D02*
X9233096Y-7970857D01*
X9404524Y-8028000D02*
X9423572Y-8037524D01*
X9423572Y-8037524D02*
X9461667Y-8037524D01*
X9461667Y-8037524D02*
X9480715Y-8028000D01*
X9480715Y-8028000D02*
X9490239Y-8008952D01*
X9490239Y-8008952D02*
X9490239Y-7999428D01*
X9490239Y-7999428D02*
X9480715Y-7980381D01*
X9480715Y-7980381D02*
X9461667Y-7970857D01*
X9461667Y-7970857D02*
X9433096Y-7970857D01*
X9433096Y-7970857D02*
X9414048Y-7961333D01*
X9414048Y-7961333D02*
X9404524Y-7942286D01*
X9404524Y-7942286D02*
X9404524Y-7932762D01*
X9404524Y-7932762D02*
X9414048Y-7913714D01*
X9414048Y-7913714D02*
X9433096Y-7904190D01*
X9433096Y-7904190D02*
X9461667Y-7904190D01*
X9461667Y-7904190D02*
X9480715Y-7913714D01*
X9556905Y-8113714D02*
X9566429Y-8104190D01*
X9566429Y-8104190D02*
X9585477Y-8075619D01*
X9585477Y-8075619D02*
X9595000Y-8056571D01*
X9595000Y-8056571D02*
X9604524Y-8028000D01*
X9604524Y-8028000D02*
X9614048Y-7980381D01*
X9614048Y-7980381D02*
X9614048Y-7942286D01*
X9614048Y-7942286D02*
X9604524Y-7894667D01*
X9604524Y-7894667D02*
X9595000Y-7866095D01*
X9595000Y-7866095D02*
X9585477Y-7847048D01*
X9585477Y-7847048D02*
X9566429Y-7818476D01*
X9566429Y-7818476D02*
X9556905Y-7808952D01*
X9918810Y-8113714D02*
X9909286Y-8104190D01*
X9909286Y-8104190D02*
X9890239Y-8075619D01*
X9890239Y-8075619D02*
X9880715Y-8056571D01*
X9880715Y-8056571D02*
X9871191Y-8028000D01*
X9871191Y-8028000D02*
X9861667Y-7980381D01*
X9861667Y-7980381D02*
X9861667Y-7942286D01*
X9861667Y-7942286D02*
X9871191Y-7894667D01*
X9871191Y-7894667D02*
X9880715Y-7866095D01*
X9880715Y-7866095D02*
X9890239Y-7847048D01*
X9890239Y-7847048D02*
X9909286Y-7818476D01*
X9909286Y-7818476D02*
X9918810Y-7808952D01*
X9995000Y-7904190D02*
X9995000Y-8037524D01*
X9995000Y-7923238D02*
X10004524Y-7913714D01*
X10004524Y-7913714D02*
X10023572Y-7904190D01*
X10023572Y-7904190D02*
X10052143Y-7904190D01*
X10052143Y-7904190D02*
X10071191Y-7913714D01*
X10071191Y-7913714D02*
X10080715Y-7932762D01*
X10080715Y-7932762D02*
X10080715Y-8037524D01*
X10204524Y-8037524D02*
X10185477Y-8028000D01*
X10185477Y-8028000D02*
X10175953Y-8018476D01*
X10175953Y-8018476D02*
X10166429Y-7999428D01*
X10166429Y-7999428D02*
X10166429Y-7942286D01*
X10166429Y-7942286D02*
X10175953Y-7923238D01*
X10175953Y-7923238D02*
X10185477Y-7913714D01*
X10185477Y-7913714D02*
X10204524Y-7904190D01*
X10204524Y-7904190D02*
X10233096Y-7904190D01*
X10233096Y-7904190D02*
X10252143Y-7913714D01*
X10252143Y-7913714D02*
X10261667Y-7923238D01*
X10261667Y-7923238D02*
X10271191Y-7942286D01*
X10271191Y-7942286D02*
X10271191Y-7999428D01*
X10271191Y-7999428D02*
X10261667Y-8018476D01*
X10261667Y-8018476D02*
X10252143Y-8028000D01*
X10252143Y-8028000D02*
X10233096Y-8037524D01*
X10233096Y-8037524D02*
X10204524Y-8037524D01*
X10328334Y-7904190D02*
X10404524Y-7904190D01*
X10356905Y-7837524D02*
X10356905Y-8008952D01*
X10356905Y-8008952D02*
X10366429Y-8028000D01*
X10366429Y-8028000D02*
X10385477Y-8037524D01*
X10385477Y-8037524D02*
X10404524Y-8037524D01*
X10623572Y-7904190D02*
X10623572Y-8104190D01*
X10623572Y-7913714D02*
X10642620Y-7904190D01*
X10642620Y-7904190D02*
X10680715Y-7904190D01*
X10680715Y-7904190D02*
X10699762Y-7913714D01*
X10699762Y-7913714D02*
X10709286Y-7923238D01*
X10709286Y-7923238D02*
X10718810Y-7942286D01*
X10718810Y-7942286D02*
X10718810Y-7999428D01*
X10718810Y-7999428D02*
X10709286Y-8018476D01*
X10709286Y-8018476D02*
X10699762Y-8028000D01*
X10699762Y-8028000D02*
X10680715Y-8037524D01*
X10680715Y-8037524D02*
X10642620Y-8037524D01*
X10642620Y-8037524D02*
X10623572Y-8028000D01*
X10833096Y-8037524D02*
X10814048Y-8028000D01*
X10814048Y-8028000D02*
X10804524Y-8008952D01*
X10804524Y-8008952D02*
X10804524Y-7837524D01*
X10995001Y-8037524D02*
X10995001Y-7932762D01*
X10995001Y-7932762D02*
X10985477Y-7913714D01*
X10985477Y-7913714D02*
X10966429Y-7904190D01*
X10966429Y-7904190D02*
X10928334Y-7904190D01*
X10928334Y-7904190D02*
X10909286Y-7913714D01*
X10995001Y-8028000D02*
X10975953Y-8037524D01*
X10975953Y-8037524D02*
X10928334Y-8037524D01*
X10928334Y-8037524D02*
X10909286Y-8028000D01*
X10909286Y-8028000D02*
X10899762Y-8008952D01*
X10899762Y-8008952D02*
X10899762Y-7989905D01*
X10899762Y-7989905D02*
X10909286Y-7970857D01*
X10909286Y-7970857D02*
X10928334Y-7961333D01*
X10928334Y-7961333D02*
X10975953Y-7961333D01*
X10975953Y-7961333D02*
X10995001Y-7951809D01*
X11061667Y-7904190D02*
X11137858Y-7904190D01*
X11090239Y-7837524D02*
X11090239Y-8008952D01*
X11090239Y-8008952D02*
X11099762Y-8028000D01*
X11099762Y-8028000D02*
X11118810Y-8037524D01*
X11118810Y-8037524D02*
X11137858Y-8037524D01*
X11280715Y-8028000D02*
X11261667Y-8037524D01*
X11261667Y-8037524D02*
X11223572Y-8037524D01*
X11223572Y-8037524D02*
X11204524Y-8028000D01*
X11204524Y-8028000D02*
X11195000Y-8008952D01*
X11195000Y-8008952D02*
X11195000Y-7932762D01*
X11195000Y-7932762D02*
X11204524Y-7913714D01*
X11204524Y-7913714D02*
X11223572Y-7904190D01*
X11223572Y-7904190D02*
X11261667Y-7904190D01*
X11261667Y-7904190D02*
X11280715Y-7913714D01*
X11280715Y-7913714D02*
X11290239Y-7932762D01*
X11290239Y-7932762D02*
X11290239Y-7951809D01*
X11290239Y-7951809D02*
X11195000Y-7970857D01*
X11461667Y-8037524D02*
X11461667Y-7837524D01*
X11461667Y-8028000D02*
X11442620Y-8037524D01*
X11442620Y-8037524D02*
X11404524Y-8037524D01*
X11404524Y-8037524D02*
X11385477Y-8028000D01*
X11385477Y-8028000D02*
X11375953Y-8018476D01*
X11375953Y-8018476D02*
X11366429Y-7999428D01*
X11366429Y-7999428D02*
X11366429Y-7942286D01*
X11366429Y-7942286D02*
X11375953Y-7923238D01*
X11375953Y-7923238D02*
X11385477Y-7913714D01*
X11385477Y-7913714D02*
X11404524Y-7904190D01*
X11404524Y-7904190D02*
X11442620Y-7904190D01*
X11442620Y-7904190D02*
X11461667Y-7913714D01*
X11537858Y-8113714D02*
X11547381Y-8104190D01*
X11547381Y-8104190D02*
X11566429Y-8075619D01*
X11566429Y-8075619D02*
X11575953Y-8056571D01*
X11575953Y-8056571D02*
X11585477Y-8028000D01*
X11585477Y-8028000D02*
X11595000Y-7980381D01*
X11595000Y-7980381D02*
X11595000Y-7942286D01*
X11595000Y-7942286D02*
X11585477Y-7894667D01*
X11585477Y-7894667D02*
X11575953Y-7866095D01*
X11575953Y-7866095D02*
X11566429Y-7847048D01*
X11566429Y-7847048D02*
X11547381Y-7818476D01*
X11547381Y-7818476D02*
X11537858Y-7808952D01*
M02*
