%TF.GenerationSoftware,KiCad,Pcbnew,7.0.2-6a45011f42~172~ubuntu22.04.1*%
%TF.CreationDate,2023-07-12T14:03:09-05:00*%
%TF.ProjectId,Encoder,456e636f-6465-4722-9e6b-696361645f70,rev?*%
%TF.SameCoordinates,Original*%
%TF.FileFunction,Copper,L1,Top*%
%TF.FilePolarity,Positive*%
%FSLAX46Y46*%
G04 Gerber Fmt 4.6, Leading zero omitted, Abs format (unit mm)*
G04 Created by KiCad (PCBNEW 7.0.2-6a45011f42~172~ubuntu22.04.1) date 2023-07-12 14:03:09*
%MOMM*%
%LPD*%
G01*
G04 APERTURE LIST*
G04 Aperture macros list*
%AMRoundRect*
0 Rectangle with rounded corners*
0 $1 Rounding radius*
0 $2 $3 $4 $5 $6 $7 $8 $9 X,Y pos of 4 corners*
0 Add a 4 corners polygon primitive as box body*
4,1,4,$2,$3,$4,$5,$6,$7,$8,$9,$2,$3,0*
0 Add four circle primitives for the rounded corners*
1,1,$1+$1,$2,$3*
1,1,$1+$1,$4,$5*
1,1,$1+$1,$6,$7*
1,1,$1+$1,$8,$9*
0 Add four rect primitives between the rounded corners*
20,1,$1+$1,$2,$3,$4,$5,0*
20,1,$1+$1,$4,$5,$6,$7,0*
20,1,$1+$1,$6,$7,$8,$9,0*
20,1,$1+$1,$8,$9,$2,$3,0*%
G04 Aperture macros list end*
%TA.AperFunction,SMDPad,CuDef*%
%ADD10RoundRect,0.237500X-0.237500X0.300000X-0.237500X-0.300000X0.237500X-0.300000X0.237500X0.300000X0*%
%TD*%
%TA.AperFunction,SMDPad,CuDef*%
%ADD11RoundRect,0.100000X0.637500X0.100000X-0.637500X0.100000X-0.637500X-0.100000X0.637500X-0.100000X0*%
%TD*%
%TA.AperFunction,ComponentPad*%
%ADD12R,1.500000X1.500000*%
%TD*%
%TA.AperFunction,ComponentPad*%
%ADD13C,1.500000*%
%TD*%
%TA.AperFunction,ComponentPad*%
%ADD14C,3.000000*%
%TD*%
%TA.AperFunction,ViaPad*%
%ADD15C,0.800000*%
%TD*%
%TA.AperFunction,Conductor*%
%ADD16C,0.250000*%
%TD*%
G04 APERTURE END LIST*
D10*
%TO.P,C1,1*%
%TO.N,+3.3V*%
X56200000Y-62337500D03*
%TO.P,C1,2*%
%TO.N,GND*%
X56200000Y-64062500D03*
%TD*%
D11*
%TO.P,U1,1,~{CS}*%
%TO.N,CS*%
X63862500Y-62450000D03*
%TO.P,U1,2,CLK*%
%TO.N,CLK*%
X63862500Y-61800000D03*
%TO.P,U1,3,MISO*%
%TO.N,MISO*%
X63862500Y-61150000D03*
%TO.P,U1,4,MOSI*%
%TO.N,MOSI*%
X63862500Y-60500000D03*
%TO.P,U1,5,TST*%
%TO.N,GND*%
X63862500Y-59850000D03*
%TO.P,U1,6,B*%
%TO.N,unconnected-(U1-B-Pad6)*%
X63862500Y-59200000D03*
%TO.P,U1,7,A*%
%TO.N,unconnected-(U1-A-Pad7)*%
X63862500Y-58550000D03*
%TO.P,U1,8,W/PWM*%
%TO.N,Net-(U1-W{slash}PWM)*%
X58137500Y-58550000D03*
%TO.P,U1,9,V*%
%TO.N,unconnected-(U1-V-Pad9)*%
X58137500Y-59200000D03*
%TO.P,U1,10,U*%
%TO.N,unconnected-(U1-U-Pad10)*%
X58137500Y-59850000D03*
%TO.P,U1,11,VDD*%
%TO.N,unconnected-(U1-VDD-Pad11)*%
X58137500Y-60500000D03*
%TO.P,U1,12,VDD3V3*%
%TO.N,+3.3V*%
X58137500Y-61150000D03*
%TO.P,U1,13,GND*%
%TO.N,GND*%
X58137500Y-61800000D03*
%TO.P,U1,14,I/PWM*%
%TO.N,unconnected-(U1-I{slash}PWM-Pad14)*%
X58137500Y-62450000D03*
%TD*%
D12*
%TO.P,J1,1*%
%TO.N,MOSI*%
X65490000Y-53040000D03*
D13*
%TO.P,J1,2*%
%TO.N,GND*%
X64220000Y-50500000D03*
%TO.P,J1,3*%
%TO.N,MISO*%
X62950000Y-53040000D03*
%TO.P,J1,4*%
%TO.N,GND*%
X61680000Y-50500000D03*
%TO.P,J1,5*%
%TO.N,CLK*%
X60410000Y-53040000D03*
%TO.P,J1,6*%
%TO.N,GND*%
X59140000Y-50500000D03*
%TO.P,J1,7*%
%TO.N,CS*%
X57870000Y-53040000D03*
%TO.P,J1,8*%
%TO.N,+3.3V*%
X56600000Y-50500000D03*
D14*
%TO.P,J1,SH*%
%TO.N,GND*%
X68815000Y-62440000D03*
X53275000Y-62440000D03*
%TD*%
D15*
%TO.N,Net-(U1-W{slash}PWM)*%
X55400000Y-56400000D03*
%TD*%
D16*
%TO.N,+3.3V*%
X56200000Y-62337500D02*
X57387500Y-61150000D01*
X59200000Y-60776041D02*
X58826041Y-61150000D01*
X56600000Y-55673959D02*
X59200000Y-58273959D01*
X56600000Y-50500000D02*
X56600000Y-55673959D01*
X58826041Y-61150000D02*
X58137500Y-61150000D01*
X59200000Y-58273959D02*
X59200000Y-60776041D01*
X57387500Y-61150000D02*
X58137500Y-61150000D01*
%TO.N,GND*%
X63683959Y-57390000D02*
X67588427Y-57390000D01*
X68815000Y-58616573D02*
X68815000Y-62440000D01*
X62800000Y-58273959D02*
X63683959Y-57390000D01*
X63173959Y-59850000D02*
X62800000Y-59476041D01*
X57863541Y-64062500D02*
X56200000Y-64062500D01*
X59200000Y-62173959D02*
X59200000Y-62726041D01*
X58826041Y-61800000D02*
X59200000Y-62173959D01*
X63862500Y-59850000D02*
X63173959Y-59850000D01*
X58137500Y-61800000D02*
X58826041Y-61800000D01*
X67588427Y-57390000D02*
X68815000Y-58616573D01*
X62800000Y-59476041D02*
X62800000Y-58273959D01*
X59200000Y-62726041D02*
X57863541Y-64062500D01*
%TO.N,CLK*%
X60410000Y-53040000D02*
X60410000Y-59036041D01*
X63173959Y-61800000D02*
X63862500Y-61800000D01*
X60410000Y-59036041D02*
X63173959Y-61800000D01*
%TO.N,MISO*%
X61900000Y-59876041D02*
X63173959Y-61150000D01*
X62950000Y-53040000D02*
X61900000Y-54090000D01*
X61900000Y-54090000D02*
X61900000Y-59876041D01*
X63173959Y-61150000D02*
X63862500Y-61150000D01*
%TO.N,CS*%
X63173959Y-62450000D02*
X63862500Y-62450000D01*
X59960000Y-55130000D02*
X59960000Y-59236041D01*
X59960000Y-59236041D02*
X63173959Y-62450000D01*
X57870000Y-53040000D02*
X59960000Y-55130000D01*
%TO.N,MOSI*%
X63173959Y-60500000D02*
X63862500Y-60500000D01*
X62350000Y-56180000D02*
X62350000Y-59676041D01*
X65490000Y-53040000D02*
X62350000Y-56180000D01*
X62350000Y-59676041D02*
X63173959Y-60500000D01*
%TO.N,Net-(U1-W{slash}PWM)*%
X55400000Y-56400000D02*
X57550000Y-58550000D01*
X57550000Y-58550000D02*
X58137500Y-58550000D01*
%TD*%
%TA.AperFunction,Conductor*%
%TO.N,GND*%
G36*
X62723124Y-51189572D02*
G01*
X62766668Y-51127384D01*
X62837617Y-50975233D01*
X62883789Y-50922793D01*
X62950982Y-50903641D01*
X63017863Y-50923856D01*
X63062381Y-50975232D01*
X63133332Y-51127388D01*
X63176873Y-51189571D01*
X63176875Y-51189572D01*
X63775549Y-50590896D01*
X63776327Y-50601265D01*
X63825887Y-50727541D01*
X63910465Y-50833599D01*
X64022547Y-50910016D01*
X64130299Y-50943253D01*
X63530426Y-51543124D01*
X63530427Y-51543125D01*
X63592610Y-51586666D01*
X63790840Y-51679102D01*
X64002113Y-51735712D01*
X64219998Y-51754775D01*
X64259899Y-51751284D01*
X64328399Y-51765050D01*
X64378583Y-51813665D01*
X64394517Y-51881693D01*
X64371143Y-51947537D01*
X64369975Y-51949122D01*
X64296205Y-52047666D01*
X64245910Y-52182515D01*
X64245909Y-52182517D01*
X64239500Y-52242127D01*
X64239500Y-52245449D01*
X64239500Y-52308138D01*
X64219815Y-52375177D01*
X64167011Y-52420932D01*
X64097853Y-52430876D01*
X64034297Y-52401851D01*
X64013925Y-52379262D01*
X64011065Y-52375177D01*
X63911598Y-52233123D01*
X63756877Y-52078402D01*
X63577639Y-51952898D01*
X63486205Y-51910261D01*
X63379331Y-51860425D01*
X63167974Y-51803792D01*
X62950000Y-51784722D01*
X62732025Y-51803792D01*
X62520668Y-51860425D01*
X62322361Y-51952898D01*
X62143122Y-52078402D01*
X61988402Y-52233122D01*
X61862898Y-52412361D01*
X61792382Y-52563583D01*
X61746209Y-52616022D01*
X61679016Y-52635174D01*
X61612135Y-52614958D01*
X61567618Y-52563583D01*
X61501098Y-52420932D01*
X61497102Y-52412362D01*
X61371598Y-52233123D01*
X61216877Y-52078402D01*
X61037639Y-51952898D01*
X60946205Y-51910261D01*
X60839331Y-51860425D01*
X60627974Y-51803792D01*
X60409999Y-51784722D01*
X60192025Y-51803792D01*
X59980668Y-51860425D01*
X59782361Y-51952898D01*
X59603122Y-52078402D01*
X59448402Y-52233122D01*
X59322898Y-52412361D01*
X59252382Y-52563583D01*
X59206209Y-52616022D01*
X59139016Y-52635174D01*
X59072135Y-52614958D01*
X59027618Y-52563583D01*
X58961098Y-52420932D01*
X58957102Y-52412362D01*
X58831598Y-52233123D01*
X58676877Y-52078402D01*
X58497639Y-51952898D01*
X58406205Y-51910261D01*
X58299331Y-51860425D01*
X58087974Y-51803792D01*
X57870000Y-51784722D01*
X57652025Y-51803792D01*
X57440665Y-51860426D01*
X57401904Y-51878501D01*
X57332827Y-51888993D01*
X57269043Y-51860473D01*
X57230804Y-51801996D01*
X57225500Y-51766119D01*
X57225500Y-51653149D01*
X57245185Y-51586110D01*
X57278374Y-51551576D01*
X57406877Y-51461598D01*
X57561598Y-51306877D01*
X57687102Y-51127639D01*
X57757895Y-50975822D01*
X57804066Y-50923385D01*
X57871260Y-50904233D01*
X57938141Y-50924449D01*
X57982658Y-50975825D01*
X58053331Y-51127386D01*
X58096873Y-51189571D01*
X58096874Y-51189572D01*
X58695550Y-50590896D01*
X58696327Y-50601265D01*
X58745887Y-50727541D01*
X58830465Y-50833599D01*
X58942547Y-50910016D01*
X59050299Y-50943253D01*
X58450426Y-51543124D01*
X58450427Y-51543125D01*
X58512610Y-51586666D01*
X58710840Y-51679102D01*
X58922113Y-51735712D01*
X59140000Y-51754775D01*
X59357886Y-51735712D01*
X59569159Y-51679102D01*
X59767385Y-51586667D01*
X59829572Y-51543124D01*
X59228232Y-50941784D01*
X59274138Y-50934865D01*
X59396357Y-50876007D01*
X59495798Y-50783740D01*
X59563625Y-50666260D01*
X59581499Y-50587946D01*
X60183124Y-51189572D01*
X60226668Y-51127384D01*
X60297617Y-50975233D01*
X60343789Y-50922793D01*
X60410982Y-50903641D01*
X60477863Y-50923856D01*
X60522381Y-50975232D01*
X60593332Y-51127388D01*
X60636873Y-51189571D01*
X60636875Y-51189572D01*
X61235550Y-50590896D01*
X61236327Y-50601265D01*
X61285887Y-50727541D01*
X61370465Y-50833599D01*
X61482547Y-50910016D01*
X61590299Y-50943253D01*
X60990426Y-51543124D01*
X60990427Y-51543125D01*
X61052610Y-51586666D01*
X61250840Y-51679102D01*
X61462113Y-51735712D01*
X61680000Y-51754775D01*
X61897886Y-51735712D01*
X62109159Y-51679102D01*
X62307385Y-51586667D01*
X62369572Y-51543124D01*
X61768232Y-50941784D01*
X61814138Y-50934865D01*
X61936357Y-50876007D01*
X62035798Y-50783740D01*
X62103625Y-50666260D01*
X62121499Y-50587946D01*
X62723124Y-51189572D01*
G37*
%TD.AperFunction*%
%TA.AperFunction,Conductor*%
G36*
X73942539Y-48020185D02*
G01*
X73988294Y-48072989D01*
X73999500Y-48124500D01*
X73999500Y-72875500D01*
X73979815Y-72942539D01*
X73927011Y-72988294D01*
X73875500Y-72999500D01*
X48124500Y-72999500D01*
X48057461Y-72979815D01*
X48011706Y-72927011D01*
X48000500Y-72875500D01*
X48000500Y-70999999D01*
X48394551Y-70999999D01*
X48414317Y-71251149D01*
X48473126Y-71496110D01*
X48521330Y-71612484D01*
X48569534Y-71728859D01*
X48701164Y-71943659D01*
X48864776Y-72135224D01*
X49056341Y-72298836D01*
X49271141Y-72430466D01*
X49503889Y-72526873D01*
X49748852Y-72585683D01*
X50000000Y-72605449D01*
X50251148Y-72585683D01*
X50496111Y-72526873D01*
X50728859Y-72430466D01*
X50943659Y-72298836D01*
X51135224Y-72135224D01*
X51298836Y-71943659D01*
X51430466Y-71728859D01*
X51526873Y-71496111D01*
X51585683Y-71251148D01*
X51605449Y-71000000D01*
X51605449Y-70999999D01*
X70394551Y-70999999D01*
X70414317Y-71251149D01*
X70473126Y-71496110D01*
X70521330Y-71612484D01*
X70569534Y-71728859D01*
X70701164Y-71943659D01*
X70864776Y-72135224D01*
X71056341Y-72298836D01*
X71271141Y-72430466D01*
X71503889Y-72526873D01*
X71748852Y-72585683D01*
X72000000Y-72605449D01*
X72251148Y-72585683D01*
X72496111Y-72526873D01*
X72728859Y-72430466D01*
X72943659Y-72298836D01*
X73135224Y-72135224D01*
X73298836Y-71943659D01*
X73430466Y-71728859D01*
X73526873Y-71496111D01*
X73585683Y-71251148D01*
X73605449Y-71000000D01*
X73585683Y-70748852D01*
X73526873Y-70503889D01*
X73430466Y-70271141D01*
X73298836Y-70056341D01*
X73135224Y-69864776D01*
X72943659Y-69701164D01*
X72728859Y-69569534D01*
X72612485Y-69521330D01*
X72496110Y-69473126D01*
X72251149Y-69414317D01*
X72000000Y-69394551D01*
X71748850Y-69414317D01*
X71503889Y-69473126D01*
X71271139Y-69569535D01*
X71056342Y-69701163D01*
X70864776Y-69864776D01*
X70701163Y-70056342D01*
X70569535Y-70271139D01*
X70473126Y-70503889D01*
X70414317Y-70748850D01*
X70394551Y-70999999D01*
X51605449Y-70999999D01*
X51585683Y-70748852D01*
X51526873Y-70503889D01*
X51430466Y-70271141D01*
X51298836Y-70056341D01*
X51135224Y-69864776D01*
X50943659Y-69701164D01*
X50728859Y-69569534D01*
X50612485Y-69521330D01*
X50496110Y-69473126D01*
X50251149Y-69414317D01*
X50000000Y-69394551D01*
X49748850Y-69414317D01*
X49503889Y-69473126D01*
X49271139Y-69569535D01*
X49056342Y-69701163D01*
X48864776Y-69864776D01*
X48701163Y-70056342D01*
X48569535Y-70271139D01*
X48473126Y-70503889D01*
X48414317Y-70748850D01*
X48394551Y-70999999D01*
X48000500Y-70999999D01*
X48000500Y-62439999D01*
X51269890Y-62439999D01*
X51290300Y-62725357D01*
X51351111Y-63004902D01*
X51451088Y-63272952D01*
X51588193Y-63524042D01*
X51694883Y-63666562D01*
X52558338Y-62803107D01*
X52645577Y-62941948D01*
X52773052Y-63069423D01*
X52911890Y-63156660D01*
X52048436Y-64020115D01*
X52190958Y-64126806D01*
X52442047Y-64263911D01*
X52710097Y-64363888D01*
X52989642Y-64424699D01*
X53274999Y-64445109D01*
X53560357Y-64424699D01*
X53839902Y-64363888D01*
X53977679Y-64312500D01*
X55225001Y-64312500D01*
X55225001Y-64408497D01*
X55225321Y-64414779D01*
X55235318Y-64512650D01*
X55289546Y-64676301D01*
X55380056Y-64823040D01*
X55501959Y-64944943D01*
X55648698Y-65035453D01*
X55812348Y-65089681D01*
X55910203Y-65099678D01*
X55916519Y-65099999D01*
X55950000Y-65099999D01*
X55950000Y-64312500D01*
X56450000Y-64312500D01*
X56450000Y-65099999D01*
X56483497Y-65099999D01*
X56489779Y-65099678D01*
X56587650Y-65089681D01*
X56751301Y-65035453D01*
X56898040Y-64944943D01*
X57019943Y-64823040D01*
X57110453Y-64676301D01*
X57164681Y-64512651D01*
X57174680Y-64414777D01*
X57175000Y-64408499D01*
X57175000Y-64312500D01*
X56450000Y-64312500D01*
X55950000Y-64312500D01*
X55225001Y-64312500D01*
X53977679Y-64312500D01*
X54107952Y-64263911D01*
X54359041Y-64126806D01*
X54501562Y-64020115D01*
X53638108Y-63156661D01*
X53776948Y-63069423D01*
X53904423Y-62941948D01*
X53991661Y-62803108D01*
X54855115Y-63666562D01*
X54961806Y-63524041D01*
X55098910Y-63272953D01*
X55156678Y-63118070D01*
X55198549Y-63062136D01*
X55264013Y-63037719D01*
X55332286Y-63052570D01*
X55378398Y-63096304D01*
X55379661Y-63098352D01*
X55393981Y-63112672D01*
X55427466Y-63173995D01*
X55422482Y-63243687D01*
X55393983Y-63288032D01*
X55380057Y-63301958D01*
X55289546Y-63448698D01*
X55235318Y-63612348D01*
X55225319Y-63710222D01*
X55225000Y-63716500D01*
X55225000Y-63812500D01*
X57174999Y-63812500D01*
X57174999Y-63716502D01*
X57174678Y-63710220D01*
X57164681Y-63612349D01*
X57110453Y-63448698D01*
X57019943Y-63301959D01*
X57006018Y-63288034D01*
X56972533Y-63226711D01*
X56977517Y-63157019D01*
X57006020Y-63112670D01*
X57030591Y-63088100D01*
X57033152Y-63090661D01*
X57066971Y-63060242D01*
X57135934Y-63049018D01*
X57196052Y-63073687D01*
X57197158Y-63074535D01*
X57197159Y-63074536D01*
X57343238Y-63135044D01*
X57460639Y-63150500D01*
X58814360Y-63150499D01*
X58931762Y-63135044D01*
X59077841Y-63074536D01*
X59203282Y-62978282D01*
X59299536Y-62852841D01*
X59360044Y-62706762D01*
X59375500Y-62589361D01*
X59375499Y-62310640D01*
X59372870Y-62290669D01*
X59360045Y-62193239D01*
X59351163Y-62171797D01*
X59343694Y-62102328D01*
X59351164Y-62076888D01*
X59359556Y-62056628D01*
X59367012Y-62000000D01*
X59324500Y-62000000D01*
X59257461Y-61980315D01*
X59226124Y-61951486D01*
X59203281Y-61921716D01*
X59172861Y-61898374D01*
X59131659Y-61841946D01*
X59127504Y-61772200D01*
X59161717Y-61711280D01*
X59172850Y-61701632D01*
X59203282Y-61678282D01*
X59226121Y-61648516D01*
X59282549Y-61607312D01*
X59324499Y-61600000D01*
X59367010Y-61600000D01*
X59367011Y-61599998D01*
X59362617Y-61566619D01*
X59373383Y-61497584D01*
X59397871Y-61462759D01*
X59583786Y-61276843D01*
X59599881Y-61263951D01*
X59601873Y-61261829D01*
X59601877Y-61261827D01*
X59647949Y-61212764D01*
X59650534Y-61210096D01*
X59670120Y-61190512D01*
X59672585Y-61187333D01*
X59680167Y-61178457D01*
X59683248Y-61175176D01*
X59710062Y-61146623D01*
X59719712Y-61129068D01*
X59730400Y-61112798D01*
X59742671Y-61096979D01*
X59742673Y-61096977D01*
X59760026Y-61056873D01*
X59765157Y-61046403D01*
X59766567Y-61043839D01*
X59786197Y-61008133D01*
X59791175Y-60988740D01*
X59797481Y-60970323D01*
X59802664Y-60958347D01*
X59805438Y-60951937D01*
X59812272Y-60908786D01*
X59814635Y-60897372D01*
X59825500Y-60855060D01*
X59825500Y-60835023D01*
X59827027Y-60815625D01*
X59830160Y-60795845D01*
X59826050Y-60752365D01*
X59825500Y-60740696D01*
X59825500Y-60285493D01*
X59845185Y-60218454D01*
X59897989Y-60172699D01*
X59967147Y-60162755D01*
X60030703Y-60191780D01*
X60037179Y-60197810D01*
X61361822Y-61522454D01*
X62673155Y-62833787D01*
X62686055Y-62849888D01*
X62688172Y-62851876D01*
X62688173Y-62851877D01*
X62689200Y-62852841D01*
X62722160Y-62883793D01*
X62735652Y-62898699D01*
X62796717Y-62978282D01*
X62905999Y-63062136D01*
X62922159Y-63074536D01*
X63068238Y-63135044D01*
X63185639Y-63150500D01*
X64539360Y-63150499D01*
X64656762Y-63135044D01*
X64802841Y-63074536D01*
X64928282Y-62978282D01*
X65024536Y-62852841D01*
X65085044Y-62706762D01*
X65100500Y-62589361D01*
X65100499Y-62310640D01*
X65085044Y-62193238D01*
X65076433Y-62172451D01*
X65068965Y-62102985D01*
X65076432Y-62077551D01*
X65085044Y-62056762D01*
X65100500Y-61939361D01*
X65100499Y-61660640D01*
X65085044Y-61543238D01*
X65076433Y-61522451D01*
X65068965Y-61452985D01*
X65076432Y-61427551D01*
X65085044Y-61406762D01*
X65100500Y-61289361D01*
X65100499Y-61010640D01*
X65085044Y-60893238D01*
X65076433Y-60872451D01*
X65068965Y-60802985D01*
X65076432Y-60777551D01*
X65085044Y-60756762D01*
X65098920Y-60651360D01*
X65127185Y-60587466D01*
X65185509Y-60548994D01*
X65255374Y-60548162D01*
X65314597Y-60585234D01*
X65317170Y-60588227D01*
X65340356Y-60616088D01*
X65406209Y-60695218D01*
X65610677Y-60878423D01*
X65839641Y-61029904D01*
X66088221Y-61146433D01*
X66351119Y-61225527D01*
X66622731Y-61265500D01*
X66622734Y-61265500D01*
X66826285Y-61265500D01*
X66828547Y-61265500D01*
X66965186Y-61255499D01*
X67033484Y-61270237D01*
X67082971Y-61319560D01*
X67097937Y-61387808D01*
X67083070Y-61438595D01*
X66991088Y-61607046D01*
X66891111Y-61875097D01*
X66830300Y-62154642D01*
X66809890Y-62439999D01*
X66830300Y-62725357D01*
X66891111Y-63004902D01*
X66991088Y-63272952D01*
X67128193Y-63524042D01*
X67234883Y-63666562D01*
X68098338Y-62803107D01*
X68185577Y-62941948D01*
X68313052Y-63069423D01*
X68451891Y-63156661D01*
X67588436Y-64020115D01*
X67730958Y-64126806D01*
X67982047Y-64263911D01*
X68250097Y-64363888D01*
X68529642Y-64424699D01*
X68815000Y-64445109D01*
X69100357Y-64424699D01*
X69379902Y-64363888D01*
X69647952Y-64263911D01*
X69899041Y-64126806D01*
X70041562Y-64020115D01*
X69178108Y-63156661D01*
X69316948Y-63069423D01*
X69444423Y-62941948D01*
X69531661Y-62803108D01*
X70395115Y-63666562D01*
X70501806Y-63524041D01*
X70638911Y-63272952D01*
X70738888Y-63004902D01*
X70799699Y-62725357D01*
X70820109Y-62439999D01*
X70799699Y-62154642D01*
X70738888Y-61875097D01*
X70638911Y-61607047D01*
X70501806Y-61355958D01*
X70395115Y-61213436D01*
X69531660Y-62076890D01*
X69444423Y-61938052D01*
X69316948Y-61810577D01*
X69178108Y-61723338D01*
X70041562Y-60859883D01*
X69899042Y-60753193D01*
X69647952Y-60616088D01*
X69379902Y-60516111D01*
X69100357Y-60455300D01*
X68814999Y-60434890D01*
X68533148Y-60455049D01*
X68464875Y-60440197D01*
X68415470Y-60390792D01*
X68400618Y-60322519D01*
X68414024Y-60274667D01*
X68471562Y-60162755D01*
X68490727Y-60125479D01*
X68579370Y-59865646D01*
X68586964Y-59824536D01*
X68629236Y-59595674D01*
X68639262Y-59321321D01*
X68624189Y-59184325D01*
X68609236Y-59048429D01*
X68539796Y-58782818D01*
X68432423Y-58530148D01*
X68289405Y-58295804D01*
X68113791Y-58084782D01*
X67909323Y-57901577D01*
X67680359Y-57750096D01*
X67431779Y-57633567D01*
X67168881Y-57554473D01*
X66897269Y-57514500D01*
X66691453Y-57514500D01*
X66689204Y-57514664D01*
X66689193Y-57514665D01*
X66486194Y-57529522D01*
X66218225Y-57589215D01*
X65961803Y-57687288D01*
X65722391Y-57821653D01*
X65505094Y-57989443D01*
X65314548Y-58187081D01*
X65271294Y-58247539D01*
X65216277Y-58290608D01*
X65146709Y-58297095D01*
X65084677Y-58264941D01*
X65055885Y-58222841D01*
X65024536Y-58147158D01*
X64928282Y-58021717D01*
X64802840Y-57925463D01*
X64656762Y-57864956D01*
X64543380Y-57850029D01*
X64543378Y-57850028D01*
X64539361Y-57849500D01*
X64535307Y-57849500D01*
X63189694Y-57849500D01*
X63189678Y-57849500D01*
X63185640Y-57849501D01*
X63181631Y-57850028D01*
X63181627Y-57850029D01*
X63115682Y-57858710D01*
X63046647Y-57847942D01*
X62994392Y-57801561D01*
X62975500Y-57735770D01*
X62975500Y-57184151D01*
X62975500Y-56490447D01*
X62995184Y-56423412D01*
X63011809Y-56402780D01*
X65087771Y-54326817D01*
X65149094Y-54293333D01*
X65175452Y-54290499D01*
X66284561Y-54290499D01*
X66287872Y-54290499D01*
X66347483Y-54284091D01*
X66482331Y-54233796D01*
X66597546Y-54147546D01*
X66683796Y-54032331D01*
X66734091Y-53897483D01*
X66740500Y-53837873D01*
X66740499Y-52242128D01*
X66734091Y-52182517D01*
X66683796Y-52047669D01*
X66597546Y-51932454D01*
X66482331Y-51846204D01*
X66347483Y-51795909D01*
X66287873Y-51789500D01*
X66284551Y-51789500D01*
X64950988Y-51789500D01*
X64883949Y-51769815D01*
X64838194Y-51717011D01*
X64828250Y-51647853D01*
X64857275Y-51584297D01*
X64879865Y-51563924D01*
X64909571Y-51543123D01*
X64308232Y-50941784D01*
X64354138Y-50934865D01*
X64476357Y-50876007D01*
X64575798Y-50783740D01*
X64643625Y-50666260D01*
X64661499Y-50587946D01*
X65263124Y-51189572D01*
X65306667Y-51127385D01*
X65399102Y-50929159D01*
X65455712Y-50717886D01*
X65474775Y-50500000D01*
X65455712Y-50282113D01*
X65399102Y-50070840D01*
X65366068Y-50000000D01*
X70394551Y-50000000D01*
X70414317Y-50251149D01*
X70473126Y-50496110D01*
X70474738Y-50500001D01*
X70569534Y-50728859D01*
X70701164Y-50943659D01*
X70864776Y-51135224D01*
X71056341Y-51298836D01*
X71271141Y-51430466D01*
X71503889Y-51526873D01*
X71748852Y-51585683D01*
X72000000Y-51605449D01*
X72251148Y-51585683D01*
X72496111Y-51526873D01*
X72728859Y-51430466D01*
X72943659Y-51298836D01*
X73135224Y-51135224D01*
X73298836Y-50943659D01*
X73430466Y-50728859D01*
X73526873Y-50496111D01*
X73585683Y-50251148D01*
X73605449Y-50000000D01*
X73585683Y-49748852D01*
X73526873Y-49503889D01*
X73430466Y-49271141D01*
X73298836Y-49056341D01*
X73135224Y-48864776D01*
X72943659Y-48701164D01*
X72728859Y-48569534D01*
X72612484Y-48521330D01*
X72496110Y-48473126D01*
X72251149Y-48414317D01*
X72000000Y-48394551D01*
X71748850Y-48414317D01*
X71503889Y-48473126D01*
X71271139Y-48569535D01*
X71056342Y-48701163D01*
X70864776Y-48864776D01*
X70701163Y-49056342D01*
X70569535Y-49271139D01*
X70473126Y-49503889D01*
X70414317Y-49748850D01*
X70394551Y-50000000D01*
X65366068Y-50000000D01*
X65306667Y-49872615D01*
X65263123Y-49810428D01*
X64664449Y-50409101D01*
X64663673Y-50398735D01*
X64614113Y-50272459D01*
X64529535Y-50166401D01*
X64417453Y-50089984D01*
X64309698Y-50056746D01*
X64909572Y-49456874D01*
X64909571Y-49456873D01*
X64847386Y-49413331D01*
X64649161Y-49320898D01*
X64437886Y-49264287D01*
X64220000Y-49245224D01*
X64002113Y-49264287D01*
X63790840Y-49320897D01*
X63592611Y-49413333D01*
X63530428Y-49456874D01*
X63530427Y-49456875D01*
X64131767Y-50058215D01*
X64085862Y-50065135D01*
X63963643Y-50123993D01*
X63864202Y-50216260D01*
X63796375Y-50333740D01*
X63778500Y-50412052D01*
X63176875Y-49810427D01*
X63176874Y-49810428D01*
X63133333Y-49872611D01*
X63062382Y-50024767D01*
X63016209Y-50077206D01*
X62949016Y-50096358D01*
X62882135Y-50076142D01*
X62837618Y-50024767D01*
X62766667Y-49872615D01*
X62723123Y-49810428D01*
X62124449Y-50409101D01*
X62123673Y-50398735D01*
X62074113Y-50272459D01*
X61989535Y-50166401D01*
X61877453Y-50089984D01*
X61769700Y-50056747D01*
X62369572Y-49456875D01*
X62369571Y-49456873D01*
X62307386Y-49413331D01*
X62109161Y-49320898D01*
X61897886Y-49264287D01*
X61680000Y-49245224D01*
X61462113Y-49264287D01*
X61250840Y-49320897D01*
X61052611Y-49413333D01*
X60990428Y-49456874D01*
X60990427Y-49456875D01*
X61591768Y-50058215D01*
X61545862Y-50065135D01*
X61423643Y-50123993D01*
X61324202Y-50216260D01*
X61256375Y-50333740D01*
X61238500Y-50412053D01*
X60636875Y-49810427D01*
X60636874Y-49810428D01*
X60593333Y-49872611D01*
X60522382Y-50024767D01*
X60476209Y-50077206D01*
X60409016Y-50096358D01*
X60342135Y-50076142D01*
X60297618Y-50024767D01*
X60226667Y-49872615D01*
X60183123Y-49810428D01*
X59584449Y-50409101D01*
X59583673Y-50398735D01*
X59534113Y-50272459D01*
X59449535Y-50166401D01*
X59337453Y-50089984D01*
X59229699Y-50056746D01*
X59829572Y-49456874D01*
X59829571Y-49456873D01*
X59767386Y-49413331D01*
X59569161Y-49320898D01*
X59357886Y-49264287D01*
X59140000Y-49245224D01*
X58922113Y-49264287D01*
X58710840Y-49320897D01*
X58512611Y-49413333D01*
X58450428Y-49456874D01*
X58450427Y-49456875D01*
X59051769Y-50058215D01*
X59005862Y-50065135D01*
X58883643Y-50123993D01*
X58784202Y-50216260D01*
X58716375Y-50333740D01*
X58698500Y-50412054D01*
X58096875Y-49810427D01*
X58096874Y-49810428D01*
X58053333Y-49872612D01*
X57982658Y-50024175D01*
X57936485Y-50076614D01*
X57869292Y-50095766D01*
X57802411Y-50075550D01*
X57757894Y-50024175D01*
X57746621Y-50000000D01*
X57687102Y-49872362D01*
X57561598Y-49693123D01*
X57406877Y-49538402D01*
X57227639Y-49412898D01*
X57136205Y-49370261D01*
X57029331Y-49320425D01*
X56817974Y-49263792D01*
X56600000Y-49244722D01*
X56382025Y-49263792D01*
X56170668Y-49320425D01*
X55972361Y-49412898D01*
X55793122Y-49538402D01*
X55638402Y-49693122D01*
X55512898Y-49872361D01*
X55420425Y-50070668D01*
X55363792Y-50282025D01*
X55344722Y-50500000D01*
X55363792Y-50717974D01*
X55420425Y-50929331D01*
X55442106Y-50975825D01*
X55512898Y-51127639D01*
X55638402Y-51306877D01*
X55793123Y-51461598D01*
X55921624Y-51551575D01*
X55965247Y-51606151D01*
X55974499Y-51653149D01*
X55974499Y-55479120D01*
X55954814Y-55546159D01*
X55902010Y-55591914D01*
X55832852Y-55601858D01*
X55800063Y-55592399D01*
X55679802Y-55538855D01*
X55494648Y-55499500D01*
X55494646Y-55499500D01*
X55305354Y-55499500D01*
X55305352Y-55499500D01*
X55120197Y-55538855D01*
X54947269Y-55615848D01*
X54794129Y-55727110D01*
X54667466Y-55867783D01*
X54572820Y-56031715D01*
X54514326Y-56211742D01*
X54494540Y-56400000D01*
X54514326Y-56588257D01*
X54572820Y-56768284D01*
X54667466Y-56932216D01*
X54794129Y-57072889D01*
X54947269Y-57184151D01*
X55063168Y-57235752D01*
X55120197Y-57261144D01*
X55190048Y-57275991D01*
X55251528Y-57309183D01*
X55285305Y-57370345D01*
X55280653Y-57440060D01*
X55239049Y-57496193D01*
X55173702Y-57520921D01*
X55173318Y-57520950D01*
X55056194Y-57529522D01*
X54788225Y-57589215D01*
X54531803Y-57687288D01*
X54292391Y-57821653D01*
X54075094Y-57989443D01*
X53884545Y-58187083D01*
X53724802Y-58410364D01*
X53599272Y-58654521D01*
X53510629Y-58914352D01*
X53460763Y-59184325D01*
X53450737Y-59458678D01*
X53480763Y-59731569D01*
X53505068Y-59824536D01*
X53550204Y-59997182D01*
X53657577Y-60249852D01*
X53667736Y-60266498D01*
X53685855Y-60333978D01*
X53664617Y-60400541D01*
X53610763Y-60445055D01*
X53553043Y-60454777D01*
X53275000Y-60434890D01*
X52989642Y-60455300D01*
X52710097Y-60516111D01*
X52442047Y-60616088D01*
X52190954Y-60753195D01*
X52048437Y-60859882D01*
X52048436Y-60859882D01*
X52911891Y-61723338D01*
X52773052Y-61810577D01*
X52645577Y-61938052D01*
X52558338Y-62076891D01*
X51694883Y-61213436D01*
X51694882Y-61213437D01*
X51588195Y-61355954D01*
X51451088Y-61607047D01*
X51351111Y-61875097D01*
X51290300Y-62154642D01*
X51269890Y-62439999D01*
X48000500Y-62439999D01*
X48000500Y-50000000D01*
X48394551Y-50000000D01*
X48414317Y-50251149D01*
X48473126Y-50496110D01*
X48474738Y-50500001D01*
X48569534Y-50728859D01*
X48701164Y-50943659D01*
X48864776Y-51135224D01*
X49056341Y-51298836D01*
X49271141Y-51430466D01*
X49503889Y-51526873D01*
X49748852Y-51585683D01*
X50000000Y-51605449D01*
X50251148Y-51585683D01*
X50496111Y-51526873D01*
X50728859Y-51430466D01*
X50943659Y-51298836D01*
X51135224Y-51135224D01*
X51298836Y-50943659D01*
X51430466Y-50728859D01*
X51526873Y-50496111D01*
X51585683Y-50251148D01*
X51605449Y-50000000D01*
X51585683Y-49748852D01*
X51526873Y-49503889D01*
X51430466Y-49271141D01*
X51298836Y-49056341D01*
X51135224Y-48864776D01*
X50943659Y-48701164D01*
X50728859Y-48569534D01*
X50612485Y-48521330D01*
X50496110Y-48473126D01*
X50251149Y-48414317D01*
X50000000Y-48394551D01*
X49748850Y-48414317D01*
X49503889Y-48473126D01*
X49271139Y-48569535D01*
X49056342Y-48701163D01*
X48864776Y-48864776D01*
X48701163Y-49056342D01*
X48569535Y-49271139D01*
X48473126Y-49503889D01*
X48414317Y-49748850D01*
X48394551Y-50000000D01*
X48000500Y-50000000D01*
X48000500Y-48124500D01*
X48020185Y-48057461D01*
X48072989Y-48011706D01*
X48124500Y-48000500D01*
X73875500Y-48000500D01*
X73942539Y-48020185D01*
G37*
%TD.AperFunction*%
%TD*%
M02*
