%TF.GenerationSoftware,KiCad,Pcbnew,7.0.2-6a45011f42~172~ubuntu22.04.1*%
%TF.CreationDate,2023-07-12T14:23:40-05:00*%
%TF.ProjectId,EncoderHub,456e636f-6465-4724-9875-622e6b696361,rev?*%
%TF.SameCoordinates,Original*%
%TF.FileFunction,Soldermask,Top*%
%TF.FilePolarity,Negative*%
%FSLAX46Y46*%
G04 Gerber Fmt 4.6, Leading zero omitted, Abs format (unit mm)*
G04 Created by KiCad (PCBNEW 7.0.2-6a45011f42~172~ubuntu22.04.1) date 2023-07-12 14:23:40*
%MOMM*%
%LPD*%
G01*
G04 APERTURE LIST*
G04 Aperture macros list*
%AMRoundRect*
0 Rectangle with rounded corners*
0 $1 Rounding radius*
0 $2 $3 $4 $5 $6 $7 $8 $9 X,Y pos of 4 corners*
0 Add a 4 corners polygon primitive as box body*
4,1,4,$2,$3,$4,$5,$6,$7,$8,$9,$2,$3,0*
0 Add four circle primitives for the rounded corners*
1,1,$1+$1,$2,$3*
1,1,$1+$1,$4,$5*
1,1,$1+$1,$6,$7*
1,1,$1+$1,$8,$9*
0 Add four rect primitives between the rounded corners*
20,1,$1+$1,$2,$3,$4,$5,0*
20,1,$1+$1,$4,$5,$6,$7,0*
20,1,$1+$1,$6,$7,$8,$9,0*
20,1,$1+$1,$8,$9,$2,$3,0*%
G04 Aperture macros list end*
%ADD10C,3.250000*%
%ADD11R,1.500000X1.500000*%
%ADD12C,1.500000*%
%ADD13C,3.000000*%
%ADD14RoundRect,0.250000X0.400000X0.625000X-0.400000X0.625000X-0.400000X-0.625000X0.400000X-0.625000X0*%
%ADD15R,1.530000X1.530000*%
%ADD16C,1.530000*%
%ADD17R,2.000000X2.000000*%
%ADD18C,2.000000*%
%ADD19RoundRect,0.250001X-0.462499X-0.624999X0.462499X-0.624999X0.462499X0.624999X-0.462499X0.624999X0*%
G04 APERTURE END LIST*
D10*
%TO.C,J15*%
X118890000Y-170160000D03*
X118890000Y-158730000D03*
D11*
X112540000Y-168890000D03*
D12*
X110000000Y-167620000D03*
X112540000Y-166350000D03*
X110000000Y-165080000D03*
X112540000Y-163810000D03*
X110000000Y-162540000D03*
X112540000Y-161270000D03*
X110000000Y-160000000D03*
D13*
X121940000Y-172215000D03*
X121940000Y-156675000D03*
%TD*%
D10*
%TO.C,J2*%
X63650000Y-38730000D03*
X63650000Y-50160000D03*
D11*
X70000000Y-40000000D03*
D12*
X72540000Y-41270000D03*
X70000000Y-42540000D03*
X72540000Y-43810000D03*
X70000000Y-45080000D03*
X72540000Y-46350000D03*
X70000000Y-47620000D03*
X72540000Y-48890000D03*
D13*
X60600000Y-36675000D03*
X60600000Y-52215000D03*
%TD*%
D10*
%TO.C,J7*%
X63650000Y-138730000D03*
X63650000Y-150160000D03*
D11*
X70000000Y-140000000D03*
D12*
X72540000Y-141270000D03*
X70000000Y-142540000D03*
X72540000Y-143810000D03*
X70000000Y-145080000D03*
X72540000Y-146350000D03*
X70000000Y-147620000D03*
X72540000Y-148890000D03*
D13*
X60600000Y-136675000D03*
X60600000Y-152215000D03*
%TD*%
D10*
%TO.C,J12*%
X118890000Y-50160000D03*
X118890000Y-38730000D03*
D11*
X112540000Y-48890000D03*
D12*
X110000000Y-47620000D03*
X112540000Y-46350000D03*
X110000000Y-45080000D03*
X112540000Y-43810000D03*
X110000000Y-42540000D03*
X112540000Y-41270000D03*
X110000000Y-40000000D03*
D13*
X121940000Y-52215000D03*
X121940000Y-36675000D03*
%TD*%
D10*
%TO.C,J13*%
X118890000Y-70160000D03*
X118890000Y-58730000D03*
D11*
X112540000Y-68890000D03*
D12*
X110000000Y-67620000D03*
X112540000Y-66350000D03*
X110000000Y-65080000D03*
X112540000Y-63810000D03*
X110000000Y-62540000D03*
X112540000Y-61270000D03*
X110000000Y-60000000D03*
D13*
X121940000Y-72215000D03*
X121940000Y-56675000D03*
%TD*%
D14*
%TO.C,R1*%
X96750000Y-183600000D03*
X93650000Y-183600000D03*
%TD*%
D10*
%TO.C,J4*%
X63650000Y-78730000D03*
X63650000Y-90160000D03*
D11*
X70000000Y-80000000D03*
D12*
X72540000Y-81270000D03*
X70000000Y-82540000D03*
X72540000Y-83810000D03*
X70000000Y-85080000D03*
X72540000Y-86350000D03*
X70000000Y-87620000D03*
X72540000Y-88890000D03*
D13*
X60600000Y-76675000D03*
X60600000Y-92215000D03*
%TD*%
D10*
%TO.C,J6*%
X63650000Y-118730000D03*
X63650000Y-130160000D03*
D11*
X70000000Y-120000000D03*
D12*
X72540000Y-121270000D03*
X70000000Y-122540000D03*
X72540000Y-123810000D03*
X70000000Y-125080000D03*
X72540000Y-126350000D03*
X70000000Y-127620000D03*
X72540000Y-128890000D03*
D13*
X60600000Y-116675000D03*
X60600000Y-132215000D03*
%TD*%
D10*
%TO.C,J9*%
X118890000Y-110160000D03*
X118890000Y-98730000D03*
D11*
X112540000Y-108890000D03*
D12*
X110000000Y-107620000D03*
X112540000Y-106350000D03*
X110000000Y-105080000D03*
X112540000Y-103810000D03*
X110000000Y-102540000D03*
X112540000Y-101270000D03*
X110000000Y-100000000D03*
D13*
X121940000Y-112215000D03*
X121940000Y-96675000D03*
%TD*%
D10*
%TO.C,J5*%
X63650000Y-98730000D03*
X63650000Y-110160000D03*
D11*
X70000000Y-100000000D03*
D12*
X72540000Y-101270000D03*
X70000000Y-102540000D03*
X72540000Y-103810000D03*
X70000000Y-105080000D03*
X72540000Y-106350000D03*
X70000000Y-107620000D03*
X72540000Y-108890000D03*
D13*
X60600000Y-96675000D03*
X60600000Y-112215000D03*
%TD*%
D10*
%TO.C,J14*%
X118890000Y-90160000D03*
X118890000Y-78730000D03*
D11*
X112540000Y-88890000D03*
D12*
X110000000Y-87620000D03*
X112540000Y-86350000D03*
X110000000Y-85080000D03*
X112540000Y-83810000D03*
X110000000Y-82540000D03*
X112540000Y-81270000D03*
X110000000Y-80000000D03*
D13*
X121940000Y-92215000D03*
X121940000Y-76675000D03*
%TD*%
D15*
%TO.C,J1*%
X79840000Y-26140000D03*
D16*
X79840000Y-23600000D03*
X82380000Y-26140000D03*
X82380000Y-23600000D03*
X84920000Y-26140000D03*
X84920000Y-23600000D03*
X87460000Y-26140000D03*
X87460000Y-23600000D03*
X90000000Y-26140000D03*
X90000000Y-23600000D03*
X92540000Y-26140000D03*
X92540000Y-23600000D03*
X95080000Y-26140000D03*
X95080000Y-23600000D03*
X97620000Y-26140000D03*
X97620000Y-23600000D03*
X100160000Y-26140000D03*
X100160000Y-23600000D03*
X102700000Y-26140000D03*
X102700000Y-23600000D03*
%TD*%
D10*
%TO.C,J3*%
X63650000Y-58730000D03*
X63650000Y-70160000D03*
D11*
X70000000Y-60000000D03*
D12*
X72540000Y-61270000D03*
X70000000Y-62540000D03*
X72540000Y-63810000D03*
X70000000Y-65080000D03*
X72540000Y-66350000D03*
X70000000Y-67620000D03*
X72540000Y-68890000D03*
D13*
X60600000Y-56675000D03*
X60600000Y-72215000D03*
%TD*%
D10*
%TO.C,J10*%
X118890000Y-130160000D03*
X118890000Y-118730000D03*
D11*
X112540000Y-128890000D03*
D12*
X110000000Y-127620000D03*
X112540000Y-126350000D03*
X110000000Y-125080000D03*
X112540000Y-123810000D03*
X110000000Y-122540000D03*
X112540000Y-121270000D03*
X110000000Y-120000000D03*
D13*
X121940000Y-132215000D03*
X121940000Y-116675000D03*
%TD*%
D17*
%TO.C,C1*%
X89832323Y-176000000D03*
D18*
X94832323Y-176000000D03*
%TD*%
D10*
%TO.C,J11*%
X118890000Y-150160000D03*
X118890000Y-138730000D03*
D11*
X112540000Y-148890000D03*
D12*
X110000000Y-147620000D03*
X112540000Y-146350000D03*
X110000000Y-145080000D03*
X112540000Y-143810000D03*
X110000000Y-142540000D03*
X112540000Y-141270000D03*
X110000000Y-140000000D03*
D13*
X121940000Y-152215000D03*
X121940000Y-136675000D03*
%TD*%
D19*
%TO.C,D1*%
X87912500Y-183660000D03*
X90887500Y-183660000D03*
%TD*%
D10*
%TO.C,J8*%
X63650000Y-158730000D03*
X63650000Y-170160000D03*
D11*
X70000000Y-160000000D03*
D12*
X72540000Y-161270000D03*
X70000000Y-162540000D03*
X72540000Y-163810000D03*
X70000000Y-165080000D03*
X72540000Y-166350000D03*
X70000000Y-167620000D03*
X72540000Y-168890000D03*
D13*
X60600000Y-156675000D03*
X60600000Y-172215000D03*
%TD*%
M02*
