M48
; DRILL file {KiCad 7.0.2-6a45011f42~172~ubuntu22.04.1} date Wed 12 Jul 2023 02:23:31 PM CDT
; FORMAT={-:-/ absolute / inch / decimal}
; #@! TF.CreationDate,2023-07-12T14:23:31-05:00
; #@! TF.GenerationSoftware,Kicad,Pcbnew,7.0.2-6a45011f42~172~ubuntu22.04.1
; #@! TF.FileFunction,Plated,1,2,PTH
FMAT,2
INCH
; #@! TA.AperFunction,Plated,PTH,ViaDrill
T1C0.0157
; #@! TA.AperFunction,Plated,PTH,ComponentDrill
T2C0.0354
; #@! TA.AperFunction,Plated,PTH,ComponentDrill
T3C0.0394
; #@! TA.AperFunction,Plated,PTH,ComponentDrill
T4C0.0402
; #@! TA.AperFunction,Plated,PTH,ComponentDrill
T5C0.0630
%
G90
G05
T1
X3.0866Y-1.3071
X3.0866Y-1.3465
X3.0866Y-1.3858
X3.0866Y-1.4252
X3.0866Y-1.4646
X3.0866Y-1.5039
X3.0866Y-1.5433
X3.2598Y-0.874
X3.3691Y-1.9098
X3.3691Y-2.6972
X3.3691Y-3.4846
X3.3691Y-4.272
X3.3691Y-5.0594
X3.3691Y-5.8469
X3.3701Y-6.6299
X3.5187Y-1.7524
X3.5187Y-2.5398
X3.5187Y-3.3272
X3.5187Y-4.1146
X3.5187Y-4.902
X3.5187Y-5.6894
X3.5197Y-6.4724
X3.6683Y-1.6657
X3.6683Y-2.4531
X3.6683Y-3.2406
X3.6683Y-4.028
X3.6683Y-4.8154
X3.6683Y-5.6028
X3.6693Y-6.3858
X3.8258Y-1.5634
X3.8258Y-2.3508
X3.8258Y-3.1382
X3.8258Y-3.9256
X3.8258Y-4.713
X3.8258Y-5.5004
X3.8268Y-6.2835
T2
X2.7559Y-1.5748
X2.7559Y-1.6748
X2.7559Y-1.7748
X2.7559Y-1.8748
X2.7559Y-2.3622
X2.7559Y-2.4622
X2.7559Y-2.5622
X2.7559Y-2.6622
X2.7559Y-3.1496
X2.7559Y-3.2496
X2.7559Y-3.3496
X2.7559Y-3.4496
X2.7559Y-3.937
X2.7559Y-4.037
X2.7559Y-4.137
X2.7559Y-4.237
X2.7559Y-4.7244
X2.7559Y-4.8244
X2.7559Y-4.9244
X2.7559Y-5.0244
X2.7559Y-5.5118
X2.7559Y-5.6118
X2.7559Y-5.7118
X2.7559Y-5.8118
X2.7559Y-6.2992
X2.7559Y-6.3992
X2.7559Y-6.4992
X2.7559Y-6.5992
X2.8559Y-1.6248
X2.8559Y-1.7248
X2.8559Y-1.8248
X2.8559Y-1.9248
X2.8559Y-2.4122
X2.8559Y-2.5122
X2.8559Y-2.6122
X2.8559Y-2.7122
X2.8559Y-3.1996
X2.8559Y-3.2996
X2.8559Y-3.3996
X2.8559Y-3.4996
X2.8559Y-3.987
X2.8559Y-4.087
X2.8559Y-4.187
X2.8559Y-4.287
X2.8559Y-4.7744
X2.8559Y-4.8744
X2.8559Y-4.9744
X2.8559Y-5.0744
X2.8559Y-5.5618
X2.8559Y-5.6618
X2.8559Y-5.7618
X2.8559Y-5.8618
X2.8559Y-6.3492
X2.8559Y-6.4492
X2.8559Y-6.5492
X2.8559Y-6.6492
X4.3307Y-1.5748
X4.3307Y-1.6748
X4.3307Y-1.7748
X4.3307Y-1.8748
X4.3307Y-2.3622
X4.3307Y-2.4622
X4.3307Y-2.5622
X4.3307Y-2.6622
X4.3307Y-3.1496
X4.3307Y-3.2496
X4.3307Y-3.3496
X4.3307Y-3.4496
X4.3307Y-3.937
X4.3307Y-4.037
X4.3307Y-4.137
X4.3307Y-4.237
X4.3307Y-4.7244
X4.3307Y-4.8244
X4.3307Y-4.9244
X4.3307Y-5.0244
X4.3307Y-5.5118
X4.3307Y-5.6118
X4.3307Y-5.7118
X4.3307Y-5.8118
X4.3307Y-6.2992
X4.3307Y-6.3992
X4.3307Y-6.4992
X4.3307Y-6.5992
X4.4307Y-1.6248
X4.4307Y-1.7248
X4.4307Y-1.8248
X4.4307Y-1.9248
X4.4307Y-2.4122
X4.4307Y-2.5122
X4.4307Y-2.6122
X4.4307Y-2.7122
X4.4307Y-3.1996
X4.4307Y-3.2996
X4.4307Y-3.3996
X4.4307Y-3.4996
X4.4307Y-3.987
X4.4307Y-4.087
X4.4307Y-4.187
X4.4307Y-4.287
X4.4307Y-4.7744
X4.4307Y-4.8744
X4.4307Y-4.9744
X4.4307Y-5.0744
X4.4307Y-5.5618
X4.4307Y-5.6618
X4.4307Y-5.7618
X4.4307Y-5.8618
X4.4307Y-6.3492
X4.4307Y-6.4492
X4.4307Y-6.5492
X4.4307Y-6.6492
T3
X3.5367Y-6.9291
X3.7336Y-6.9291
T4
X3.1433Y-0.9291
X3.1433Y-1.0291
X3.2433Y-0.9291
X3.2433Y-1.0291
X3.3433Y-0.9291
X3.3433Y-1.0291
X3.4433Y-0.9291
X3.4433Y-1.0291
X3.5433Y-0.9291
X3.5433Y-1.0291
X3.6433Y-0.9291
X3.6433Y-1.0291
X3.7433Y-0.9291
X3.7433Y-1.0291
X3.8433Y-0.9291
X3.8433Y-1.0291
X3.9433Y-0.9291
X3.9433Y-1.0291
X4.0433Y-0.9291
X4.0433Y-1.0291
T5
X2.3858Y-1.4439
X2.3858Y-2.0557
X2.3858Y-2.2313
X2.3858Y-2.8431
X2.3858Y-3.0187
X2.3858Y-3.6305
X2.3858Y-3.8061
X2.3858Y-4.4179
X2.3858Y-4.5935
X2.3858Y-5.2053
X2.3858Y-5.3809
X2.3858Y-5.9927
X2.3858Y-6.1683
X2.3858Y-6.7801
X4.8008Y-1.4439
X4.8008Y-2.0557
X4.8008Y-2.2313
X4.8008Y-2.8431
X4.8008Y-3.0187
X4.8008Y-3.6305
X4.8008Y-3.8061
X4.8008Y-4.4179
X4.8008Y-4.5935
X4.8008Y-5.2053
X4.8008Y-5.3809
X4.8008Y-5.9927
X4.8008Y-6.1683
X4.8008Y-6.7801
T0
M30
