M48
; DRILL file {KiCad 7.0.2-6a45011f42~172~ubuntu22.04.1} date Wed 12 Jul 2023 02:23:31 PM CDT
; FORMAT={-:-/ absolute / inch / decimal}
; #@! TF.CreationDate,2023-07-12T14:23:31-05:00
; #@! TF.GenerationSoftware,Kicad,Pcbnew,7.0.2-6a45011f42~172~ubuntu22.04.1
; #@! TF.FileFunction,NonPlated,1,2,NPTH
FMAT,2
INCH
; #@! TA.AperFunction,NonPlated,NPTH,ComponentDrill
T1C0.1280
%
G90
G05
T1
X2.5059Y-1.5248
X2.5059Y-1.9748
X2.5059Y-2.3122
X2.5059Y-2.7622
X2.5059Y-3.0996
X2.5059Y-3.5496
X2.5059Y-3.887
X2.5059Y-4.337
X2.5059Y-4.6744
X2.5059Y-5.1244
X2.5059Y-5.4618
X2.5059Y-5.9118
X2.5059Y-6.2492
X2.5059Y-6.6992
X4.6807Y-1.5248
X4.6807Y-1.9748
X4.6807Y-2.3122
X4.6807Y-2.7622
X4.6807Y-3.0996
X4.6807Y-3.5496
X4.6807Y-3.887
X4.6807Y-4.337
X4.6807Y-4.6744
X4.6807Y-5.1244
X4.6807Y-5.4618
X4.6807Y-5.9118
X4.6807Y-6.2492
X4.6807Y-6.6992
T0
M30
